Sprat-Condensed Thin.ufo
<glyph name="exclam" format="2">
  <advance width="106"/>
  <unicode hex="0021"/>
  <outline>
    <contour>
      <point x="43" y="149" type="line"/>
      <point x="63" y="149" type="line"/>
      <point x="77" y="700" type="line"/>
      <point x="31" y="700" type="line"/>
    </contour>
    <contour>
      <point x="53" y="-15" type="curve" smooth="yes"/>
      <point x="70" y="-15"/>
      <point x="86" y="-2"/>
      <point x="86" y="18" type="curve" smooth="yes"/>
      <point x="86" y="38"/>
      <point x="70" y="51"/>
      <point x="53" y="51" type="curve" smooth="yes"/>
      <point x="36" y="51"/>
      <point x="20" y="37"/>
      <point x="20" y="18" type="curve" smooth="yes"/>
      <point x="20" y="-2"/>
      <point x="36" y="-15"/>
    </contour>
  </outline>
</glyph>
<glyph name="quotedbl" format="2">
  <advance width="299"/>
  <unicode hex="0022"/>
  <outline>
    <contour>
      <point x="174" y="520" type="line"/>
      <point x="246" y="551"/>
      <point x="251" y="618"/>
      <point x="249" y="677" type="curve" smooth="yes"/>
      <point x="248" y="705"/>
      <point x="230" y="715"/>
      <point x="213" y="715" type="curve" smooth="yes"/>
      <point x="194" y="715"/>
      <point x="178" y="701"/>
      <point x="178" y="682" type="curve" smooth="yes"/>
      <point x="178" y="662"/>
      <point x="194" y="649"/>
      <point x="211" y="649" type="curve" smooth="yes"/>
      <point x="215" y="649"/>
      <point x="218" y="650"/>
      <point x="222" y="651" type="curve"/>
      <point x="225" y="611"/>
      <point x="224" y="557"/>
      <point x="170" y="530" type="curve"/>
    </contour>
    <contour>
      <point x="34" y="520" type="line"/>
      <point x="106" y="551"/>
      <point x="111" y="618"/>
      <point x="109" y="677" type="curve" smooth="yes"/>
      <point x="108" y="705"/>
      <point x="90" y="715"/>
      <point x="73" y="715" type="curve" smooth="yes"/>
      <point x="54" y="715"/>
      <point x="38" y="701"/>
      <point x="38" y="682" type="curve" smooth="yes"/>
      <point x="38" y="662"/>
      <point x="54" y="649"/>
      <point x="71" y="649" type="curve" smooth="yes"/>
      <point x="75" y="649"/>
      <point x="78" y="650"/>
      <point x="82" y="651" type="curve"/>
      <point x="85" y="611"/>
      <point x="84" y="557"/>
      <point x="30" y="530" type="curve"/>
    </contour>
  </outline>
</glyph>
<glyph name="numbersign" format="2">
  <advance width="599"/>
  <unicode hex="0023"/>
  <outline>
    <contour>
      <point x="232" y="610" type="line"/>
      <point x="57" y="0" type="line"/>
      <point x="89" y="0" type="line"/>
      <point x="264" y="610" type="line"/>
    </contour>
    <contour>
      <point x="462" y="610" type="line"/>
      <point x="287" y="0" type="line"/>
      <point x="319" y="0" type="line"/>
      <point x="494" y="610" type="line"/>
    </contour>
    <contour>
      <point x="80" y="430" type="line"/>
      <point x="80" y="412" type="line"/>
      <point x="559" y="412" type="line"/>
      <point x="559" y="430" type="line"/>
    </contour>
    <contour>
      <point x="40" y="230" type="line"/>
      <point x="40" y="212" type="line"/>
      <point x="514" y="212" type="line"/>
      <point x="514" y="230" type="line"/>
    </contour>
  </outline>
</glyph>
<glyph name="dollar" format="2">
  <advance width="651"/>
  <unicode hex="0024"/>
  <outline>
    <contour>
      <point x="70" y="301" type="line"/>
      <point x="86" y="47" type="line"/>
      <point x="127" y="-22"/>
      <point x="231" y="-79"/>
      <point x="345" y="-79" type="curve" smooth="yes"/>
      <point x="471" y="-79"/>
      <point x="571" y="5"/>
      <point x="571" y="112" type="curve" smooth="yes"/>
      <point x="571" y="362"/>
      <point x="143" y="236"/>
      <point x="143" y="449" type="curve" smooth="yes"/>
      <point x="143" y="556"/>
      <point x="226" y="614"/>
      <point x="336" y="614" type="curve" smooth="yes"/>
      <point x="424" y="614"/>
      <point x="492" y="589"/>
      <point x="517" y="372" type="curve"/>
      <point x="527" y="372" type="line"/>
      <point x="505" y="569" type="line"/>
      <point x="474" y="603"/>
      <point x="404" y="632"/>
      <point x="338" y="632" type="curve" smooth="yes"/>
      <point x="196" y="632"/>
      <point x="108" y="556"/>
      <point x="108" y="444" type="curve" smooth="yes"/>
      <point x="108" y="195"/>
      <point x="536" y="325"/>
      <point x="536" y="97" type="curve" smooth="yes"/>
      <point x="536" y="1"/>
      <point x="438" y="-61"/>
      <point x="351" y="-61" type="curve" smooth="yes"/>
      <point x="177" y="-61"/>
      <point x="113" y="15"/>
      <point x="80" y="301" type="curve"/>
    </contour>
    <contour>
      <point x="238" y="615" type="line"/>
      <point x="253" y="615" type="line"/>
      <point x="253" y="750" type="line"/>
      <point x="238" y="750" type="line"/>
    </contour>
    <contour>
      <point x="398" y="619" type="line"/>
      <point x="413" y="615" type="line"/>
      <point x="413" y="750" type="line"/>
      <point x="398" y="750" type="line"/>
    </contour>
    <contour>
      <point x="238" y="-213" type="line"/>
      <point x="253" y="-213" type="line"/>
      <point x="253" y="-58" type="line"/>
      <point x="238" y="-58" type="line"/>
    </contour>
    <contour>
      <point x="398" y="-213" type="line"/>
      <point x="413" y="-213" type="line"/>
      <point x="413" y="-58" type="line"/>
      <point x="398" y="-58" type="line"/>
    </contour>
  </outline>
</glyph>
<glyph name="percent" format="2">
  <advance width="640"/>
  <unicode hex="0025"/>
  <guideline x="90" y="1" angle="90"/>
  <outline>
    <contour>
      <point x="90" y="0" type="line"/>
      <point x="114" y="0" type="line"/>
      <point x="563" y="715" type="line"/>
      <point x="539" y="715" type="line"/>
    </contour>
    <contour>
      <point x="192" y="463" type="curve" smooth="yes"/>
      <point x="261" y="463"/>
      <point x="317" y="519"/>
      <point x="317" y="589" type="curve" smooth="yes"/>
      <point x="317" y="657"/>
      <point x="261" y="713"/>
      <point x="192" y="713" type="curve" smooth="yes"/>
      <point x="123" y="713"/>
      <point x="67" y="657"/>
      <point x="67" y="589" type="curve" smooth="yes"/>
      <point x="67" y="519"/>
      <point x="123" y="463"/>
    </contour>
    <contour>
      <point x="300" y="589" type="curve" smooth="yes"/>
      <point x="300" y="527"/>
      <point x="246" y="496"/>
      <point x="192" y="496" type="curve" smooth="yes"/>
      <point x="137" y="496"/>
      <point x="83" y="527"/>
      <point x="83" y="589" type="curve" smooth="yes"/>
      <point x="83" y="650"/>
      <point x="137" y="680"/>
      <point x="192" y="680" type="curve" smooth="yes"/>
      <point x="246" y="680"/>
      <point x="300" y="650"/>
    </contour>
    <contour>
      <point x="468" y="-14" type="curve" smooth="yes"/>
      <point x="536" y="-14"/>
      <point x="592" y="42"/>
      <point x="592" y="111" type="curve" smooth="yes"/>
      <point x="592" y="180"/>
      <point x="536" y="236"/>
      <point x="468" y="236" type="curve" smooth="yes"/>
      <point x="398" y="236"/>
      <point x="342" y="180"/>
      <point x="342" y="111" type="curve" smooth="yes"/>
      <point x="342" y="42"/>
      <point x="398" y="-14"/>
    </contour>
    <contour>
      <point x="576" y="111" type="curve" smooth="yes"/>
      <point x="576" y="50"/>
      <point x="522" y="19"/>
      <point x="468" y="19" type="curve" smooth="yes"/>
      <point x="413" y="19"/>
      <point x="359" y="50"/>
      <point x="359" y="111" type="curve" smooth="yes"/>
      <point x="359" y="173"/>
      <point x="413" y="203"/>
      <point x="468" y="203" type="curve" smooth="yes"/>
      <point x="522" y="203"/>
      <point x="576" y="173"/>
    </contour>
  </outline>
</glyph>
<glyph name="ampersand" format="2">
  <advance width="602"/>
  <unicode hex="0026"/>
  <outline>
    <contour>
      <point x="590" y="84" type="curve"/>
      <point x="580" y="88" type="line"/>
      <point x="562" y="32"/>
      <point x="537" y="8"/>
      <point x="510" y="8" type="curve" smooth="yes"/>
      <point x="471" y="8"/>
      <point x="427" y="57"/>
      <point x="377" y="131" type="curve" smooth="yes"/>
      <point x="148" y="471" type="line" smooth="yes"/>
      <point x="124" y="506"/>
      <point x="113" y="544"/>
      <point x="113" y="578" type="curve" smooth="yes"/>
      <point x="113" y="642"/>
      <point x="157" y="698"/>
      <point x="231" y="698" type="curve" smooth="yes"/>
      <point x="286" y="698"/>
      <point x="376" y="660"/>
      <point x="413" y="480" type="curve"/>
      <point x="423" y="480" type="line"/>
      <point x="402" y="639" type="line"/>
      <point x="360" y="691"/>
      <point x="305" y="715"/>
      <point x="248" y="715" type="curve" smooth="yes"/>
      <point x="140" y="715"/>
      <point x="76" y="636"/>
      <point x="76" y="550" type="curve" smooth="yes"/>
      <point x="76" y="517"/>
      <point x="86" y="483"/>
      <point x="106" y="453" type="curve" smooth="yes"/>
      <point x="372" y="59" type="line" smooth="yes"/>
      <point x="406" y="10"/>
      <point x="448" y="-15"/>
      <point x="487" y="-15" type="curve" smooth="yes"/>
      <point x="536" y="-15"/>
      <point x="573" y="18"/>
    </contour>
    <contour>
      <point x="245" y="-15" type="curve" smooth="yes"/>
      <point x="381" y="-15"/>
      <point x="496" y="50"/>
      <point x="496" y="419" type="curve"/>
      <point x="451" y="419" type="line"/>
      <point x="452" y="104"/>
      <point x="379" y="0"/>
      <point x="256" y="0" type="curve" smooth="yes"/>
      <point x="164" y="0"/>
      <point x="61" y="81"/>
      <point x="61" y="216" type="curve" smooth="yes"/>
      <point x="61" y="310"/>
      <point x="111" y="385"/>
      <point x="160" y="402" type="curve"/>
      <point x="146" y="409" type="line"/>
      <point x="85" y="384"/>
      <point x="17" y="318"/>
      <point x="17" y="212" type="curve" smooth="yes"/>
      <point x="17" y="60"/>
      <point x="120" y="-15"/>
    </contour>
    <contour>
      <point x="279" y="419" type="line"/>
      <point x="496" y="419" type="line"/>
      <point x="496" y="434" type="line"/>
      <point x="279" y="434" type="line"/>
    </contour>
  </outline>
</glyph>
<glyph name="quotesingle" format="2">
  <advance width="267"/>
  <unicode hex="0027"/>
  <outline>
    <contour>
      <point x="92" y="546" type="line"/>
      <point x="143" y="559"/>
      <point x="171" y="610"/>
      <point x="169" y="677" type="curve" smooth="yes"/>
      <point x="168" y="705"/>
      <point x="153" y="715"/>
      <point x="136" y="715" type="curve" smooth="yes"/>
      <point x="117" y="715"/>
      <point x="101" y="701"/>
      <point x="101" y="682" type="curve" smooth="yes"/>
      <point x="101" y="662"/>
      <point x="117" y="649"/>
      <point x="134" y="649" type="curve" smooth="yes"/>
      <point x="138" y="649"/>
      <point x="141" y="650"/>
      <point x="145" y="651" type="curve"/>
      <point x="148" y="611"/>
      <point x="125" y="571"/>
      <point x="86" y="560" type="curve"/>
    </contour>
  </outline>
</glyph>
<glyph name="parenleft" format="2">
  <advance width="330"/>
  <unicode hex="0028"/>
  <outline>
    <contour>
      <point x="265" y="-97" type="curve"/>
      <point x="266" y="-83" type="line"/>
      <point x="142" y="16"/>
      <point x="71" y="166"/>
      <point x="72" y="330" type="curve" smooth="yes"/>
      <point x="73" y="495"/>
      <point x="143" y="646"/>
      <point x="267" y="744" type="curve"/>
      <point x="266" y="758" type="line"/>
      <point x="125" y="660"/>
      <point x="41" y="505"/>
      <point x="40" y="330" type="curve" smooth="yes"/>
      <point x="39" y="155"/>
      <point x="126" y="2"/>
    </contour>
  </outline>
</glyph>
<glyph name="parenright" format="2">
  <advance width="327"/>
  <unicode hex="0029"/>
  <outline>
    <contour>
      <point x="63" y="-97" type="line"/>
      <point x="202" y="2"/>
      <point x="288" y="155"/>
      <point x="287" y="330" type="curve" smooth="yes"/>
      <point x="286" y="505"/>
      <point x="202" y="660"/>
      <point x="61" y="758" type="curve"/>
      <point x="60" y="744" type="line"/>
      <point x="184" y="646"/>
      <point x="254" y="495"/>
      <point x="255" y="330" type="curve" smooth="yes"/>
      <point x="256" y="166"/>
      <point x="184" y="16"/>
      <point x="60" y="-83" type="curve"/>
    </contour>
  </outline>
</glyph>
<glyph name="asterisk" format="2">
  <advance width="532"/>
  <unicode hex="002A"/>
  <outline>
    <contour>
      <point x="446" y="592" type="line"/>
      <point x="431" y="624" type="line"/>
      <point x="269" y="539" type="line"/>
      <point x="278" y="715" type="line"/>
      <point x="242" y="715" type="line"/>
      <point x="254" y="537" type="line"/>
      <point x="89" y="624" type="line"/>
      <point x="74" y="592" type="line"/>
      <point x="241" y="527" type="line"/>
      <point x="74" y="465" type="line"/>
      <point x="89" y="432" type="line"/>
      <point x="255" y="516" type="line"/>
      <point x="242" y="324" type="line"/>
      <point x="278" y="324" type="line"/>
      <point x="268" y="515" type="line"/>
      <point x="431" y="432" type="line"/>
      <point x="446" y="465" type="line"/>
      <point x="279" y="527" type="line"/>
    </contour>
  </outline>
</glyph>
<glyph name="plus" format="2">
  <advance width="653"/>
  <unicode hex="002B"/>
  <outline>
    <contour>
      <point x="90" y="266" type="line"/>
      <point x="90" y="246" type="line"/>
      <point x="563" y="246" type="line"/>
      <point x="563" y="266" type="line"/>
    </contour>
    <contour>
      <point x="319" y="10" type="line"/>
      <point x="334" y="10" type="line"/>
      <point x="334" y="492" type="line"/>
      <point x="319" y="492" type="line"/>
    </contour>
  </outline>
</glyph>
<glyph name="comma" format="2">
  <advance width="133"/>
  <unicode hex="002C"/>
  <outline>
    <contour>
      <point x="14" y="-154" type="line"/>
      <point x="102" y="-119"/>
      <point x="118" y="-46"/>
      <point x="116" y="13" type="curve" smooth="yes"/>
      <point x="115" y="41"/>
      <point x="97" y="51"/>
      <point x="80" y="51" type="curve" smooth="yes"/>
      <point x="61" y="51"/>
      <point x="45" y="37"/>
      <point x="45" y="18" type="curve" smooth="yes"/>
      <point x="45" y="-2"/>
      <point x="61" y="-15"/>
      <point x="78" y="-15" type="curve" smooth="yes"/>
      <point x="82" y="-15"/>
      <point x="85" y="-14"/>
      <point x="89" y="-13" type="curve"/>
      <point x="92" y="-53"/>
      <point x="80" y="-112"/>
      <point x="10" y="-144" type="curve"/>
    </contour>
  </outline>
</glyph>
<glyph name="hyphen" format="2">
  <advance width="412"/>
  <unicode hex="002D"/>
  <outline>
    <contour>
      <point x="50" y="266" type="line"/>
      <point x="50" y="246" type="line"/>
      <point x="362" y="246" type="line"/>
      <point x="362" y="266" type="line"/>
    </contour>
  </outline>
</glyph>
<glyph name="period" format="2">
  <advance width="216"/>
  <unicode hex="002E"/>
  <outline>
    <contour>
      <point x="107" y="-15" type="curve" smooth="yes"/>
      <point x="124" y="-15"/>
      <point x="140" y="-2"/>
      <point x="140" y="18" type="curve" smooth="yes"/>
      <point x="140" y="38"/>
      <point x="124" y="51"/>
      <point x="107" y="51" type="curve" smooth="yes"/>
      <point x="90" y="51"/>
      <point x="74" y="37"/>
      <point x="74" y="18" type="curve" smooth="yes"/>
      <point x="74" y="-2"/>
      <point x="90" y="-15"/>
    </contour>
  </outline>
</glyph>
<glyph name="slash" format="2">
  <advance width="303"/>
  <unicode hex="002F"/>
  <outline>
    <contour>
      <point x="249" y="722" type="line"/>
      <point x="30" y="-10" type="line"/>
      <point x="54" y="-10" type="line"/>
      <point x="273" y="722" type="line"/>
    </contour>
  </outline>
</glyph>
<glyph name="zero" format="2">
  <advance width="579"/>
  <unicode hex="0030"/>
  <outline>
    <contour>
      <point x="290" y="-15" type="curve" smooth="yes"/>
      <point x="449" y="-15"/>
      <point x="509" y="146"/>
      <point x="509" y="348" type="curve" smooth="yes"/>
      <point x="509" y="551"/>
      <point x="448" y="715"/>
      <point x="290" y="715" type="curve" smooth="yes"/>
      <point x="131" y="715"/>
      <point x="70" y="550"/>
      <point x="70" y="346" type="curve" smooth="yes"/>
      <point x="70" y="145"/>
      <point x="129" y="-15"/>
    </contour>
    <contour>
      <point x="290" y="30" type="curve" smooth="yes"/>
      <point x="158" y="30"/>
      <point x="88" y="169"/>
      <point x="88" y="348" type="curve" smooth="yes"/>
      <point x="88" y="529"/>
      <point x="159" y="670"/>
      <point x="290" y="670" type="curve" smooth="yes"/>
      <point x="420" y="670"/>
      <point x="491" y="528"/>
      <point x="491" y="347" type="curve" smooth="yes"/>
      <point x="491" y="168"/>
      <point x="422" y="30"/>
    </contour>
  </outline>
</glyph>
<glyph name="one" format="2">
  <advance width="409"/>
  <unicode hex="0031"/>
  <outline>
    <contour>
      <point x="249" y="69" type="curve" smooth="yes"/>
      <point x="249" y="700" type="line"/>
      <point x="229" y="700" type="line"/>
      <point x="213" y="573"/>
      <point x="110" y="562"/>
      <point x="70" y="561" type="curve"/>
      <point x="70" y="545" type="line"/>
      <point x="107" y="543"/>
      <point x="180" y="562"/>
      <point x="204" y="585" type="curve"/>
      <point x="204" y="69" type="line" smooth="yes"/>
      <point x="204" y="21"/>
      <point x="169" y="17"/>
      <point x="104" y="10" type="curve"/>
      <point x="104" y="0" type="line"/>
      <point x="349" y="0" type="line"/>
      <point x="349" y="10" type="line"/>
      <point x="284" y="17"/>
      <point x="249" y="21"/>
    </contour>
  </outline>
</glyph>
<glyph name="two" format="2">
  <advance width="512"/>
  <unicode hex="0032"/>
  <outline>
    <contour>
      <point x="356" y="-15" type="curve" smooth="yes"/>
      <point x="431" y="-15"/>
      <point x="453" y="25"/>
      <point x="452" y="162" type="curve"/>
      <point x="437" y="162" type="line"/>
      <point x="437" y="91"/>
      <point x="432" y="30"/>
      <point x="363" y="30" type="curve" smooth="yes"/>
      <point x="287" y="30"/>
      <point x="208" y="138"/>
      <point x="130" y="129" type="curve"/>
      <point x="252" y="298"/>
      <point x="442" y="303"/>
      <point x="445" y="513" type="curve" smooth="yes"/>
      <point x="447" y="641"/>
      <point x="351" y="715"/>
      <point x="240" y="715" type="curve" smooth="yes"/>
      <point x="188" y="715"/>
      <point x="133" y="700"/>
      <point x="81" y="669" type="curve"/>
      <point x="60" y="503" type="line"/>
      <point x="70" y="503" type="line"/>
      <point x="111" y="674"/>
      <point x="167" y="700"/>
      <point x="245" y="700" type="curve" smooth="yes"/>
      <point x="337" y="700"/>
      <point x="399" y="637"/>
      <point x="399" y="505" type="curve" smooth="yes"/>
      <point x="399" y="312"/>
      <point x="240" y="326"/>
      <point x="126" y="151" type="curve" smooth="yes"/>
      <point x="95" y="104"/>
      <point x="66" y="40"/>
      <point x="60" y="0" type="curve"/>
      <point x="75" y="0" type="line"/>
      <point x="84" y="40"/>
      <point x="92" y="58"/>
      <point x="101" y="71" type="curve" smooth="yes"/>
      <point x="107" y="79"/>
      <point x="116" y="85"/>
      <point x="129" y="85" type="curve" smooth="yes"/>
      <point x="197" y="88"/>
      <point x="265" y="-15"/>
    </contour>
  </outline>
</glyph>
<glyph name="three" format="2">
  <advance width="532"/>
  <unicode hex="0033"/>
  <outline>
    <contour>
      <point x="246" y="-15" type="curve" smooth="yes"/>
      <point x="371" y="-15"/>
      <point x="472" y="51"/>
      <point x="472" y="187" type="curve" smooth="yes"/>
      <point x="472" y="274"/>
      <point x="417" y="360"/>
      <point x="299" y="378" type="curve"/>
      <point x="379" y="397"/>
      <point x="459" y="452"/>
      <point x="459" y="543" type="curve" smooth="yes"/>
      <point x="459" y="631"/>
      <point x="375" y="690"/>
      <point x="270" y="690" type="curve" smooth="yes"/>
      <point x="218" y="690"/>
      <point x="161" y="675"/>
      <point x="106" y="643" type="curve"/>
      <point x="83" y="477" type="line"/>
      <point x="93" y="477" type="line"/>
      <point x="132" y="628"/>
      <point x="179" y="675"/>
      <point x="266" y="675" type="curve" smooth="yes"/>
      <point x="350" y="675"/>
      <point x="414" y="630"/>
      <point x="414" y="543" type="curve" smooth="yes"/>
      <point x="414" y="449"/>
      <point x="352" y="388"/>
      <point x="249" y="388" type="curve" smooth="yes"/>
      <point x="194" y="388" type="line"/>
      <point x="184" y="373" type="line"/>
      <point x="244" y="373" type="line" smooth="yes"/>
      <point x="362" y="373"/>
      <point x="424" y="272"/>
      <point x="424" y="174" type="curve" smooth="yes"/>
      <point x="424" y="58"/>
      <point x="347" y="0"/>
      <point x="261" y="0" type="curve" smooth="yes"/>
      <point x="163" y="0"/>
      <point x="87" y="38"/>
      <point x="51" y="174" type="curve"/>
      <point x="40" y="174" type="line"/>
      <point x="66" y="26" type="line"/>
      <point x="126" y="-1"/>
      <point x="189" y="-15"/>
    </contour>
  </outline>
</glyph>
<glyph name="four" format="2">
  <advance width="559"/>
  <unicode hex="0034"/>
  <outline>
    <contour>
      <point x="409" y="69" type="curve" smooth="yes"/>
      <point x="409" y="275" type="line"/>
      <point x="496" y="275" type="line"/>
      <point x="496" y="367" type="line"/>
      <point x="487" y="367" type="line"/>
      <point x="487" y="335"/>
      <point x="472" y="315"/>
      <point x="439" y="315" type="curve"/>
      <point x="409" y="315" type="line"/>
      <point x="409" y="700" type="line"/>
      <point x="364" y="700" type="line"/>
      <point x="68" y="315" type="line"/>
      <point x="68" y="275" type="line"/>
      <point x="364" y="275" type="line"/>
      <point x="364" y="69" type="line" smooth="yes"/>
      <point x="364" y="21"/>
      <point x="329" y="17"/>
      <point x="264" y="10" type="curve"/>
      <point x="264" y="0" type="line"/>
      <point x="509" y="0" type="line"/>
      <point x="509" y="10" type="line"/>
      <point x="444" y="17"/>
      <point x="409" y="21"/>
    </contour>
    <contour>
      <point x="88" y="315" type="line"/>
      <point x="364" y="675" type="line"/>
      <point x="364" y="315" type="line"/>
    </contour>
  </outline>
</glyph>
<glyph name="five" format="2">
  <advance width="519"/>
  <unicode hex="0035"/>
  <outline>
    <contour>
      <point x="399" y="608" type="curve"/>
      <point x="409" y="608" type="line"/>
      <point x="409" y="700" type="line"/>
      <point x="65" y="700" type="line"/>
      <point x="65" y="660" type="line"/>
      <point x="334" y="660" type="line" smooth="yes"/>
      <point x="381" y="660"/>
      <point x="399" y="648"/>
    </contour>
    <contour>
      <point x="60" y="197" type="line"/>
      <point x="83" y="31" type="line"/>
      <point x="139" y="2"/>
      <point x="192" y="-15"/>
      <point x="241" y="-15" type="curve" smooth="yes"/>
      <point x="367" y="-15"/>
      <point x="459" y="80"/>
      <point x="459" y="238" type="curve" smooth="yes"/>
      <point x="459" y="418"/>
      <point x="356" y="516"/>
      <point x="240" y="516" type="curve" smooth="yes"/>
      <point x="178" y="516"/>
      <point x="103" y="484"/>
      <point x="80" y="416" type="curve"/>
      <point x="80" y="665" type="line"/>
      <point x="65" y="665" type="line"/>
      <point x="65" y="351" type="line"/>
      <point x="80" y="351" type="line"/>
      <point x="94" y="457"/>
      <point x="172" y="499"/>
      <point x="234" y="499" type="curve" smooth="yes"/>
      <point x="343" y="499"/>
      <point x="414" y="398"/>
      <point x="414" y="237" type="curve" smooth="yes"/>
      <point x="414" y="85"/>
      <point x="338" y="0"/>
      <point x="255" y="0" type="curve" smooth="yes"/>
      <point x="163" y="0"/>
      <point x="109" y="50"/>
      <point x="70" y="197" type="curve"/>
    </contour>
  </outline>
</glyph>
<glyph name="six" format="2">
  <advance width="559"/>
  <unicode hex="0036"/>
  <outline>
    <contour>
      <point x="499" y="244" type="curve" smooth="yes"/>
      <point x="501" y="410"/>
      <point x="417" y="514"/>
      <point x="288" y="515" type="curve" smooth="yes"/>
      <point x="221" y="516"/>
      <point x="150" y="494"/>
      <point x="111" y="426" type="curve"/>
      <point x="128" y="612"/>
      <point x="207" y="701"/>
      <point x="286" y="700" type="curve" smooth="yes"/>
      <point x="357" y="699"/>
      <point x="424" y="653"/>
      <point x="468" y="481" type="curve"/>
      <point x="478" y="481" type="line"/>
      <point x="452" y="648" type="line"/>
      <point x="433" y="680"/>
      <point x="356" y="714"/>
      <point x="293" y="715" type="curve" smooth="yes"/>
      <point x="166" y="716"/>
      <point x="63" y="616"/>
      <point x="60" y="322" type="curve" smooth="yes"/>
      <point x="58" y="109"/>
      <point x="128" y="-14"/>
      <point x="277" y="-15" type="curve" smooth="yes"/>
      <point x="417" y="-16"/>
      <point x="498" y="86"/>
    </contour>
    <contour>
      <point x="105" y="281" type="curve" smooth="yes"/>
      <point x="106" y="446"/>
      <point x="214" y="501"/>
      <point x="288" y="500" type="curve" smooth="yes"/>
      <point x="376" y="499"/>
      <point x="456" y="416"/>
      <point x="454" y="244" type="curve" smooth="yes"/>
      <point x="453" y="107"/>
      <point x="411" y="-1"/>
      <point x="283" y="0" type="curve" smooth="yes"/>
      <point x="139" y="1"/>
      <point x="104" y="181"/>
    </contour>
  </outline>
</glyph>
<glyph name="seven" format="2">
  <advance width="439"/>
  <unicode hex="0037"/>
  <outline>
    <contour>
      <point x="70" y="700" type="line"/>
      <point x="70" y="608" type="line"/>
      <point x="79" y="608" type="line"/>
      <point x="79" y="648"/>
      <point x="98" y="660"/>
      <point x="145" y="660" type="curve" smooth="yes"/>
      <point x="399" y="660" type="line"/>
      <point x="399" y="531"/>
      <point x="320" y="481"/>
      <point x="246" y="373" type="curve" smooth="yes"/>
      <point x="165" y="255"/>
      <point x="125" y="146"/>
      <point x="125" y="0" type="curve"/>
      <point x="175" y="0" type="line"/>
      <point x="175" y="173"/>
      <point x="209" y="251"/>
      <point x="248" y="322" type="curve" smooth="yes"/>
      <point x="331" y="471"/>
      <point x="414" y="493"/>
      <point x="414" y="660" type="curve"/>
      <point x="414" y="700" type="line"/>
    </contour>
  </outline>
</glyph>
<glyph name="eight" format="2">
  <advance width="562"/>
  <unicode hex="0038"/>
  <outline>
    <contour>
      <point x="84" y="350"/>
      <point x="463" y="425"/>
      <point x="463" y="186" type="curve" smooth="yes"/>
      <point x="463" y="58"/>
      <point x="371" y="0"/>
      <point x="287" y="0" type="curve" smooth="yes"/>
      <point x="188" y="0"/>
      <point x="105" y="63"/>
      <point x="105" y="186" type="curve" smooth="yes"/>
      <point x="105" y="325"/>
      <point x="199" y="387"/>
      <point x="257" y="397" type="curve"/>
      <point x="244" y="407" type="line"/>
      <point x="157" y="387"/>
      <point x="60" y="329"/>
      <point x="60" y="183" type="curve" smooth="yes"/>
      <point x="60" y="46"/>
      <point x="166" y="-15"/>
      <point x="281" y="-15" type="curve" smooth="yes"/>
      <point x="396" y="-15"/>
      <point x="502" y="51"/>
      <point x="502" y="203" type="curve" smooth="yes"/>
      <point x="502" y="458"/>
      <point x="122" y="383"/>
      <point x="122" y="566" type="curve" smooth="yes"/>
      <point x="122" y="657"/>
      <point x="198" y="702"/>
      <point x="275" y="702" type="curve" smooth="yes"/>
      <point x="353" y="702"/>
      <point x="427" y="656"/>
      <point x="427" y="561" type="curve" smooth="yes"/>
      <point x="427" y="471"/>
      <point x="356" y="419"/>
      <point x="307" y="410" type="curve"/>
      <point x="319" y="399" type="line"/>
      <point x="396" y="417"/>
      <point x="472" y="470"/>
      <point x="472" y="557" type="curve" smooth="yes"/>
      <point x="472" y="663"/>
      <point x="381" y="714"/>
      <point x="285" y="714" type="curve" smooth="yes"/>
      <point x="185" y="714"/>
      <point x="84" y="659"/>
      <point x="84" y="551" type="curve" smooth="yes"/>
    </contour>
  </outline>
</glyph>
<glyph name="less" format="2">
  <advance width="642"/>
  <unicode hex="003C"/>
  <outline>
    <contour>
      <point x="535" y="-10" type="line"/>
      <point x="535" y="14" type="line"/>
      <point x="133" y="267" type="line"/>
      <point x="535" y="521" type="line"/>
      <point x="535" y="545" type="line"/>
      <point x="106" y="274" type="line"/>
      <point x="106" y="260" type="line"/>
    </contour>
  </outline>
</glyph>
<glyph name="equal" format="2">
  <advance width="653"/>
  <unicode hex="003D"/>
  <outline>
    <contour>
      <point x="90" y="396" type="line"/>
      <point x="90" y="376" type="line"/>
      <point x="563" y="376" type="line"/>
      <point x="563" y="396" type="line"/>
    </contour>
    <contour>
      <point x="90" y="136" type="line"/>
      <point x="90" y="116" type="line"/>
      <point x="563" y="116" type="line"/>
      <point x="563" y="136" type="line"/>
    </contour>
  </outline>
</glyph>
<glyph name="greater" format="2">
  <advance width="640"/>
  <unicode hex="003E"/>
  <outline>
    <contour>
      <point x="105" y="545" type="line"/>
      <point x="105" y="521" type="line"/>
      <point x="507" y="267" type="line"/>
      <point x="105" y="14" type="line"/>
      <point x="105" y="-10" type="line"/>
      <point x="534" y="260" type="line"/>
      <point x="534" y="274" type="line"/>
    </contour>
  </outline>
</glyph>
<glyph name="question" format="2">
  <advance width="558"/>
  <unicode hex="003F"/>
  <outline>
    <contour>
      <point x="286" y="178" type="curve" smooth="yes"/>
      <point x="329" y="178"/>
      <point x="357" y="205"/>
      <point x="358" y="265" type="curve"/>
      <point x="343" y="265" type="line"/>
      <point x="342" y="212"/>
      <point x="318" y="193"/>
      <point x="293" y="193" type="curve" smooth="yes"/>
      <point x="266" y="193"/>
      <point x="239" y="219"/>
      <point x="239" y="264" type="curve" smooth="yes"/>
      <point x="239" y="378"/>
      <point x="492" y="384"/>
      <point x="492" y="557" type="curve" smooth="yes"/>
      <point x="492" y="658"/>
      <point x="401" y="714"/>
      <point x="288" y="714" type="curve" smooth="yes"/>
      <point x="219" y="714"/>
      <point x="144" y="696"/>
      <point x="92" y="637" type="curve"/>
      <point x="71" y="470" type="line"/>
      <point x="81" y="470" type="line"/>
      <point x="105" y="648"/>
      <point x="209" y="699"/>
      <point x="284" y="699" type="curve" smooth="yes"/>
      <point x="375" y="699"/>
      <point x="447" y="641"/>
      <point x="447" y="557" type="curve" smooth="yes"/>
      <point x="447" y="387"/>
      <point x="206" y="413"/>
      <point x="206" y="265" type="curve" smooth="yes"/>
      <point x="206" y="209"/>
      <point x="247" y="178"/>
    </contour>
    <contour>
      <point x="282" y="-9" type="curve" smooth="yes"/>
      <point x="299" y="-9"/>
      <point x="315" y="4"/>
      <point x="315" y="24" type="curve" smooth="yes"/>
      <point x="315" y="44"/>
      <point x="299" y="57"/>
      <point x="282" y="57" type="curve" smooth="yes"/>
      <point x="265" y="57"/>
      <point x="249" y="43"/>
      <point x="249" y="24" type="curve" smooth="yes"/>
      <point x="249" y="4"/>
      <point x="265" y="-9"/>
    </contour>
  </outline>
</glyph>
<glyph name="at" format="2">
  <advance width="698"/>
  <unicode hex="0040"/>
  <outline>
    <contour>
      <point x="350" y="-95" type="curve" smooth="yes"/>
      <point x="399" y="-95"/>
      <point x="458" y="-83"/>
      <point x="498" y="-58" type="curve"/>
      <point x="489" y="-46" type="line"/>
      <point x="453" y="-68"/>
      <point x="407" y="-80"/>
      <point x="350" y="-80" type="curve" smooth="yes"/>
      <point x="164" y="-80"/>
      <point x="59" y="41"/>
      <point x="59" y="240" type="curve" smooth="yes"/>
      <point x="59" y="466"/>
      <point x="148" y="610"/>
      <point x="350" y="610" type="curve" smooth="yes"/>
      <point x="550" y="610"/>
      <point x="640" y="466"/>
      <point x="640" y="240" type="curve" smooth="yes"/>
      <point x="640" y="61"/>
      <point x="589" y="0"/>
      <point x="557" y="0" type="curve" smooth="yes"/>
      <point x="531" y="0"/>
      <point x="526" y="26"/>
      <point x="526" y="78" type="curve" smooth="yes"/>
      <point x="526" y="342" type="line" smooth="yes"/>
      <point x="526" y="486"/>
      <point x="447" y="515"/>
      <point x="351" y="515" type="curve" smooth="yes"/>
      <point x="287" y="515"/>
      <point x="238" y="486"/>
      <point x="203" y="469" type="curve"/>
      <point x="177" y="313" type="line"/>
      <point x="187" y="313" type="line"/>
      <point x="242" y="465"/>
      <point x="271" y="500"/>
      <point x="367" y="500" type="curve" smooth="yes"/>
      <point x="395" y="500"/>
      <point x="475" y="485"/>
      <point x="485" y="392" type="curve"/>
      <point x="296" y="365"/>
      <point x="165" y="253"/>
      <point x="165" y="143" type="curve" smooth="yes"/>
      <point x="165" y="42"/>
      <point x="253" y="-14"/>
      <point x="342" y="-14" type="curve" smooth="yes"/>
      <point x="397" y="-14"/>
      <point x="453" y="8"/>
      <point x="487" y="55" type="curve"/>
      <point x="491" y="8"/>
      <point x="508" y="-15"/>
      <point x="553" y="-15" type="curve" smooth="yes"/>
      <point x="606" y="-15"/>
      <point x="675" y="55"/>
      <point x="675" y="240" type="curve" smooth="yes"/>
      <point x="675" y="446"/>
      <point x="600" y="625"/>
      <point x="350" y="625" type="curve" smooth="yes"/>
      <point x="101" y="625"/>
      <point x="24" y="446"/>
      <point x="24" y="240" type="curve" smooth="yes"/>
      <point x="24" y="55"/>
      <point x="111" y="-95"/>
    </contour>
    <contour>
      <point x="342" y="1" type="curve" smooth="yes"/>
      <point x="275" y="1"/>
      <point x="210" y="46"/>
      <point x="210" y="137" type="curve" smooth="yes"/>
      <point x="210" y="292"/>
      <point x="355" y="354"/>
      <point x="486" y="377" type="curve"/>
      <point x="486" y="362"/>
      <point x="486" y="346"/>
      <point x="486" y="331" type="curve"/>
      <point x="486" y="144" type="line" smooth="yes"/>
      <point x="486" y="51"/>
      <point x="413" y="1"/>
    </contour>
  </outline>
</glyph>
<glyph name="A" format="2">
  <advance width="662"/>
  <unicode hex="0041"/>
  <anchor x="331" y="0" name="bottom"/>
  <anchor x="596" y="10" name="ogonek"/>
  <anchor x="318" y="684" name="top"/>
  <outline>
    <contour>
      <point x="31" y="0" type="line"/>
      <point x="249" y="0" type="line"/>
      <point x="249" y="10" type="line"/>
      <point x="177" y="17"/>
      <point x="155" y="21"/>
      <point x="166" y="64" type="curve" smooth="yes"/>
      <point x="193" y="167" type="line"/>
      <point x="434" y="167" type="line"/>
      <point x="466" y="62" type="line" smooth="yes"/>
      <point x="479" y="21"/>
      <point x="446" y="17"/>
      <point x="384" y="10" type="curve"/>
      <point x="384" y="0" type="line"/>
      <point x="631" y="0" type="line"/>
      <point x="631" y="10" type="line"/>
      <point x="558" y="17"/>
      <point x="525" y="18"/>
      <point x="512" y="63" type="curve" smooth="yes"/>
      <point x="321" y="725" type="line"/>
      <point x="316" y="725" type="line"/>
      <point x="148" y="63" type="line" smooth="yes"/>
      <point x="137" y="21"/>
      <point x="93" y="17"/>
      <point x="31" y="10" type="curve"/>
    </contour>
    <contour>
      <point x="197" y="182" type="line"/>
      <point x="306" y="613" type="line"/>
      <point x="430" y="182" type="line"/>
    </contour>
  </outline>
</glyph>
<glyph name="B" format="2">
  <advance width="612"/>
  <unicode hex="0042"/>
  <anchor x="306" y="0" name="bottom"/>
  <anchor x="306" y="350" name="center"/>
  <anchor x="306" y="700" name="top"/>
  <outline>
    <contour>
      <point x="359" y="487" type="curve"/>
      <point x="440" y="498"/>
      <point x="501" y="545"/>
      <point x="501" y="592" type="curve" smooth="yes"/>
      <point x="501" y="646"/>
      <point x="445" y="700"/>
      <point x="336" y="700" type="curve" smooth="yes"/>
      <point x="44" y="700" type="line"/>
      <point x="44" y="690" type="line"/>
      <point x="120" y="683"/>
      <point x="144" y="679"/>
      <point x="144" y="631" type="curve" smooth="yes"/>
      <point x="144" y="69" type="line" smooth="yes"/>
      <point x="144" y="21"/>
      <point x="119" y="17"/>
      <point x="44" y="10" type="curve"/>
      <point x="44" y="0" type="line"/>
      <point x="294" y="0" type="line" smooth="yes"/>
      <point x="486" y="0"/>
      <point x="539" y="127"/>
      <point x="539" y="253" type="curve" smooth="yes"/>
      <point x="539" y="354"/>
      <point x="467" y="461"/>
    </contour>
    <contour>
      <point x="296" y="685" type="line" smooth="yes"/>
      <point x="410" y="685"/>
      <point x="454" y="636"/>
      <point x="454" y="589" type="curve" smooth="yes"/>
      <point x="454" y="544"/>
      <point x="410" y="500"/>
      <point x="306" y="500" type="curve" smooth="yes"/>
      <point x="189" y="500" type="line"/>
      <point x="189" y="685" type="line"/>
    </contour>
    <contour>
      <point x="271" y="15" type="curve" smooth="yes"/>
      <point x="189" y="15" type="line"/>
      <point x="189" y="485" type="line"/>
      <point x="271" y="485" type="line" smooth="yes"/>
      <point x="415" y="485"/>
      <point x="489" y="365"/>
      <point x="489" y="247" type="curve" smooth="yes"/>
      <point x="489" y="130"/>
      <point x="448" y="15"/>
    </contour>
  </outline>
</glyph>
<glyph name="C" format="2">
  <advance width="647"/>
  <unicode hex="0043"/>
  <anchor x="324" y="0" name="bottom"/>
  <anchor x="324" y="700" name="top"/>
  <outline>
    <contour>
      <point x="351" y="715" type="curve" smooth="yes"/>
      <point x="201" y="715"/>
      <point x="78" y="574"/>
      <point x="78" y="345" type="curve" smooth="yes"/>
      <point x="78" y="143"/>
      <point x="197" y="-15"/>
      <point x="349" y="-15" type="curve" smooth="yes"/>
      <point x="522" y="-15"/>
      <point x="565" y="121"/>
      <point x="576" y="179" type="curve"/>
      <point x="562" y="184" type="line"/>
      <point x="543" y="98"/>
      <point x="493" y="0"/>
      <point x="349" y="0" type="curve" smooth="yes"/>
      <point x="201" y="0"/>
      <point x="128" y="179"/>
      <point x="128" y="344" type="curve" smooth="yes"/>
      <point x="128" y="516"/>
      <point x="207" y="700"/>
      <point x="362" y="700" type="curve" smooth="yes"/>
      <point x="438" y="700"/>
      <point x="525" y="619"/>
      <point x="556" y="470" type="curve"/>
      <point x="566" y="470" type="line"/>
      <point x="545" y="637" type="line"/>
      <point x="514" y="679"/>
      <point x="451" y="715"/>
    </contour>
  </outline>
</glyph>
<glyph name="D" format="2">
  <advance width="712"/>
  <unicode hex="0044"/>
  <anchor x="356" y="0" name="bottom"/>
  <anchor x="356" y="350" name="center"/>
  <anchor x="356" y="700" name="top"/>
  <outline>
    <contour>
      <point x="311" y="700" type="curve" smooth="yes"/>
      <point x="44" y="700" type="line"/>
      <point x="44" y="690" type="line"/>
      <point x="120" y="683"/>
      <point x="144" y="679"/>
      <point x="144" y="631" type="curve" smooth="yes"/>
      <point x="144" y="69" type="line" smooth="yes"/>
      <point x="144" y="21"/>
      <point x="119" y="17"/>
      <point x="44" y="10" type="curve"/>
      <point x="44" y="0" type="line"/>
      <point x="311" y="0" type="line" smooth="yes"/>
      <point x="549" y="0"/>
      <point x="637" y="175"/>
      <point x="637" y="350" type="curve" smooth="yes"/>
      <point x="637" y="525"/>
      <point x="549" y="700"/>
    </contour>
    <contour>
      <point x="270" y="15" type="curve" smooth="yes"/>
      <point x="189" y="15" type="line"/>
      <point x="189" y="685" type="line"/>
      <point x="270" y="685" type="line" smooth="yes"/>
      <point x="499" y="685"/>
      <point x="587" y="525"/>
      <point x="587" y="346" type="curve" smooth="yes"/>
      <point x="587" y="170"/>
      <point x="503" y="15"/>
    </contour>
  </outline>
</glyph>
<glyph name="E" format="2">
  <advance width="601"/>
  <unicode hex="0045"/>
  <anchor x="301" y="0" name="bottom"/>
  <anchor x="541" y="10" name="ogonek"/>
  <anchor x="301" y="700" name="top"/>
  <anchor x="20" y="700" name="topleft"/>
  <outline>
    <contour>
      <point x="353" y="685" type="line" smooth="yes"/>
      <point x="466" y="685"/>
      <point x="489" y="635"/>
      <point x="496" y="485" type="curve"/>
      <point x="506" y="485" type="line"/>
      <point x="506" y="700" type="line"/>
      <point x="44" y="700" type="line"/>
      <point x="44" y="690" type="line"/>
      <point x="110" y="683"/>
      <point x="144" y="679"/>
      <point x="144" y="631" type="curve" smooth="yes"/>
      <point x="144" y="69" type="line" smooth="yes"/>
      <point x="144" y="21"/>
      <point x="109" y="17"/>
      <point x="44" y="10" type="curve"/>
      <point x="44" y="0" type="line"/>
      <point x="506" y="0" type="line"/>
      <point x="506" y="214" type="line"/>
      <point x="496" y="214" type="line"/>
      <point x="490" y="76"/>
      <point x="470" y="15"/>
      <point x="379" y="15" type="curve" smooth="yes"/>
      <point x="189" y="15" type="line"/>
      <point x="189" y="485" type="line"/>
      <point x="198" y="485" type="line" smooth="yes"/>
      <point x="339" y="485"/>
      <point x="364" y="478"/>
      <point x="433" y="307" type="curve"/>
      <point x="443" y="310" type="line"/>
      <point x="338" y="620" type="line"/>
      <point x="328" y="617" type="line"/>
      <point x="355" y="500"/>
      <point x="338" y="500"/>
      <point x="198" y="500" type="curve" smooth="yes"/>
      <point x="189" y="500" type="line"/>
      <point x="189" y="685" type="line"/>
    </contour>
  </outline>
</glyph>
<glyph name="F" format="2">
  <advance width="570"/>
  <unicode hex="0046"/>
  <anchor x="285" y="0" name="bottom"/>
  <anchor x="285" y="700" name="top"/>
  <outline>
    <contour>
      <point x="506" y="700" type="line"/>
      <point x="44" y="700" type="line"/>
      <point x="44" y="690" type="line"/>
      <point x="110" y="683"/>
      <point x="144" y="679"/>
      <point x="144" y="631" type="curve" smooth="yes"/>
      <point x="144" y="69" type="line" smooth="yes"/>
      <point x="144" y="21"/>
      <point x="109" y="17"/>
      <point x="44" y="10" type="curve"/>
      <point x="44" y="0" type="line"/>
      <point x="289" y="0" type="line"/>
      <point x="289" y="10" type="line"/>
      <point x="224" y="17"/>
      <point x="189" y="21"/>
      <point x="189" y="69" type="curve" smooth="yes"/>
      <point x="189" y="485" type="line"/>
      <point x="198" y="485" type="line" smooth="yes"/>
      <point x="339" y="485"/>
      <point x="364" y="478"/>
      <point x="433" y="307" type="curve"/>
      <point x="443" y="310" type="line"/>
      <point x="338" y="620" type="line"/>
      <point x="328" y="617" type="line"/>
      <point x="355" y="500"/>
      <point x="338" y="500"/>
      <point x="198" y="500" type="curve" smooth="yes"/>
      <point x="189" y="500" type="line"/>
      <point x="189" y="685" type="line"/>
      <point x="353" y="685" type="line" smooth="yes"/>
      <point x="466" y="685"/>
      <point x="489" y="635"/>
      <point x="496" y="485" type="curve"/>
      <point x="506" y="485" type="line"/>
    </contour>
  </outline>
</glyph>
<glyph name="G" format="2">
  <advance width="736"/>
  <unicode hex="0047"/>
  <anchor x="368" y="0" name="bottom"/>
  <anchor x="368" y="700" name="top"/>
  <outline>
    <contour>
      <point x="448" y="443" type="line"/>
      <point x="448" y="433" type="line"/>
      <point x="514" y="426"/>
      <point x="548" y="422"/>
      <point x="548" y="374" type="curve" smooth="yes"/>
      <point x="548" y="92" type="line"/>
      <point x="521" y="45"/>
      <point x="465" y="0"/>
      <point x="367" y="0" type="curve" smooth="yes"/>
      <point x="203" y="0"/>
      <point x="128" y="179"/>
      <point x="128" y="344" type="curve" smooth="yes"/>
      <point x="128" y="516"/>
      <point x="207" y="700"/>
      <point x="367" y="700" type="curve" smooth="yes"/>
      <point x="452" y="700"/>
      <point x="535" y="619"/>
      <point x="566" y="475" type="curve"/>
      <point x="576" y="475" type="line"/>
      <point x="555" y="637" type="line"/>
      <point x="524" y="677"/>
      <point x="461" y="715"/>
      <point x="360" y="715" type="curve" smooth="yes"/>
      <point x="201" y="715"/>
      <point x="78" y="574"/>
      <point x="78" y="345" type="curve" smooth="yes"/>
      <point x="78" y="143"/>
      <point x="192" y="-15"/>
      <point x="359" y="-15" type="curve" smooth="yes"/>
      <point x="464" y="-15"/>
      <point x="519" y="27"/>
      <point x="548" y="66" type="curve"/>
      <point x="593" y="-15" type="line"/>
      <point x="593" y="374" type="line" smooth="yes"/>
      <point x="593" y="422"/>
      <point x="617" y="426"/>
      <point x="693" y="433" type="curve"/>
      <point x="693" y="443" type="line"/>
    </contour>
  </outline>
</glyph>
<glyph name="H" format="2">
  <advance width="712"/>
  <unicode hex="0048"/>
  <anchor x="356" y="0" name="bottom"/>
  <anchor x="356" y="350" name="center"/>
  <anchor x="356" y="700" name="top"/>
  <anchor x="20" y="700" name="topleft"/>
  <outline>
    <contour>
      <point x="668" y="689" type="curve"/>
      <point x="668" y="699" type="line"/>
      <point x="423" y="699" type="line"/>
      <point x="423" y="689" type="line"/>
      <point x="489" y="682"/>
      <point x="523" y="678"/>
      <point x="523" y="630" type="curve" smooth="yes"/>
      <point x="523" y="500" type="line"/>
      <point x="189" y="500" type="line"/>
      <point x="189" y="630" type="line" smooth="yes"/>
      <point x="189" y="678"/>
      <point x="223" y="682"/>
      <point x="289" y="689" type="curve"/>
      <point x="289" y="699" type="line"/>
      <point x="44" y="699" type="line"/>
      <point x="44" y="689" type="line"/>
      <point x="120" y="682"/>
      <point x="144" y="678"/>
      <point x="144" y="630" type="curve" smooth="yes"/>
      <point x="144" y="68" type="line" smooth="yes"/>
      <point x="144" y="20"/>
      <point x="119" y="16"/>
      <point x="44" y="9" type="curve"/>
      <point x="44" y="-1" type="line"/>
      <point x="289" y="-1" type="line"/>
      <point x="289" y="9" type="line"/>
      <point x="224" y="16"/>
      <point x="189" y="20"/>
      <point x="189" y="68" type="curve" smooth="yes"/>
      <point x="189" y="485" type="line"/>
      <point x="523" y="485" type="line"/>
      <point x="523" y="68" type="line" smooth="yes"/>
      <point x="523" y="20"/>
      <point x="488" y="16"/>
      <point x="423" y="9" type="curve"/>
      <point x="423" y="-1" type="line"/>
      <point x="668" y="-1" type="line"/>
      <point x="668" y="9" type="line"/>
      <point x="593" y="16"/>
      <point x="568" y="20"/>
      <point x="568" y="68" type="curve" smooth="yes"/>
      <point x="568" y="630" type="line" smooth="yes"/>
      <point x="568" y="678"/>
      <point x="592" y="682"/>
    </contour>
  </outline>
</glyph>
<glyph name="I" format="2">
  <advance width="333"/>
  <unicode hex="0049"/>
  <anchor x="167" y="0" name="bottom"/>
  <anchor x="300" y="10" name="ogonek"/>
  <anchor x="167" y="700" name="top"/>
  <anchor x="20" y="700" name="topleft"/>
  <outline>
    <contour>
      <point x="44" y="0" type="line"/>
      <point x="289" y="0" type="line"/>
      <point x="289" y="10" type="line"/>
      <point x="224" y="17"/>
      <point x="189" y="21"/>
      <point x="189" y="69" type="curve" smooth="yes"/>
      <point x="189" y="631" type="line" smooth="yes"/>
      <point x="189" y="679"/>
      <point x="223" y="683"/>
      <point x="289" y="690" type="curve"/>
      <point x="289" y="700" type="line"/>
      <point x="44" y="700" type="line"/>
      <point x="44" y="690" type="line"/>
      <point x="120" y="683"/>
      <point x="144" y="679"/>
      <point x="144" y="631" type="curve" smooth="yes"/>
      <point x="144" y="69" type="line" smooth="yes"/>
      <point x="144" y="21"/>
      <point x="119" y="17"/>
      <point x="44" y="10" type="curve"/>
    </contour>
  </outline>
</glyph>
<glyph name="J" format="2">
  <advance width="322"/>
  <unicode hex="004A"/>
  <anchor x="161" y="0" name="bottom"/>
  <anchor x="161" y="700" name="top"/>
  <outline>
    <contour>
      <point x="284" y="700" type="line"/>
      <point x="39" y="700" type="line"/>
      <point x="39" y="690" type="line"/>
      <point x="115" y="683"/>
      <point x="139" y="679"/>
      <point x="139" y="631" type="curve" smooth="yes"/>
      <point x="139" y="4" type="line" smooth="yes"/>
      <point x="139" y="-120"/>
      <point x="105" y="-190"/>
      <point x="13" y="-190" type="curve" smooth="yes"/>
      <point x="-42" y="-190"/>
      <point x="-102" y="-148"/>
      <point x="-128" y="-108" type="curve"/>
      <point x="-140" y="-117" type="line"/>
      <point x="-113" y="-171"/>
      <point x="-43" y="-215"/>
      <point x="35" y="-215" type="curve" smooth="yes"/>
      <point x="135" y="-215"/>
      <point x="184" y="-142"/>
      <point x="184" y="4" type="curve" smooth="yes"/>
      <point x="184" y="631" type="line" smooth="yes"/>
      <point x="184" y="679"/>
      <point x="218" y="683"/>
      <point x="284" y="690" type="curve"/>
    </contour>
  </outline>
</glyph>
<glyph name="K" format="2">
  <advance width="736"/>
  <unicode hex="004B"/>
  <anchor x="368" y="0" name="bottom"/>
  <anchor x="368" y="700" name="top"/>
  <outline>
    <contour>
      <point x="570" y="59" type="curve" smooth="yes"/>
      <point x="340" y="538" type="line"/>
      <point x="451" y="639" type="line" smooth="yes"/>
      <point x="501" y="681"/>
      <point x="546" y="683"/>
      <point x="618" y="690" type="curve"/>
      <point x="618" y="700" type="line"/>
      <point x="395" y="700" type="line"/>
      <point x="395" y="690" type="line"/>
      <point x="458" y="683"/>
      <point x="469" y="679"/>
      <point x="423" y="635" type="curve" smooth="yes"/>
      <point x="189" y="423" type="line"/>
      <point x="189" y="630" type="line" smooth="yes"/>
      <point x="189" y="678"/>
      <point x="223" y="682"/>
      <point x="289" y="689" type="curve"/>
      <point x="289" y="699" type="line"/>
      <point x="44" y="699" type="line"/>
      <point x="44" y="689" type="line"/>
      <point x="120" y="682"/>
      <point x="144" y="678"/>
      <point x="144" y="630" type="curve" smooth="yes"/>
      <point x="144" y="68" type="line" smooth="yes"/>
      <point x="144" y="20"/>
      <point x="119" y="16"/>
      <point x="44" y="9" type="curve"/>
      <point x="44" y="-1" type="line"/>
      <point x="289" y="-1" type="line"/>
      <point x="289" y="9" type="line"/>
      <point x="224" y="16"/>
      <point x="189" y="20"/>
      <point x="189" y="68" type="curve" smooth="yes"/>
      <point x="189" y="401" type="line"/>
      <point x="304" y="506" type="line"/>
      <point x="519" y="62" type="line" smooth="yes"/>
      <point x="539" y="21"/>
      <point x="511" y="17"/>
      <point x="449" y="10" type="curve"/>
      <point x="449" y="0" type="line"/>
      <point x="698" y="0" type="line"/>
      <point x="698" y="10" type="line"/>
      <point x="629" y="16"/>
      <point x="588" y="21"/>
    </contour>
  </outline>
</glyph>
<glyph name="L" format="2">
  <advance width="559"/>
  <unicode hex="004C"/>
  <anchor x="280" y="0" name="bottom"/>
  <anchor x="280" y="350" name="center"/>
  <anchor x="213" y="700" name="top"/>
  <anchor x="339" y="800" name="topright"/>
  <outline>
    <contour>
      <point x="496" y="214" type="line"/>
      <point x="490" y="76"/>
      <point x="470" y="23"/>
      <point x="379" y="15" type="curve"/>
      <point x="189" y="15" type="line"/>
      <point x="189" y="631" type="line" smooth="yes"/>
      <point x="189" y="679"/>
      <point x="223" y="683"/>
      <point x="289" y="690" type="curve"/>
      <point x="289" y="700" type="line"/>
      <point x="44" y="700" type="line"/>
      <point x="44" y="690" type="line"/>
      <point x="110" y="683"/>
      <point x="144" y="679"/>
      <point x="144" y="631" type="curve" smooth="yes"/>
      <point x="144" y="69" type="line" smooth="yes"/>
      <point x="144" y="21"/>
      <point x="109" y="17"/>
      <point x="44" y="10" type="curve"/>
      <point x="44" y="0" type="line"/>
      <point x="506" y="0" type="line"/>
      <point x="506" y="214" type="line"/>
    </contour>
  </outline>
</glyph>
<glyph name="M" format="2">
  <advance width="728"/>
  <unicode hex="004D"/>
  <guideline x="351" y="257" angle="90"/>
  <anchor x="364" y="0" name="bottom"/>
  <anchor x="364" y="700" name="top"/>
  <outline>
    <contour>
      <point x="684" y="690" type="curve"/>
      <point x="684" y="700" type="line"/>
      <point x="539" y="700" type="line"/>
      <point x="366" y="305" type="line"/>
      <point x="173" y="700" type="line"/>
      <point x="44" y="700" type="line"/>
      <point x="44" y="690" type="line"/>
      <point x="120" y="683"/>
      <point x="144" y="679"/>
      <point x="144" y="631" type="curve" smooth="yes"/>
      <point x="144" y="69" type="line"/>
      <point x="142" y="21"/>
      <point x="118" y="17"/>
      <point x="44" y="10" type="curve"/>
      <point x="44" y="0" type="line"/>
      <point x="259" y="0" type="line"/>
      <point x="259" y="10" type="line"/>
      <point x="194" y="17"/>
      <point x="159" y="21"/>
      <point x="159" y="69" type="curve" smooth="yes"/>
      <point x="159" y="630" type="line"/>
      <point x="351" y="234" type="line"/>
      <point x="539" y="661" type="line"/>
      <point x="539" y="69" type="line" smooth="yes"/>
      <point x="539" y="21"/>
      <point x="504" y="17"/>
      <point x="439" y="10" type="curve"/>
      <point x="439" y="0" type="line"/>
      <point x="684" y="0" type="line"/>
      <point x="684" y="10" type="line"/>
      <point x="609" y="17"/>
      <point x="584" y="21"/>
      <point x="584" y="69" type="curve" smooth="yes"/>
      <point x="584" y="631" type="line" smooth="yes"/>
      <point x="584" y="679"/>
      <point x="608" y="683"/>
    </contour>
  </outline>
</glyph>
<glyph name="N" format="2">
  <advance width="638"/>
  <unicode hex="004E"/>
  <anchor x="319" y="0" name="bottom"/>
  <anchor x="319" y="700" name="top"/>
  <outline>
    <contour>
      <point x="385" y="700" type="line"/>
      <point x="385" y="690" type="line"/>
      <point x="451" y="683"/>
      <point x="485" y="679"/>
      <point x="485" y="631" type="curve" smooth="yes"/>
      <point x="485" y="100" type="line"/>
      <point x="169" y="700" type="line"/>
      <point x="44" y="700" type="line"/>
      <point x="44" y="690" type="line"/>
      <point x="120" y="683"/>
      <point x="144" y="679"/>
      <point x="144" y="631" type="curve" smooth="yes"/>
      <point x="144" y="68" type="line" smooth="yes"/>
      <point x="144" y="20"/>
      <point x="119" y="16"/>
      <point x="44" y="9" type="curve"/>
      <point x="44" y="-1" type="line"/>
      <point x="259" y="-1" type="line"/>
      <point x="259" y="9" type="line"/>
      <point x="194" y="16"/>
      <point x="159" y="20"/>
      <point x="159" y="68" type="curve" smooth="yes"/>
      <point x="159" y="623" type="line"/>
      <point x="495" y="-15" type="line"/>
      <point x="500" y="-15" type="line"/>
      <point x="500" y="631" type="line" smooth="yes"/>
      <point x="500" y="679"/>
      <point x="524" y="683"/>
      <point x="600" y="690" type="curve"/>
      <point x="600" y="700" type="line"/>
    </contour>
  </outline>
</glyph>
<glyph name="O" format="2">
  <advance width="699"/>
  <unicode hex="004F"/>
  <anchor x="350" y="0" name="bottom"/>
  <anchor x="350" y="350" name="center"/>
  <anchor x="629" y="10" name="ogonek"/>
  <anchor x="350" y="700" name="top"/>
  <anchor x="20" y="700" name="topleft"/>
  <anchor x="679" y="700" name="topright"/>
  <outline>
    <contour>
      <point x="350" y="-15" type="curve" smooth="yes"/>
      <point x="511" y="-15"/>
      <point x="621" y="143"/>
      <point x="621" y="345" type="curve" smooth="yes"/>
      <point x="621" y="546"/>
      <point x="511" y="715"/>
      <point x="350" y="715" type="curve" smooth="yes"/>
      <point x="189" y="715"/>
      <point x="78" y="546"/>
      <point x="78" y="345" type="curve" smooth="yes"/>
      <point x="78" y="143"/>
      <point x="189" y="-15"/>
    </contour>
    <contour>
      <point x="350" y="0" type="curve" smooth="yes"/>
      <point x="239" y="0"/>
      <point x="128" y="115"/>
      <point x="128" y="345" type="curve" smooth="yes"/>
      <point x="128" y="582"/>
      <point x="239" y="700"/>
      <point x="349" y="700" type="curve" smooth="yes"/>
      <point x="460" y="700"/>
      <point x="571" y="582"/>
      <point x="571" y="345" type="curve" smooth="yes"/>
      <point x="571" y="115"/>
      <point x="460" y="0"/>
    </contour>
  </outline>
</glyph>
<glyph name="P" format="2">
  <advance width="551"/>
  <unicode hex="0050"/>
  <anchor x="276" y="0" name="bottom"/>
  <anchor x="276" y="700" name="top"/>
  <outline>
    <contour>
      <point x="336" y="700" type="curve" smooth="yes"/>
      <point x="44" y="700" type="line"/>
      <point x="44" y="690" type="line"/>
      <point x="120" y="683"/>
      <point x="144" y="679"/>
      <point x="144" y="631" type="curve" smooth="yes"/>
      <point x="144" y="69" type="line" smooth="yes"/>
      <point x="144" y="21"/>
      <point x="119" y="17"/>
      <point x="44" y="10" type="curve"/>
      <point x="44" y="0" type="line"/>
      <point x="289" y="0" type="line"/>
      <point x="289" y="10" type="line"/>
      <point x="224" y="17"/>
      <point x="189" y="21"/>
      <point x="189" y="69" type="curve" smooth="yes"/>
      <point x="189" y="485" type="line"/>
      <point x="336" y="485" type="line" smooth="yes"/>
      <point x="446" y="485"/>
      <point x="501" y="538"/>
      <point x="501" y="592" type="curve" smooth="yes"/>
      <point x="501" y="646"/>
      <point x="445" y="700"/>
    </contour>
    <contour>
      <point x="296" y="685" type="line" smooth="yes"/>
      <point x="410" y="685"/>
      <point x="454" y="636"/>
      <point x="454" y="589" type="curve" smooth="yes"/>
      <point x="454" y="544"/>
      <point x="410" y="500"/>
      <point x="306" y="500" type="curve" smooth="yes"/>
      <point x="189" y="500" type="line"/>
      <point x="189" y="685" type="line"/>
    </contour>
  </outline>
</glyph>
<glyph name="Q" format="2">
  <advance width="699"/>
  <unicode hex="0051"/>
  <anchor x="350" y="0" name="bottom"/>
  <anchor x="350" y="700" name="top"/>
  <outline>
    <contour>
      <point x="350" y="715" type="curve" smooth="yes"/>
      <point x="189" y="715"/>
      <point x="78" y="546"/>
      <point x="78" y="345" type="curve" smooth="yes"/>
      <point x="78" y="204"/>
      <point x="132" y="85"/>
      <point x="219" y="25" type="curve"/>
      <point x="165" y="20"/>
      <point x="133" y="-6"/>
      <point x="133" y="-65" type="curve"/>
      <point x="143" y="-65" type="line"/>
      <point x="144" y="-37"/>
      <point x="157" y="3"/>
      <point x="193" y="3" type="curve" smooth="yes"/>
      <point x="292" y="3"/>
      <point x="360" y="-113"/>
      <point x="511" y="-113" type="curve" smooth="yes"/>
      <point x="576" y="-113"/>
      <point x="603" y="-77"/>
      <point x="608" y="-14" type="curve"/>
      <point x="598" y="-14" type="line"/>
      <point x="592" y="-57"/>
      <point x="578" y="-96"/>
      <point x="524" y="-96" type="curve" smooth="yes"/>
      <point x="462" y="-96"/>
      <point x="407" y="-44"/>
      <point x="342" y="-15" type="curve"/>
      <point x="509" y="-15"/>
      <point x="621" y="135"/>
      <point x="621" y="345" type="curve" smooth="yes"/>
      <point x="621" y="546"/>
      <point x="511" y="715"/>
    </contour>
    <contour>
      <point x="128" y="345" type="curve" smooth="yes"/>
      <point x="128" y="582"/>
      <point x="239" y="700"/>
      <point x="349" y="700" type="curve" smooth="yes"/>
      <point x="460" y="700"/>
      <point x="571" y="582"/>
      <point x="571" y="345" type="curve" smooth="yes"/>
      <point x="571" y="115"/>
      <point x="460" y="0"/>
      <point x="350" y="0" type="curve" smooth="yes"/>
      <point x="195" y="0"/>
      <point x="128" y="181"/>
    </contour>
  </outline>
</glyph>
<glyph name="R" format="2">
  <advance width="623"/>
  <unicode hex="0052"/>
  <anchor x="312" y="0" name="bottom"/>
  <anchor x="312" y="700" name="top"/>
  <outline>
    <contour>
      <point x="500" y="78" type="curve" smooth="yes"/>
      <point x="444" y="227"/>
      <point x="537" y="452"/>
      <point x="383" y="489" type="curve"/>
      <point x="462" y="501"/>
      <point x="501" y="546"/>
      <point x="501" y="592" type="curve" smooth="yes"/>
      <point x="501" y="646"/>
      <point x="445" y="700"/>
      <point x="336" y="700" type="curve" smooth="yes"/>
      <point x="44" y="700" type="line"/>
      <point x="44" y="690" type="line"/>
      <point x="120" y="683"/>
      <point x="144" y="679"/>
      <point x="144" y="631" type="curve" smooth="yes"/>
      <point x="144" y="69" type="line" smooth="yes"/>
      <point x="144" y="21"/>
      <point x="119" y="17"/>
      <point x="44" y="10" type="curve"/>
      <point x="44" y="0" type="line"/>
      <point x="289" y="0" type="line"/>
      <point x="289" y="10" type="line"/>
      <point x="224" y="17"/>
      <point x="189" y="21"/>
      <point x="189" y="69" type="curve" smooth="yes"/>
      <point x="189" y="485" type="line"/>
      <point x="318" y="485" type="line" smooth="yes"/>
      <point x="497" y="485"/>
      <point x="396" y="214"/>
      <point x="458" y="68" type="curve" smooth="yes"/>
      <point x="487" y="0"/>
      <point x="516" y="-1"/>
      <point x="572" y="-3" type="curve" smooth="yes"/>
      <point x="585" y="-3" type="line"/>
      <point x="585" y="7" type="line"/>
      <point x="532" y="7"/>
      <point x="516" y="36"/>
    </contour>
    <contour>
      <point x="306" y="500" type="curve" smooth="yes"/>
      <point x="189" y="500" type="line"/>
      <point x="189" y="685" type="line"/>
      <point x="296" y="685" type="line" smooth="yes"/>
      <point x="410" y="685"/>
      <point x="454" y="636"/>
      <point x="454" y="589" type="curve" smooth="yes"/>
      <point x="454" y="544"/>
      <point x="410" y="500"/>
    </contour>
  </outline>
</glyph>
<glyph name="S" format="2">
  <advance width="492"/>
  <unicode hex="0053"/>
  <anchor x="246" y="0" name="bottom"/>
  <anchor x="246" y="700" name="top"/>
  <outline>
    <contour>
      <point x="266" y="-15" type="curve" smooth="yes"/>
      <point x="342" y="-15"/>
      <point x="414" y="21"/>
      <point x="414" y="123" type="curve" smooth="yes"/>
      <point x="414" y="275"/>
      <point x="133" y="441"/>
      <point x="133" y="597" type="curve" smooth="yes"/>
      <point x="133" y="666"/>
      <point x="187" y="699"/>
      <point x="236" y="700" type="curve" smooth="yes"/>
      <point x="316" y="702"/>
      <point x="356" y="652"/>
      <point x="395" y="515" type="curve"/>
      <point x="405" y="515" type="line"/>
      <point x="386" y="671" type="line"/>
      <point x="347" y="698"/>
      <point x="313" y="715"/>
      <point x="245" y="715" type="curve" smooth="yes"/>
      <point x="150" y="715"/>
      <point x="95" y="656"/>
      <point x="95" y="585" type="curve" smooth="yes"/>
      <point x="95" y="420"/>
      <point x="376" y="261"/>
      <point x="376" y="111" type="curve" smooth="yes"/>
      <point x="376" y="34"/>
      <point x="323" y="0"/>
      <point x="266" y="0" type="curve" smooth="yes"/>
      <point x="184" y="0"/>
      <point x="129" y="46"/>
      <point x="84" y="209" type="curve"/>
      <point x="74" y="209" type="line"/>
      <point x="97" y="36" type="line"/>
      <point x="131" y="-1"/>
      <point x="197" y="-15"/>
    </contour>
  </outline>
</glyph>
<glyph name="T" format="2">
  <advance width="585"/>
  <unicode hex="0054"/>
  <anchor x="293" y="0" name="bottom"/>
  <anchor x="293" y="350" name="center"/>
  <anchor x="293" y="700" name="top"/>
  <outline>
    <contour>
      <point x="522" y="700" type="line"/>
      <point x="63" y="700" type="line"/>
      <point x="63" y="485" type="line"/>
      <point x="73" y="485" type="line"/>
      <point x="80" y="635"/>
      <point x="103" y="685"/>
      <point x="216" y="685" type="curve" smooth="yes"/>
      <point x="270" y="685" type="line"/>
      <point x="270" y="69" type="line" smooth="yes"/>
      <point x="270" y="21"/>
      <point x="235" y="17"/>
      <point x="170" y="10" type="curve"/>
      <point x="170" y="0" type="line"/>
      <point x="415" y="0" type="line"/>
      <point x="415" y="10" type="line"/>
      <point x="350" y="17"/>
      <point x="315" y="21"/>
      <point x="315" y="69" type="curve" smooth="yes"/>
      <point x="315" y="685" type="line"/>
      <point x="369" y="685" type="line" smooth="yes"/>
      <point x="482" y="685"/>
      <point x="505" y="635"/>
      <point x="512" y="485" type="curve"/>
      <point x="522" y="485" type="line"/>
    </contour>
  </outline>
</glyph>
<glyph name="U" format="2">
  <advance width="706"/>
  <unicode hex="0055"/>
  <anchor x="353" y="0" name="bottom"/>
  <anchor x="635" y="10" name="ogonek"/>
  <anchor x="353" y="700" name="top"/>
  <anchor x="686" y="700" name="topright"/>
  <outline>
    <contour>
      <point x="662" y="690" type="curve"/>
      <point x="662" y="700" type="line"/>
      <point x="417" y="700" type="line"/>
      <point x="417" y="690" type="line"/>
      <point x="483" y="683"/>
      <point x="517" y="679"/>
      <point x="517" y="631" type="curve" smooth="yes"/>
      <point x="517" y="145" type="line" smooth="yes"/>
      <point x="517" y="63"/>
      <point x="436" y="0"/>
      <point x="352" y="0" type="curve" smooth="yes"/>
      <point x="259" y="0"/>
      <point x="183" y="45"/>
      <point x="183" y="200" type="curve" smooth="yes"/>
      <point x="183" y="631" type="line" smooth="yes"/>
      <point x="183" y="679"/>
      <point x="217" y="683"/>
      <point x="283" y="690" type="curve"/>
      <point x="283" y="700" type="line"/>
      <point x="38" y="700" type="line"/>
      <point x="38" y="690" type="line"/>
      <point x="114" y="683"/>
      <point x="138" y="679"/>
      <point x="138" y="631" type="curve" smooth="yes"/>
      <point x="138" y="217" type="line" smooth="yes"/>
      <point x="138" y="39"/>
      <point x="231" y="-15"/>
      <point x="344" y="-15" type="curve" smooth="yes"/>
      <point x="411" y="-15"/>
      <point x="480" y="17"/>
      <point x="517" y="63" type="curve"/>
      <point x="517" y="0" type="line"/>
      <point x="662" y="0" type="line"/>
      <point x="662" y="10" type="line"/>
      <point x="587" y="17"/>
      <point x="562" y="21"/>
      <point x="562" y="69" type="curve" smooth="yes"/>
      <point x="562" y="631" type="line" smooth="yes"/>
      <point x="562" y="679"/>
      <point x="586" y="683"/>
    </contour>
  </outline>
</glyph>
<glyph name="V" format="2">
  <advance width="634"/>
  <unicode hex="0056"/>
  <anchor x="317" y="0" name="bottom"/>
  <anchor x="317" y="700" name="top"/>
  <outline>
    <contour>
      <point x="322" y="-15" type="line"/>
      <point x="327" y="-15" type="line"/>
      <point x="500" y="638" type="line" smooth="yes"/>
      <point x="511" y="680"/>
      <point x="555" y="684"/>
      <point x="617" y="691" type="curve"/>
      <point x="617" y="701" type="line"/>
      <point x="401" y="701" type="line"/>
      <point x="401" y="691" type="line"/>
      <point x="473" y="684"/>
      <point x="496" y="680"/>
      <point x="484" y="637" type="curve" smooth="yes"/>
      <point x="338" y="91" type="line"/>
      <point x="182" y="639" type="line"/>
      <point x="169" y="680"/>
      <point x="202" y="684"/>
      <point x="264" y="691" type="curve"/>
      <point x="264" y="701" type="line"/>
      <point x="17" y="701" type="line"/>
      <point x="17" y="691" type="line"/>
      <point x="90" y="684"/>
      <point x="123" y="683"/>
      <point x="136" y="638" type="curve" smooth="yes"/>
    </contour>
  </outline>
</glyph>
<glyph name="W" format="2">
  <advance width="982"/>
  <unicode hex="0057"/>
  <anchor x="491" y="0" name="bottom"/>
  <anchor x="491" y="700" name="top"/>
  <outline>
    <contour>
      <point x="739" y="701" type="line"/>
      <point x="739" y="691" type="line"/>
      <point x="808" y="684"/>
      <point x="829" y="680"/>
      <point x="818" y="637" type="curve" smooth="yes"/>
      <point x="680" y="102" type="line"/>
      <point x="535" y="639" type="line" smooth="yes"/>
      <point x="524" y="681"/>
      <point x="554" y="684"/>
      <point x="612" y="691" type="curve"/>
      <point x="612" y="701" type="line"/>
      <point x="376" y="701" type="line"/>
      <point x="376" y="691" type="line"/>
      <point x="435" y="685"/>
      <point x="467" y="683"/>
      <point x="483" y="655" type="curve"/>
      <point x="341" y="102" type="line"/>
      <point x="196" y="639" type="line" smooth="yes"/>
      <point x="185" y="681"/>
      <point x="215" y="684"/>
      <point x="273" y="691" type="curve"/>
      <point x="273" y="701" type="line"/>
      <point x="37" y="701" type="line"/>
      <point x="37" y="691" type="line"/>
      <point x="106" y="684"/>
      <point x="138" y="683"/>
      <point x="150" y="638" type="curve" smooth="yes"/>
      <point x="326" y="-15" type="line"/>
      <point x="492" y="627" type="line"/>
      <point x="665" y="-15" type="line"/>
      <point x="834" y="638" type="line" smooth="yes"/>
      <point x="845" y="680"/>
      <point x="887" y="684"/>
      <point x="945" y="691" type="curve"/>
      <point x="945" y="701" type="line"/>
    </contour>
  </outline>
</glyph>
<glyph name="X" format="2">
  <advance width="684"/>
  <unicode hex="0058"/>
  <anchor x="342" y="0" name="bottom"/>
  <anchor x="342" y="700" name="top"/>
  <outline>
    <contour>
      <point x="36" y="0" type="line"/>
      <point x="253" y="0" type="line"/>
      <point x="253" y="10" type="line"/>
      <point x="197" y="16"/>
      <point x="167" y="25"/>
      <point x="186" y="62" type="curve" smooth="yes"/>
      <point x="324" y="328" type="line"/>
      <point x="446" y="63" type="line" smooth="yes"/>
      <point x="464" y="20"/>
      <point x="436" y="17"/>
      <point x="375" y="10" type="curve"/>
      <point x="375" y="0" type="line"/>
      <point x="625" y="0" type="line"/>
      <point x="625" y="10" type="line"/>
      <point x="555" y="16"/>
      <point x="519" y="20"/>
      <point x="497" y="62" type="curve"/>
      <point x="356" y="368" type="line"/>
      <point x="491" y="638" type="line" smooth="yes"/>
      <point x="512" y="680"/>
      <point x="551" y="683"/>
      <point x="623" y="690" type="curve"/>
      <point x="623" y="700" type="line"/>
      <point x="406" y="700" type="line"/>
      <point x="406" y="690" type="line"/>
      <point x="468" y="683"/>
      <point x="494" y="678"/>
      <point x="474" y="638" type="curve" smooth="yes"/>
      <point x="348" y="385" type="line"/>
      <point x="231" y="639" type="line" smooth="yes"/>
      <point x="213" y="678"/>
      <point x="241" y="683"/>
      <point x="303" y="690" type="curve"/>
      <point x="303" y="700" type="line"/>
      <point x="54" y="700" type="line"/>
      <point x="54" y="690" type="line"/>
      <point x="125" y="683"/>
      <point x="162" y="682"/>
      <point x="182" y="639" type="curve" smooth="yes"/>
      <point x="317" y="345" type="line"/>
      <point x="171" y="67" type="line" smooth="yes"/>
      <point x="147" y="21"/>
      <point x="109" y="17"/>
      <point x="36" y="10" type="curve"/>
    </contour>
  </outline>
</glyph>
<glyph name="Y" format="2">
  <advance width="683"/>
  <unicode hex="0059"/>
  <anchor x="342" y="0" name="bottom"/>
  <anchor x="342" y="700" name="top"/>
  <anchor x="20" y="700" name="topleft"/>
  <outline>
    <contour>
      <point x="214" y="0" type="line"/>
      <point x="459" y="0" type="line"/>
      <point x="459" y="10" type="line"/>
      <point x="385" y="17"/>
      <point x="360" y="21"/>
      <point x="359" y="69" type="curve"/>
      <point x="359" y="309" type="line"/>
      <point x="515" y="636" type="line" smooth="yes"/>
      <point x="535" y="678"/>
      <point x="572" y="683"/>
      <point x="645" y="690" type="curve"/>
      <point x="645" y="700" type="line"/>
      <point x="428" y="700" type="line"/>
      <point x="428" y="690" type="line"/>
      <point x="487" y="684"/>
      <point x="517" y="676"/>
      <point x="502" y="644" type="curve" smooth="yes"/>
      <point x="353" y="332" type="line"/>
      <point x="214" y="637" type="line" smooth="yes"/>
      <point x="196" y="677"/>
      <point x="223" y="683"/>
      <point x="286" y="690" type="curve"/>
      <point x="286" y="700" type="line"/>
      <point x="38" y="700" type="line"/>
      <point x="38" y="690" type="line"/>
      <point x="106" y="684"/>
      <point x="148" y="678"/>
      <point x="164" y="643" type="curve" smooth="yes"/>
      <point x="314" y="309" type="line"/>
      <point x="314" y="69" type="line" smooth="yes"/>
      <point x="314" y="21"/>
      <point x="279" y="17"/>
      <point x="214" y="10" type="curve"/>
    </contour>
  </outline>
</glyph>
<glyph name="Z" format="2">
  <advance width="579"/>
  <unicode hex="005A"/>
  <anchor x="290" y="0" name="bottom"/>
  <anchor x="290" y="350" name="center"/>
  <anchor x="290" y="700" name="top"/>
  <outline>
    <contour>
      <point x="73" y="0" type="line"/>
      <point x="506" y="0" type="line"/>
      <point x="506" y="214" type="line"/>
      <point x="496" y="214" type="line"/>
      <point x="490" y="76"/>
      <point x="470" y="15"/>
      <point x="379" y="15" type="curve" smooth="yes"/>
      <point x="125" y="15" type="line"/>
      <point x="506" y="685" type="line"/>
      <point x="506" y="700" type="line"/>
      <point x="73" y="700" type="line"/>
      <point x="73" y="486" type="line"/>
      <point x="83" y="486" type="line"/>
      <point x="89" y="624"/>
      <point x="109" y="685"/>
      <point x="200" y="685" type="curve" smooth="yes"/>
      <point x="454" y="685" type="line"/>
      <point x="73" y="15" type="line"/>
    </contour>
  </outline>
</glyph>
<glyph name="bracketleft" format="2">
  <advance width="337"/>
  <unicode hex="005B"/>
  <outline>
    <contour>
      <point x="277" y="784" type="line"/>
      <point x="277" y="799" type="line"/>
      <point x="40" y="799" type="line"/>
      <point x="40" y="-109" type="line"/>
      <point x="277" y="-109" type="line"/>
      <point x="277" y="-94" type="line"/>
      <point x="74" y="-94" type="line"/>
      <point x="74" y="784" type="line"/>
    </contour>
  </outline>
</glyph>
<glyph name="backslash" format="2">
  <advance width="303"/>
  <unicode hex="005C"/>
  <outline>
    <contour>
      <point x="54" y="722" type="line"/>
      <point x="30" y="722" type="line"/>
      <point x="249" y="-10" type="line"/>
      <point x="273" y="-10" type="line"/>
    </contour>
  </outline>
</glyph>
<glyph name="bracketright" format="2">
  <advance width="337"/>
  <unicode hex="005D"/>
  <outline>
    <contour>
      <point x="40" y="-109" type="line"/>
      <point x="277" y="-109" type="line"/>
      <point x="277" y="799" type="line"/>
      <point x="40" y="799" type="line"/>
      <point x="40" y="784" type="line"/>
      <point x="243" y="784" type="line"/>
      <point x="243" y="-94" type="line"/>
      <point x="40" y="-94" type="line"/>
    </contour>
  </outline>
</glyph>
<glyph name="asciicircum" format="2">
  <advance width="480"/>
  <unicode hex="005E"/>
  <outline>
    <contour>
      <point x="400" y="610" type="line"/>
      <point x="240" y="739" type="line"/>
      <point x="80" y="610" type="line"/>
      <point x="88" y="600" type="line"/>
      <point x="240" y="719" type="line"/>
      <point x="392" y="600" type="line"/>
    </contour>
  </outline>
</glyph>
<glyph name="underscore" format="2">
  <advance width="352"/>
  <unicode hex="005F"/>
  <outline>
    <contour>
      <point x="0" y="-14" type="line"/>
      <point x="0" y="-34" type="line"/>
      <point x="352" y="-34" type="line"/>
      <point x="352" y="-14" type="line"/>
    </contour>
  </outline>
</glyph>
<glyph name="a" format="2">
  <advance width="530"/>
  <unicode hex="0061"/>
  <anchor x="265" y="0" name="bottom"/>
  <anchor x="517" y="10" name="ogonek"/>
  <anchor x="265" y="500" name="top"/>
  <outline>
    <contour>
      <point x="244" y="-14" type="curve" smooth="yes"/>
      <point x="299" y="-14"/>
      <point x="355" y="8"/>
      <point x="389" y="55" type="curve"/>
      <point x="391" y="2"/>
      <point x="410" y="-15"/>
      <point x="441" y="-15" type="curve" smooth="yes"/>
      <point x="477" y="-15"/>
      <point x="493" y="13"/>
      <point x="498" y="51" type="curve"/>
      <point x="484" y="55" type="line"/>
      <point x="479" y="19"/>
      <point x="465" y="1"/>
      <point x="447" y="1" type="curve" smooth="yes"/>
      <point x="430" y="1"/>
      <point x="428" y="20"/>
      <point x="428" y="78" type="curve" smooth="yes"/>
      <point x="428" y="342" type="line" smooth="yes"/>
      <point x="428" y="486"/>
      <point x="349" y="515"/>
      <point x="253" y="515" type="curve" smooth="yes"/>
      <point x="189" y="515"/>
      <point x="140" y="486"/>
      <point x="105" y="469" type="curve"/>
      <point x="79" y="313" type="line"/>
      <point x="89" y="313" type="line"/>
      <point x="144" y="465"/>
      <point x="173" y="500"/>
      <point x="269" y="500" type="curve" smooth="yes"/>
      <point x="297" y="500"/>
      <point x="377" y="485"/>
      <point x="387" y="392" type="curve"/>
      <point x="198" y="365"/>
      <point x="67" y="253"/>
      <point x="67" y="143" type="curve" smooth="yes"/>
      <point x="67" y="42"/>
      <point x="155" y="-14"/>
    </contour>
    <contour>
      <point x="244" y="1" type="curve" smooth="yes"/>
      <point x="177" y="1"/>
      <point x="112" y="46"/>
      <point x="112" y="137" type="curve" smooth="yes"/>
      <point x="112" y="292"/>
      <point x="257" y="354"/>
      <point x="388" y="377" type="curve"/>
      <point x="388" y="362"/>
      <point x="388" y="346"/>
      <point x="388" y="331" type="curve"/>
      <point x="388" y="144" type="line" smooth="yes"/>
      <point x="388" y="51"/>
      <point x="315" y="1"/>
    </contour>
  </outline>
</glyph>
<glyph name="b" format="2">
  <advance width="546"/>
  <unicode hex="0062"/>
  <anchor x="273" y="0" name="bottom"/>
  <anchor x="273" y="250" name="center"/>
  <anchor x="273" y="500" name="top"/>
  <outline>
    <contour>
      <point x="93" y="-15" type="line"/>
      <point x="98" y="-15" type="line"/>
      <point x="131" y="95" type="line"/>
      <point x="168" y="21"/>
      <point x="231" y="-16"/>
      <point x="294" y="-16" type="curve" smooth="yes"/>
      <point x="390" y="-16"/>
      <point x="485" y="71"/>
      <point x="485" y="246" type="curve" smooth="yes"/>
      <point x="485" y="425"/>
      <point x="388" y="516"/>
      <point x="291" y="516" type="curve" smooth="yes"/>
      <point x="230" y="516"/>
      <point x="169" y="480"/>
      <point x="133" y="408" type="curve"/>
      <point x="133" y="700" type="line"/>
      <point x="3" y="700" type="line"/>
      <point x="3" y="690" type="line"/>
      <point x="69" y="683"/>
      <point x="93" y="679"/>
      <point x="93" y="631" type="curve" smooth="yes"/>
    </contour>
    <contour>
      <point x="285" y="1" type="curve" smooth="yes"/>
      <point x="209" y="1"/>
      <point x="133" y="82"/>
      <point x="133" y="246" type="curve" smooth="yes"/>
      <point x="133" y="416"/>
      <point x="209" y="501"/>
      <point x="286" y="501" type="curve" smooth="yes"/>
      <point x="363" y="501"/>
      <point x="440" y="415"/>
      <point x="440" y="246" type="curve" smooth="yes"/>
      <point x="440" y="84"/>
      <point x="362" y="1"/>
    </contour>
  </outline>
</glyph>
<glyph name="c" format="2">
  <advance width="518"/>
  <unicode hex="0063"/>
  <anchor x="259" y="0" name="bottom"/>
  <anchor x="259" y="500" name="top"/>
  <outline>
    <contour>
      <point x="284" y="-15" type="curve" smooth="yes"/>
      <point x="387" y="-15"/>
      <point x="432" y="41"/>
      <point x="460" y="127" type="curve"/>
      <point x="446" y="132" type="line"/>
      <point x="417" y="38"/>
      <point x="362" y="0"/>
      <point x="292" y="0" type="curve" smooth="yes"/>
      <point x="197" y="0"/>
      <point x="106" y="81"/>
      <point x="106" y="246" type="curve" smooth="yes"/>
      <point x="106" y="418"/>
      <point x="197" y="500"/>
      <point x="286" y="500" type="curve" smooth="yes"/>
      <point x="357" y="500"/>
      <point x="401" y="456"/>
      <point x="445" y="313" type="curve"/>
      <point x="455" y="313" type="line"/>
      <point x="429" y="469" type="line"/>
      <point x="393" y="498"/>
      <point x="332" y="514"/>
      <point x="284" y="515" type="curve" smooth="yes"/>
      <point x="155" y="515"/>
      <point x="61" y="412"/>
      <point x="61" y="246" type="curve" smooth="yes"/>
      <point x="61" y="80"/>
      <point x="155" y="-15"/>
    </contour>
  </outline>
</glyph>
<glyph name="d" format="2">
  <advance width="551"/>
  <unicode hex="0064"/>
  <anchor x="276" y="0" name="bottom"/>
  <anchor x="276" y="250" name="center"/>
  <anchor x="276" y="800" name="top"/>
  <anchor x="531" y="800" name="topright"/>
  <outline>
    <contour>
      <point x="255" y="-16" type="curve" smooth="yes"/>
      <point x="318" y="-16"/>
      <point x="381" y="21"/>
      <point x="418" y="95" type="curve"/>
      <point x="448" y="-15" type="line"/>
      <point x="456" y="-15" type="line"/>
      <point x="456" y="700" type="line"/>
      <point x="326" y="700" type="line"/>
      <point x="326" y="690" type="line"/>
      <point x="393" y="683"/>
      <point x="417" y="679"/>
      <point x="416" y="631" type="curve" smooth="yes"/>
      <point x="416" y="408" type="line"/>
      <point x="380" y="480"/>
      <point x="319" y="516"/>
      <point x="258" y="516" type="curve" smooth="yes"/>
      <point x="161" y="516"/>
      <point x="64" y="425"/>
      <point x="64" y="246" type="curve" smooth="yes"/>
      <point x="64" y="71"/>
      <point x="159" y="-16"/>
    </contour>
    <contour>
      <point x="264" y="1" type="curve" smooth="yes"/>
      <point x="187" y="1"/>
      <point x="109" y="84"/>
      <point x="109" y="246" type="curve" smooth="yes"/>
      <point x="109" y="415"/>
      <point x="186" y="501"/>
      <point x="263" y="501" type="curve" smooth="yes"/>
      <point x="340" y="501"/>
      <point x="416" y="416"/>
      <point x="416" y="246" type="curve" smooth="yes"/>
      <point x="416" y="82"/>
      <point x="340" y="1"/>
    </contour>
  </outline>
</glyph>
<glyph name="e" format="2">
  <advance width="511"/>
  <unicode hex="0065"/>
  <anchor x="256" y="0" name="bottom"/>
  <anchor x="460" y="10" name="ogonek"/>
  <anchor x="256" y="500" name="top"/>
  <outline>
    <contour>
      <point x="275" y="-15" type="curve" smooth="yes"/>
      <point x="406" y="-15"/>
      <point x="444" y="79"/>
      <point x="455" y="127" type="curve"/>
      <point x="441" y="132" type="line"/>
      <point x="431" y="71"/>
      <point x="381" y="0"/>
      <point x="283" y="0" type="curve" smooth="yes"/>
      <point x="198" y="0"/>
      <point x="107" y="81"/>
      <point x="107" y="246" type="curve" smooth="yes"/>
      <point x="107" y="418"/>
      <point x="196" y="501"/>
      <point x="275" y="500" type="curve" smooth="yes"/>
      <point x="368" y="499"/>
      <point x="409" y="417"/>
      <point x="409" y="320" type="curve"/>
      <point x="451" y="320" type="line"/>
      <point x="451" y="440"/>
      <point x="385" y="514"/>
      <point x="273" y="515" type="curve" smooth="yes"/>
      <point x="154" y="516"/>
      <point x="62" y="412"/>
      <point x="62" y="246" type="curve" smooth="yes"/>
      <point x="62" y="80"/>
      <point x="156" y="-15"/>
    </contour>
    <contour>
      <point x="101" y="320" type="line"/>
      <point x="443" y="320" type="line"/>
      <point x="443" y="335" type="line"/>
      <point x="101" y="335" type="line"/>
    </contour>
  </outline>
</glyph>
<glyph name="f" format="2">
  <advance width="417"/>
  <unicode hex="0066"/>
  <anchor x="209" y="0" name="bottom"/>
  <anchor x="209" y="800" name="top"/>
  <outline>
    <contour>
      <point x="32" y="0" type="line"/>
      <point x="252" y="0" type="line"/>
      <point x="252" y="10" type="line"/>
      <point x="187" y="17"/>
      <point x="162" y="21"/>
      <point x="162" y="69" type="curve" smooth="yes"/>
      <point x="162" y="485" type="line"/>
      <point x="399" y="485" type="line"/>
      <point x="399" y="500" type="line"/>
      <point x="241" y="500" type="line" smooth="yes"/>
      <point x="169" y="500"/>
      <point x="151" y="533"/>
      <point x="151" y="579" type="curve" smooth="yes"/>
      <point x="151" y="667"/>
      <point x="210" y="700"/>
      <point x="272" y="700" type="curve" smooth="yes"/>
      <point x="343" y="700"/>
      <point x="391" y="660"/>
      <point x="424" y="532" type="curve"/>
      <point x="434" y="532" type="line"/>
      <point x="415" y="669" type="line"/>
      <point x="383" y="700"/>
      <point x="330" y="715"/>
      <point x="277" y="715" type="curve" smooth="yes"/>
      <point x="183" y="715"/>
      <point x="122" y="656"/>
      <point x="122" y="547" type="curve" smooth="yes"/>
      <point x="122" y="500" type="line"/>
      <point x="26" y="500" type="line"/>
      <point x="26" y="485" type="line"/>
      <point x="122" y="485" type="line"/>
      <point x="122" y="69" type="line" smooth="yes"/>
      <point x="122" y="21"/>
      <point x="97" y="17"/>
      <point x="32" y="10" type="curve"/>
    </contour>
  </outline>
</glyph>
<glyph name="g" format="2">
  <advance width="515"/>
  <unicode hex="0067"/>
  <anchor x="258" y="-200" name="bottom"/>
  <anchor x="258" y="500" name="top"/>
  <outline>
    <contour>
      <point x="263" y="169" type="curve" smooth="yes"/>
      <point x="365" y="169"/>
      <point x="447" y="244"/>
      <point x="447" y="335" type="curve" smooth="yes"/>
      <point x="447" y="426"/>
      <point x="365" y="500"/>
      <point x="263" y="500" type="curve" smooth="yes"/>
      <point x="160" y="500"/>
      <point x="78" y="426"/>
      <point x="78" y="335" type="curve" smooth="yes"/>
      <point x="78" y="244"/>
      <point x="160" y="169"/>
    </contour>
    <contour>
      <point x="263" y="184" type="curve" smooth="yes"/>
      <point x="170" y="184"/>
      <point x="123" y="259"/>
      <point x="123" y="335" type="curve" smooth="yes"/>
      <point x="123" y="410"/>
      <point x="170" y="485"/>
      <point x="263" y="485" type="curve" smooth="yes"/>
      <point x="356" y="485"/>
      <point x="402" y="410"/>
      <point x="402" y="335" type="curve" smooth="yes"/>
      <point x="402" y="259"/>
      <point x="356" y="184"/>
    </contour>
    <contour>
      <point x="264" y="485" type="line"/>
      <point x="478" y="485" type="line"/>
      <point x="478" y="500" type="line"/>
      <point x="264" y="500" type="line"/>
    </contour>
    <contour>
      <point x="65" y="15"/>
      <point x="447" y="80"/>
      <point x="447" y="-92" type="curve" smooth="yes"/>
      <point x="447" y="-141"/>
      <point x="414" y="-200"/>
      <point x="259" y="-200" type="curve" smooth="yes"/>
      <point x="128" y="-200"/>
      <point x="58" y="-135"/>
      <point x="58" y="-67" type="curve" smooth="yes"/>
      <point x="58" y="-19"/>
      <point x="98" y="36"/>
      <point x="195" y="65" type="curve"/>
      <point x="166" y="71" type="line"/>
      <point x="61" y="51"/>
      <point x="15" y="-19"/>
      <point x="15" y="-73" type="curve" smooth="yes"/>
      <point x="15" y="-144"/>
      <point x="87" y="-215"/>
      <point x="266" y="-215" type="curve" smooth="yes"/>
      <point x="429" y="-215"/>
      <point x="493" y="-157"/>
      <point x="493" y="-80" type="curve" smooth="yes"/>
      <point x="493" y="99"/>
      <point x="97" y="60"/>
      <point x="95" y="133" type="curve" smooth="yes"/>
      <point x="94" y="168"/>
      <point x="169" y="187"/>
      <point x="192" y="190" type="curve"/>
      <point x="171" y="200" type="line"/>
      <point x="145" y="198"/>
      <point x="65" y="172"/>
      <point x="65" y="122" type="curve" smooth="yes"/>
    </contour>
  </outline>
</glyph>
<glyph name="h" format="2">
  <advance width="623"/>
  <unicode hex="0068"/>
  <anchor x="312" y="0" name="bottom"/>
  <anchor x="312" y="400" name="center"/>
  <anchor x="312" y="800" name="top"/>
  <outline>
    <contour>
      <point x="26" y="0" type="line"/>
      <point x="246" y="0" type="line"/>
      <point x="246" y="10" type="line"/>
      <point x="181" y="17"/>
      <point x="156" y="21"/>
      <point x="156" y="69" type="curve" smooth="yes"/>
      <point x="156" y="309" type="line" smooth="yes"/>
      <point x="157" y="433"/>
      <point x="248" y="500"/>
      <point x="333" y="500" type="curve" smooth="yes"/>
      <point x="409" y="500"/>
      <point x="476" y="449"/>
      <point x="476" y="343" type="curve" smooth="yes"/>
      <point x="476" y="69" type="line" smooth="yes"/>
      <point x="476" y="22"/>
      <point x="451" y="18"/>
      <point x="386" y="10" type="curve"/>
      <point x="386" y="0" type="line"/>
      <point x="606" y="0" type="line"/>
      <point x="606" y="10" type="line"/>
      <point x="540" y="16"/>
      <point x="515" y="21"/>
      <point x="516" y="69" type="curve" smooth="yes"/>
      <point x="516" y="347" type="line" smooth="yes"/>
      <point x="516" y="458"/>
      <point x="429" y="515"/>
      <point x="338" y="515" type="curve" smooth="yes"/>
      <point x="269" y="515"/>
      <point x="197" y="483"/>
      <point x="156" y="416" type="curve"/>
      <point x="156" y="700" type="line"/>
      <point x="26" y="700" type="line"/>
      <point x="26" y="690" type="line"/>
      <point x="92" y="683"/>
      <point x="116" y="679"/>
      <point x="116" y="631" type="curve" smooth="yes"/>
      <point x="116" y="69" type="line" smooth="yes"/>
      <point x="116" y="21"/>
      <point x="91" y="17"/>
      <point x="26" y="10" type="curve"/>
    </contour>
  </outline>
</glyph>
<glyph name="k" format="2">
  <advance width="596"/>
  <unicode hex="006B"/>
  <anchor x="270" y="0" name="bottom"/>
  <anchor x="298" y="800" name="top"/>
  <outline>
    <contour>
      <point x="17" y="0" type="line"/>
      <point x="237" y="0" type="line"/>
      <point x="237" y="10" type="line"/>
      <point x="172" y="17"/>
      <point x="147" y="21"/>
      <point x="147" y="69" type="curve" smooth="yes"/>
      <point x="147" y="303" type="line"/>
      <point x="232" y="363" type="line"/>
      <point x="403" y="65" type="line" smooth="yes"/>
      <point x="427" y="23"/>
      <point x="413" y="17"/>
      <point x="350" y="10" type="curve"/>
      <point x="350" y="0" type="line"/>
      <point x="577" y="0" type="line"/>
      <point x="577" y="10" type="line"/>
      <point x="514" y="17"/>
      <point x="478" y="21"/>
      <point x="450" y="65" type="curve"/>
      <point x="264" y="386" type="line"/>
      <point x="337" y="437" type="line"/>
      <point x="401" y="478"/>
      <point x="454" y="483"/>
      <point x="517" y="490" type="curve"/>
      <point x="517" y="500" type="line"/>
      <point x="312" y="500" type="line"/>
      <point x="312" y="490" type="line"/>
      <point x="371" y="484"/>
      <point x="373" y="480"/>
      <point x="325" y="446" type="curve" smooth="yes"/>
      <point x="147" y="320" type="line"/>
      <point x="147" y="631" type="line" smooth="yes"/>
      <point x="147" y="679"/>
      <point x="171" y="683"/>
      <point x="237" y="690" type="curve"/>
      <point x="237" y="700" type="line"/>
      <point x="17" y="700" type="line"/>
      <point x="17" y="690" type="line"/>
      <point x="83" y="683"/>
      <point x="107" y="679"/>
      <point x="107" y="631" type="curve" smooth="yes"/>
      <point x="107" y="69" type="line" smooth="yes"/>
      <point x="107" y="21"/>
      <point x="82" y="17"/>
      <point x="17" y="10" type="curve"/>
    </contour>
  </outline>
</glyph>
<glyph name="l" format="2">
  <advance width="254"/>
  <unicode hex="006C"/>
  <anchor x="127" y="0" name="bottom"/>
  <anchor x="127" y="400" name="center"/>
  <anchor x="127" y="700" name="top"/>
  <anchor x="234" y="800" name="topright"/>
  <outline>
    <contour>
      <point x="17" y="0" type="line"/>
      <point x="237" y="0" type="line"/>
      <point x="237" y="10" type="line"/>
      <point x="172" y="17"/>
      <point x="147" y="21"/>
      <point x="147" y="69" type="curve" smooth="yes"/>
      <point x="147" y="700" type="line"/>
      <point x="17" y="700" type="line"/>
      <point x="17" y="690" type="line"/>
      <point x="83" y="683"/>
      <point x="107" y="679"/>
      <point x="107" y="631" type="curve" smooth="yes"/>
      <point x="107" y="69" type="line" smooth="yes"/>
      <point x="107" y="21"/>
      <point x="82" y="17"/>
      <point x="17" y="10" type="curve"/>
    </contour>
  </outline>
</glyph>
<glyph name="m" format="2">
  <advance width="943"/>
  <unicode hex="006D"/>
  <anchor x="472" y="0" name="bottom"/>
  <anchor x="472" y="500" name="top"/>
  <outline>
    <contour>
      <point x="26" y="0" type="line"/>
      <point x="246" y="0" type="line"/>
      <point x="246" y="10" type="line"/>
      <point x="181" y="17"/>
      <point x="156" y="21"/>
      <point x="156" y="69" type="curve" smooth="yes"/>
      <point x="156" y="310" type="line" smooth="yes"/>
      <point x="157" y="434"/>
      <point x="233" y="500"/>
      <point x="322" y="500" type="curve" smooth="yes"/>
      <point x="391" y="500"/>
      <point x="456" y="450"/>
      <point x="456" y="343" type="curve" smooth="yes"/>
      <point x="456" y="69" type="line" smooth="yes"/>
      <point x="456" y="22"/>
      <point x="431" y="18"/>
      <point x="366" y="10" type="curve"/>
      <point x="366" y="0" type="line"/>
      <point x="586" y="0" type="line"/>
      <point x="586" y="10" type="line"/>
      <point x="520" y="16"/>
      <point x="495" y="21"/>
      <point x="496" y="69" type="curve" smooth="yes"/>
      <point x="496" y="310" type="line" smooth="yes"/>
      <point x="497" y="434"/>
      <point x="573" y="500"/>
      <point x="662" y="500" type="curve" smooth="yes"/>
      <point x="731" y="500"/>
      <point x="796" y="450"/>
      <point x="796" y="343" type="curve" smooth="yes"/>
      <point x="796" y="69" type="line" smooth="yes"/>
      <point x="796" y="22"/>
      <point x="771" y="18"/>
      <point x="706" y="10" type="curve"/>
      <point x="706" y="0" type="line"/>
      <point x="926" y="0" type="line"/>
      <point x="926" y="10" type="line"/>
      <point x="860" y="16"/>
      <point x="835" y="21"/>
      <point x="836" y="69" type="curve" smooth="yes"/>
      <point x="836" y="347" type="line" smooth="yes"/>
      <point x="836" y="460"/>
      <point x="757" y="515"/>
      <point x="672" y="515" type="curve" smooth="yes"/>
      <point x="595" y="515"/>
      <point x="524" y="478"/>
      <point x="488" y="406" type="curve"/>
      <point x="465" y="479"/>
      <point x="401" y="515"/>
      <point x="332" y="515" type="curve" smooth="yes"/>
      <point x="261" y="515"/>
      <point x="194" y="483"/>
      <point x="156" y="420" type="curve"/>
      <point x="156" y="500" type="line"/>
      <point x="26" y="500" type="line"/>
      <point x="26" y="490" type="line"/>
      <point x="92" y="483"/>
      <point x="116" y="479"/>
      <point x="116" y="431" type="curve" smooth="yes"/>
      <point x="116" y="69" type="line" smooth="yes"/>
      <point x="116" y="21"/>
      <point x="91" y="17"/>
      <point x="26" y="10" type="curve"/>
    </contour>
  </outline>
</glyph>
<glyph name="n" format="2">
  <advance width="623"/>
  <unicode hex="006E"/>
  <anchor x="312" y="0" name="bottom"/>
  <anchor x="312" y="500" name="top"/>
  <outline>
    <contour>
      <point x="516" y="69" type="curve" smooth="yes"/>
      <point x="516" y="327" type="line" smooth="yes"/>
      <point x="516" y="478"/>
      <point x="434" y="515"/>
      <point x="332" y="515" type="curve" smooth="yes"/>
      <point x="269" y="515"/>
      <point x="197" y="483"/>
      <point x="156" y="416" type="curve"/>
      <point x="156" y="500" type="line"/>
      <point x="26" y="500" type="line"/>
      <point x="26" y="490" type="line"/>
      <point x="92" y="483"/>
      <point x="116" y="479"/>
      <point x="116" y="431" type="curve" smooth="yes"/>
      <point x="116" y="69" type="line" smooth="yes"/>
      <point x="116" y="21"/>
      <point x="91" y="17"/>
      <point x="26" y="10" type="curve"/>
      <point x="26" y="0" type="line"/>
      <point x="246" y="0" type="line"/>
      <point x="246" y="10" type="line"/>
      <point x="181" y="17"/>
      <point x="156" y="21"/>
      <point x="156" y="69" type="curve" smooth="yes"/>
      <point x="156" y="309" type="line" smooth="yes"/>
      <point x="157" y="433"/>
      <point x="248" y="500"/>
      <point x="327" y="500" type="curve" smooth="yes"/>
      <point x="414" y="500"/>
      <point x="476" y="469"/>
      <point x="476" y="323" type="curve" smooth="yes"/>
      <point x="476" y="69" type="line" smooth="yes"/>
      <point x="476" y="22"/>
      <point x="451" y="18"/>
      <point x="386" y="10" type="curve"/>
      <point x="386" y="0" type="line"/>
      <point x="606" y="0" type="line"/>
      <point x="606" y="10" type="line"/>
      <point x="540" y="16"/>
      <point x="515" y="21"/>
    </contour>
  </outline>
</glyph>
<glyph name="o" format="2">
  <advance width="566"/>
  <unicode hex="006F"/>
  <anchor x="283" y="0" name="bottom"/>
  <anchor x="283" y="250" name="center"/>
  <anchor x="509" y="10" name="ogonek"/>
  <anchor x="283" y="500" name="top"/>
  <anchor x="546" y="500" name="topright"/>
  <outline>
    <contour>
      <point x="284" y="-15" type="curve" smooth="yes"/>
      <point x="413" y="-15"/>
      <point x="505" y="80"/>
      <point x="505" y="246" type="curve" smooth="yes"/>
      <point x="505" y="412"/>
      <point x="413" y="515"/>
      <point x="284" y="515" type="curve" smooth="yes"/>
      <point x="155" y="515"/>
      <point x="61" y="412"/>
      <point x="61" y="246" type="curve" smooth="yes"/>
      <point x="61" y="80"/>
      <point x="155" y="-15"/>
    </contour>
    <contour>
      <point x="284" y="-3" type="curve" smooth="yes"/>
      <point x="195" y="-3"/>
      <point x="106" y="81"/>
      <point x="106" y="246" type="curve" smooth="yes"/>
      <point x="106" y="417"/>
      <point x="195" y="503"/>
      <point x="284" y="503" type="curve" smooth="yes"/>
      <point x="372" y="503"/>
      <point x="460" y="418"/>
      <point x="460" y="246" type="curve" smooth="yes"/>
      <point x="460" y="80"/>
      <point x="372" y="-3"/>
    </contour>
  </outline>
</glyph>
<glyph name="p" format="2">
  <advance width="562"/>
  <unicode hex="0070"/>
  <anchor x="281" y="0" name="bottom"/>
  <anchor x="281" y="500" name="top"/>
  <outline>
    <contour>
      <point x="17" y="-200" type="line"/>
      <point x="237" y="-200" type="line"/>
      <point x="237" y="-190" type="line"/>
      <point x="170" y="-183"/>
      <point x="146" y="-179"/>
      <point x="147" y="-131" type="curve" smooth="yes"/>
      <point x="147" y="92" type="line"/>
      <point x="183" y="20"/>
      <point x="244" y="-16"/>
      <point x="305" y="-16" type="curve" smooth="yes"/>
      <point x="402" y="-16"/>
      <point x="499" y="74"/>
      <point x="499" y="253" type="curve" smooth="yes"/>
      <point x="499" y="428"/>
      <point x="404" y="515"/>
      <point x="308" y="515" type="curve" smooth="yes"/>
      <point x="246" y="515"/>
      <point x="184" y="479"/>
      <point x="147" y="408" type="curve"/>
      <point x="147" y="500" type="line"/>
      <point x="17" y="500" type="line"/>
      <point x="17" y="490" type="line"/>
      <point x="84" y="483"/>
      <point x="108" y="479"/>
      <point x="107" y="431" type="curve" smooth="yes"/>
      <point x="107" y="-131" type="line" smooth="yes"/>
      <point x="108" y="-179"/>
      <point x="84" y="-183"/>
      <point x="17" y="-190" type="curve"/>
    </contour>
    <contour>
      <point x="300" y="-1" type="curve" smooth="yes"/>
      <point x="223" y="-1"/>
      <point x="147" y="83"/>
      <point x="147" y="253" type="curve" smooth="yes"/>
      <point x="147" y="417"/>
      <point x="223" y="500"/>
      <point x="299" y="500" type="curve" smooth="yes"/>
      <point x="377" y="500"/>
      <point x="454" y="414"/>
      <point x="454" y="253" type="curve" smooth="yes"/>
      <point x="454" y="84"/>
      <point x="377" y="-1"/>
    </contour>
  </outline>
</glyph>
<glyph name="q" format="2">
  <advance width="548"/>
  <unicode hex="0071"/>
  <anchor x="274" y="0" name="bottom"/>
  <anchor x="274" y="500" name="top"/>
  <outline>
    <contour>
      <point x="325" y="-200" type="line"/>
      <point x="545" y="-200" type="line"/>
      <point x="545" y="-190" type="line"/>
      <point x="479" y="-183"/>
      <point x="455" y="-179"/>
      <point x="455" y="-131" type="curve" smooth="yes"/>
      <point x="455" y="515" type="line"/>
      <point x="447" y="515" type="line"/>
      <point x="417" y="404" type="line"/>
      <point x="380" y="478"/>
      <point x="317" y="515"/>
      <point x="254" y="515" type="curve" smooth="yes"/>
      <point x="158" y="515"/>
      <point x="63" y="428"/>
      <point x="63" y="253" type="curve" smooth="yes"/>
      <point x="63" y="74"/>
      <point x="160" y="-16"/>
      <point x="257" y="-16" type="curve" smooth="yes"/>
      <point x="318" y="-16"/>
      <point x="379" y="20"/>
      <point x="415" y="92" type="curve"/>
      <point x="415" y="-131" type="line" smooth="yes"/>
      <point x="415" y="-179"/>
      <point x="391" y="-183"/>
      <point x="325" y="-190" type="curve"/>
    </contour>
    <contour>
      <point x="262" y="-1" type="curve" smooth="yes"/>
      <point x="185" y="-1"/>
      <point x="108" y="84"/>
      <point x="108" y="253" type="curve" smooth="yes"/>
      <point x="108" y="414"/>
      <point x="185" y="500"/>
      <point x="263" y="500" type="curve" smooth="yes"/>
      <point x="339" y="500"/>
      <point x="415" y="417"/>
      <point x="415" y="253" type="curve" smooth="yes"/>
      <point x="415" y="83"/>
      <point x="339" y="-1"/>
    </contour>
  </outline>
</glyph>
<glyph name="r" format="2">
  <advance width="474"/>
  <unicode hex="0072"/>
  <guideline x="224" y="381" angle="0"/>
  <anchor x="134" y="0" name="bottom"/>
  <anchor x="237" y="500" name="top"/>
  <outline>
    <contour>
      <point x="156" y="69" type="curve" smooth="yes"/>
      <point x="156" y="500" type="line"/>
      <point x="26" y="500" type="line"/>
      <point x="26" y="490" type="line"/>
      <point x="92" y="483"/>
      <point x="116" y="479"/>
      <point x="116" y="431" type="curve" smooth="yes"/>
      <point x="116" y="69" type="line" smooth="yes"/>
      <point x="116" y="21"/>
      <point x="91" y="17"/>
      <point x="26" y="10" type="curve"/>
      <point x="26" y="0" type="line"/>
      <point x="246" y="0" type="line"/>
      <point x="246" y="10" type="line"/>
      <point x="181" y="17"/>
      <point x="156" y="21"/>
    </contour>
    <contour>
      <point x="279" y="499" type="curve" smooth="yes"/>
      <point x="333" y="499"/>
      <point x="387" y="440"/>
      <point x="423" y="313" type="curve"/>
      <point x="433" y="313" type="line"/>
      <point x="407" y="469" type="line"/>
      <point x="365" y="501"/>
      <point x="333" y="515"/>
      <point x="296" y="515" type="curve" smooth="yes"/>
      <point x="197" y="515"/>
      <point x="116" y="409"/>
      <point x="116" y="263" type="curve"/>
      <point x="156" y="304" type="line"/>
      <point x="156" y="439"/>
      <point x="242" y="499"/>
    </contour>
  </outline>
</glyph>
<glyph name="s" format="2">
  <advance width="492"/>
  <unicode hex="0073"/>
  <anchor x="246" y="0" name="bottom"/>
  <anchor x="246" y="500" name="top"/>
  <outline>
    <contour>
      <point x="274" y="-14" type="curve" smooth="yes"/>
      <point x="380" y="-14"/>
      <point x="426" y="48"/>
      <point x="426" y="120" type="curve" smooth="yes"/>
      <point x="426" y="220"/>
      <point x="345" y="248"/>
      <point x="257" y="275" type="curve" smooth="yes"/>
      <point x="180" y="299"/>
      <point x="119" y="321"/>
      <point x="119" y="392" type="curve" smooth="yes"/>
      <point x="119" y="447"/>
      <point x="171" y="500"/>
      <point x="240" y="500" type="curve" smooth="yes"/>
      <point x="333" y="500"/>
      <point x="373" y="454"/>
      <point x="403" y="322" type="curve"/>
      <point x="413" y="322" type="line"/>
      <point x="396" y="469" type="line"/>
      <point x="368" y="498"/>
      <point x="324" y="515"/>
      <point x="255" y="515" type="curve" smooth="yes"/>
      <point x="160" y="515"/>
      <point x="92" y="457"/>
      <point x="92" y="370" type="curve" smooth="yes"/>
      <point x="92" y="286"/>
      <point x="164" y="258"/>
      <point x="248" y="234" type="curve" smooth="yes"/>
      <point x="331" y="210"/>
      <point x="400" y="180"/>
      <point x="400" y="101" type="curve" smooth="yes"/>
      <point x="400" y="59"/>
      <point x="371" y="1"/>
      <point x="265" y="1" type="curve" smooth="yes"/>
      <point x="160" y="1"/>
      <point x="93" y="69"/>
      <point x="78" y="255" type="curve"/>
      <point x="68" y="255" type="line"/>
      <point x="80" y="66" type="line"/>
      <point x="112" y="14"/>
      <point x="178" y="-14"/>
    </contour>
  </outline>
</glyph>
<glyph name="t" format="2">
  <advance width="359"/>
  <unicode hex="0074"/>
  <anchor x="210" y="0" name="bottom"/>
  <anchor x="180" y="250" name="center"/>
  <anchor x="180" y="500" name="top"/>
  <anchor x="218" y="800" name="topright"/>
  <outline>
    <contour>
      <point x="26" y="485" type="line"/>
      <point x="264" y="485" type="line"/>
      <point x="264" y="500" type="line"/>
      <point x="26" y="500" type="line"/>
    </contour>
    <contour>
      <point x="26" y="500" type="curve"/>
      <point x="139" y="500" type="line"/>
      <point x="139" y="700" type="line"/>
      <point x="124" y="700" type="line"/>
      <point x="124" y="545"/>
      <point x="114" y="500"/>
    </contour>
    <contour>
      <point x="332" y="83" type="curve"/>
      <point x="318" y="88" type="line"/>
      <point x="300" y="11"/>
      <point x="246" y="0"/>
      <point x="216" y="0" type="curve" smooth="yes"/>
      <point x="169" y="0"/>
      <point x="139" y="43"/>
      <point x="139" y="107" type="curve" smooth="yes"/>
      <point x="139" y="488" type="line"/>
      <point x="99" y="488" type="line"/>
      <point x="99" y="132" type="line" smooth="yes"/>
      <point x="99" y="21"/>
      <point x="141" y="-15"/>
      <point x="204" y="-15" type="curve" smooth="yes"/>
      <point x="262" y="-15"/>
      <point x="308" y="1"/>
    </contour>
  </outline>
</glyph>
<glyph name="u" format="2">
  <advance width="594"/>
  <unicode hex="0075"/>
  <anchor x="297" y="0" name="bottom"/>
  <anchor x="565" y="10" name="ogonek"/>
  <anchor x="284" y="500" name="top"/>
  <anchor x="574" y="500" name="topright"/>
  <outline>
    <contour>
      <point x="271" y="-15" type="curve" smooth="yes"/>
      <point x="337" y="-15"/>
      <point x="407" y="18"/>
      <point x="447" y="83" type="curve"/>
      <point x="447" y="0" type="line"/>
      <point x="577" y="0" type="line"/>
      <point x="577" y="10" type="line"/>
      <point x="511" y="17"/>
      <point x="487" y="21"/>
      <point x="487" y="69" type="curve" smooth="yes"/>
      <point x="487" y="500" type="line"/>
      <point x="357" y="500" type="line"/>
      <point x="357" y="490" type="line"/>
      <point x="422" y="483"/>
      <point x="447" y="479"/>
      <point x="447" y="431" type="curve" smooth="yes"/>
      <point x="447" y="191" type="line" smooth="yes"/>
      <point x="447" y="66"/>
      <point x="360" y="0"/>
      <point x="281" y="0" type="curve" smooth="yes"/>
      <point x="212" y="0"/>
      <point x="147" y="50"/>
      <point x="147" y="157" type="curve" smooth="yes"/>
      <point x="147" y="500" type="line"/>
      <point x="17" y="500" type="line"/>
      <point x="17" y="490" type="line"/>
      <point x="83" y="484"/>
      <point x="107" y="479"/>
      <point x="107" y="431" type="curve" smooth="yes"/>
      <point x="107" y="153" type="line" smooth="yes"/>
      <point x="107" y="40"/>
      <point x="186" y="-15"/>
    </contour>
  </outline>
</glyph>
<glyph name="v" format="2">
  <advance width="568"/>
  <unicode hex="0076"/>
  <anchor x="284" y="0" name="bottom"/>
  <anchor x="284" y="500" name="top"/>
  <outline>
    <contour>
      <point x="551" y="500" type="line"/>
      <point x="356" y="500" type="line"/>
      <point x="356" y="490" type="line"/>
      <point x="413" y="484"/>
      <point x="440" y="481"/>
      <point x="427" y="442" type="curve" smooth="yes"/>
      <point x="306" y="73" type="line"/>
      <point x="175" y="435" type="line" smooth="yes"/>
      <point x="160" y="479"/>
      <point x="179" y="483"/>
      <point x="241" y="490" type="curve"/>
      <point x="241" y="500" type="line"/>
      <point x="17" y="500" type="line"/>
      <point x="17" y="490" type="line"/>
      <point x="77" y="483"/>
      <point x="115" y="478"/>
      <point x="129" y="440" type="curve" smooth="yes"/>
      <point x="294" y="-15" type="line"/>
      <point x="441" y="440" type="line" smooth="yes"/>
      <point x="454" y="479"/>
      <point x="489" y="484"/>
      <point x="551" y="490" type="curve"/>
    </contour>
  </outline>
</glyph>
<glyph name="w" format="2">
  <advance width="838"/>
  <unicode hex="0077"/>
  <anchor x="419" y="0" name="bottom"/>
  <anchor x="419" y="500" name="top"/>
  <outline>
    <contour>
      <point x="294" y="-15" type="line"/>
      <point x="422" y="432" type="line"/>
      <point x="584" y="-15" type="line"/>
      <point x="713" y="439" type="line" smooth="yes"/>
      <point x="724" y="479"/>
      <point x="759" y="484"/>
      <point x="821" y="490" type="curve"/>
      <point x="821" y="500" type="line"/>
      <point x="625" y="500" type="line"/>
      <point x="625" y="490" type="line"/>
      <point x="684" y="483"/>
      <point x="710" y="479"/>
      <point x="697" y="435" type="curve" smooth="yes"/>
      <point x="595" y="77" type="line"/>
      <point x="465" y="435" type="line" smooth="yes"/>
      <point x="450" y="479"/>
      <point x="469" y="483"/>
      <point x="531" y="490" type="curve"/>
      <point x="531" y="500" type="line"/>
      <point x="335" y="500" type="line"/>
      <point x="335" y="490" type="line"/>
      <point x="394" y="483"/>
      <point x="420" y="479"/>
      <point x="407" y="435" type="curve" smooth="yes"/>
      <point x="305" y="77" type="line"/>
      <point x="175" y="435" type="line" smooth="yes"/>
      <point x="160" y="479"/>
      <point x="179" y="483"/>
      <point x="241" y="490" type="curve"/>
      <point x="241" y="500" type="line"/>
      <point x="17" y="500" type="line"/>
      <point x="17" y="490" type="line"/>
      <point x="77" y="483"/>
      <point x="111" y="489"/>
      <point x="129" y="440" type="curve" smooth="yes"/>
    </contour>
  </outline>
</glyph>
<glyph name="x" format="2">
  <advance width="543"/>
  <unicode hex="0078"/>
  <anchor x="272" y="0" name="bottom"/>
  <anchor x="272" y="500" name="top"/>
  <outline>
    <contour>
      <point x="26" y="0" type="line"/>
      <point x="224" y="0" type="line"/>
      <point x="224" y="10" type="line"/>
      <point x="165" y="16"/>
      <point x="146" y="22"/>
      <point x="166" y="58" type="curve" smooth="yes"/>
      <point x="260" y="229" type="line"/>
      <point x="350" y="61" type="line" smooth="yes"/>
      <point x="371" y="22"/>
      <point x="351" y="17"/>
      <point x="292" y="10" type="curve"/>
      <point x="292" y="0" type="line"/>
      <point x="517" y="0" type="line"/>
      <point x="517" y="10" type="line"/>
      <point x="454" y="16"/>
      <point x="417" y="19"/>
      <point x="394" y="62" type="curve" smooth="yes"/>
      <point x="288" y="261" type="line"/>
      <point x="388" y="436" type="line" smooth="yes"/>
      <point x="412" y="478"/>
      <point x="451" y="484"/>
      <point x="514" y="490" type="curve"/>
      <point x="514" y="500" type="line"/>
      <point x="316" y="500" type="line"/>
      <point x="316" y="490" type="line"/>
      <point x="372" y="484"/>
      <point x="394" y="477"/>
      <point x="375" y="444" type="curve" smooth="yes"/>
      <point x="280" y="276" type="line"/>
      <point x="192" y="441" type="line" smooth="yes"/>
      <point x="173" y="477"/>
      <point x="191" y="484"/>
      <point x="251" y="490" type="curve"/>
      <point x="251" y="500" type="line"/>
      <point x="26" y="500" type="line"/>
      <point x="26" y="490" type="line"/>
      <point x="88" y="483"/>
      <point x="127" y="480"/>
      <point x="149" y="438" type="curve" smooth="yes"/>
      <point x="252" y="244" type="line"/>
      <point x="151" y="63" type="line" smooth="yes"/>
      <point x="126" y="18"/>
      <point x="88" y="17"/>
      <point x="26" y="10" type="curve"/>
    </contour>
  </outline>
</glyph>
<glyph name="y" format="2">
  <advance width="559"/>
  <unicode hex="0079"/>
  <anchor x="280" y="0" name="bottom"/>
  <anchor x="280" y="500" name="top"/>
  <outline>
    <contour>
      <point x="128" y="-200" type="line"/>
      <point x="314" y="-200" type="line"/>
      <point x="314" y="-190" type="line"/>
      <point x="251" y="-184"/>
      <point x="232" y="-180"/>
      <point x="246" y="-138" type="curve" smooth="yes"/>
      <point x="451" y="440" type="line" smooth="yes"/>
      <point x="466" y="479"/>
      <point x="481" y="484"/>
      <point x="542" y="490" type="curve"/>
      <point x="542" y="500" type="line"/>
      <point x="366" y="500" type="line"/>
      <point x="366" y="490" type="line"/>
      <point x="426" y="482"/>
      <point x="447" y="479"/>
      <point x="433" y="436" type="curve" smooth="yes"/>
      <point x="312" y="94" type="line"/>
      <point x="157" y="441" type="line" smooth="yes"/>
      <point x="140" y="479"/>
      <point x="160" y="483"/>
      <point x="221" y="490" type="curve"/>
      <point x="221" y="500" type="line"/>
      <point x="17" y="500" type="line"/>
      <point x="17" y="490" type="line"/>
      <point x="79" y="483"/>
      <point x="95" y="479"/>
      <point x="115" y="438" type="curve" smooth="yes"/>
      <point x="293" y="39" type="line"/>
      <point x="229" y="-140" type="line" smooth="yes"/>
      <point x="214" y="-181"/>
      <point x="187" y="-182"/>
      <point x="128" y="-190" type="curve"/>
    </contour>
  </outline>
</glyph>
<glyph name="z" format="2">
  <advance width="522"/>
  <unicode hex="007A"/>
  <guideline x="478" y="412" angle="90"/>
  <anchor x="261" y="0" name="bottom"/>
  <anchor x="261" y="250" name="center"/>
  <anchor x="261" y="500" name="top"/>
  <outline>
    <contour>
      <point x="40" y="0" type="line"/>
      <point x="452" y="0" type="line"/>
      <point x="478" y="135" type="line"/>
      <point x="468" y="135" type="line"/>
      <point x="453" y="74"/>
      <point x="434" y="15"/>
      <point x="381" y="15" type="curve" smooth="yes"/>
      <point x="102" y="15" type="line"/>
      <point x="476" y="500" type="line"/>
      <point x="76" y="500" type="line"/>
      <point x="50" y="365" type="line"/>
      <point x="60" y="365" type="line"/>
      <point x="75" y="426"/>
      <point x="94" y="485"/>
      <point x="147" y="485" type="curve" smooth="yes"/>
      <point x="413" y="485" type="line"/>
    </contour>
  </outline>
</glyph>
<glyph name="braceleft" format="2">
  <advance width="329"/>
  <unicode hex="007B"/>
  <outline>
    <contour>
      <point x="28" y="257" type="line"/>
      <point x="122" y="257"/>
      <point x="167" y="213"/>
      <point x="167" y="160" type="curve" smooth="yes"/>
      <point x="167" y="100"/>
      <point x="100" y="32"/>
      <point x="100" y="-60" type="curve" smooth="yes"/>
      <point x="100" y="-176"/>
      <point x="188" y="-221"/>
      <point x="288" y="-221" type="curve" smooth="yes"/>
      <point x="329" y="-221" type="line"/>
      <point x="329" y="-206" type="line"/>
      <point x="290" y="-206" type="line" smooth="yes"/>
      <point x="196" y="-206"/>
      <point x="132" y="-169"/>
      <point x="132" y="-63" type="curve" smooth="yes"/>
      <point x="132" y="42"/>
      <point x="187" y="75"/>
      <point x="187" y="156" type="curve" smooth="yes"/>
      <point x="187" y="214"/>
      <point x="149" y="249"/>
      <point x="83" y="266" type="curve"/>
      <point x="149" y="283"/>
      <point x="187" y="318"/>
      <point x="187" y="376" type="curve" smooth="yes"/>
      <point x="187" y="457"/>
      <point x="132" y="491"/>
      <point x="132" y="596" type="curve" smooth="yes"/>
      <point x="132" y="702"/>
      <point x="196" y="738"/>
      <point x="290" y="738" type="curve" smooth="yes"/>
      <point x="329" y="738" type="line"/>
      <point x="329" y="753" type="line"/>
      <point x="288" y="753" type="line" smooth="yes"/>
      <point x="188" y="753"/>
      <point x="100" y="708"/>
      <point x="100" y="592" type="curve" smooth="yes"/>
      <point x="100" y="500"/>
      <point x="167" y="432"/>
      <point x="167" y="372" type="curve" smooth="yes"/>
      <point x="167" y="319"/>
      <point x="122" y="275"/>
      <point x="28" y="275" type="curve"/>
    </contour>
  </outline>
</glyph>
<glyph name="braceright" format="2">
  <advance width="329"/>
  <unicode hex="007D"/>
  <outline>
    <contour>
      <point x="301" y="257" type="curve"/>
      <point x="301" y="275" type="line"/>
      <point x="207" y="275"/>
      <point x="162" y="319"/>
      <point x="162" y="372" type="curve" smooth="yes"/>
      <point x="162" y="432"/>
      <point x="229" y="500"/>
      <point x="229" y="592" type="curve" smooth="yes"/>
      <point x="229" y="708"/>
      <point x="141" y="753"/>
      <point x="41" y="753" type="curve" smooth="yes"/>
      <point x="0" y="753" type="line"/>
      <point x="0" y="738" type="line"/>
      <point x="39" y="738" type="line" smooth="yes"/>
      <point x="133" y="738"/>
      <point x="197" y="703"/>
      <point x="197" y="597" type="curve" smooth="yes"/>
      <point x="197" y="492"/>
      <point x="142" y="457"/>
      <point x="142" y="376" type="curve" smooth="yes"/>
      <point x="142" y="318"/>
      <point x="180" y="283"/>
      <point x="246" y="266" type="curve"/>
      <point x="180" y="249"/>
      <point x="142" y="214"/>
      <point x="142" y="156" type="curve" smooth="yes"/>
      <point x="142" y="75"/>
      <point x="197" y="42"/>
      <point x="197" y="-63" type="curve" smooth="yes"/>
      <point x="197" y="-169"/>
      <point x="133" y="-206"/>
      <point x="39" y="-206" type="curve" smooth="yes"/>
      <point x="0" y="-206" type="line"/>
      <point x="0" y="-221" type="line"/>
      <point x="41" y="-221" type="line" smooth="yes"/>
      <point x="141" y="-221"/>
      <point x="229" y="-176"/>
      <point x="229" y="-60" type="curve" smooth="yes"/>
      <point x="229" y="32"/>
      <point x="162" y="100"/>
      <point x="162" y="160" type="curve" smooth="yes"/>
      <point x="162" y="213"/>
      <point x="207" y="257"/>
    </contour>
  </outline>
</glyph>
<glyph name="asciitilde" format="2">
  <advance width="600"/>
  <unicode hex="007E"/>
  <outline>
    <contour>
      <point x="179" y="306" type="curve" smooth="yes"/>
      <point x="269" y="306"/>
      <point x="335" y="190"/>
      <point x="424" y="190" type="curve" smooth="yes"/>
      <point x="489" y="190"/>
      <point x="523" y="237"/>
      <point x="523" y="326" type="curve"/>
      <point x="508" y="326" type="line"/>
      <point x="508" y="250"/>
      <point x="481" y="210"/>
      <point x="430" y="210" type="curve" smooth="yes"/>
      <point x="343" y="210"/>
      <point x="282" y="326"/>
      <point x="186" y="326" type="curve" smooth="yes"/>
      <point x="116" y="326"/>
      <point x="80" y="279"/>
      <point x="80" y="190" type="curve"/>
      <point x="95" y="190" type="line"/>
      <point x="95" y="266"/>
      <point x="124" y="306"/>
    </contour>
  </outline>
</glyph>
<glyph name="sterling" format="2">
  <advance width="607"/>
  <unicode hex="00A3"/>
  <outline>
    <contour>
      <point x="63" y="0" type="line"/>
      <point x="290" y="123"/>
      <point x="295" y="194"/>
      <point x="295" y="251" type="curve" smooth="yes"/>
      <point x="295" y="385"/>
      <point x="136" y="412"/>
      <point x="136" y="559" type="curve" smooth="yes"/>
      <point x="136" y="655"/>
      <point x="213" y="700"/>
      <point x="284" y="700" type="curve" smooth="yes"/>
      <point x="381" y="700"/>
      <point x="472" y="616"/>
      <point x="495" y="470" type="curve"/>
      <point x="505" y="470" type="line"/>
      <point x="484" y="637" type="line"/>
      <point x="453" y="679"/>
      <point x="383" y="715"/>
      <point x="290" y="715" type="curve" smooth="yes"/>
      <point x="181" y="715"/>
      <point x="91" y="642"/>
      <point x="91" y="553" type="curve" smooth="yes"/>
      <point x="91" y="389"/>
      <point x="260" y="364"/>
      <point x="260" y="235" type="curve" smooth="yes"/>
      <point x="260" y="157"/>
      <point x="235" y="122"/>
      <point x="63" y="15" type="curve"/>
    </contour>
    <contour>
      <point x="63" y="0" type="line"/>
      <point x="555" y="0" type="line"/>
      <point x="555" y="92" type="line"/>
      <point x="545" y="92" type="line"/>
      <point x="545" y="52"/>
      <point x="526" y="40"/>
      <point x="479" y="40" type="curve"/>
      <point x="123" y="40" type="line"/>
    </contour>
    <contour>
      <point x="63" y="265" type="line"/>
      <point x="526" y="265" type="line"/>
      <point x="526" y="280" type="line"/>
      <point x="63" y="279" type="line"/>
    </contour>
    <contour>
      <point x="63" y="399" type="line"/>
      <point x="526" y="399" type="line"/>
      <point x="526" y="414" type="line"/>
      <point x="63" y="414" type="line"/>
    </contour>
  </outline>
</glyph>
<glyph name="currency" format="2">
  <advance width="493"/>
  <unicode hex="00A4"/>
  <outline>
    <contour>
      <point x="247" y="230" type="curve" smooth="yes"/>
      <point x="338" y="230"/>
      <point x="412" y="304"/>
      <point x="412" y="395" type="curve" smooth="yes"/>
      <point x="412" y="485"/>
      <point x="338" y="559"/>
      <point x="247" y="559" type="curve" smooth="yes"/>
      <point x="157" y="559"/>
      <point x="83" y="485"/>
      <point x="83" y="395" type="curve" smooth="yes"/>
      <point x="83" y="304"/>
      <point x="157" y="230"/>
    </contour>
    <contour>
      <point x="247" y="249" type="curve" smooth="yes"/>
      <point x="167" y="249"/>
      <point x="101" y="315"/>
      <point x="101" y="395" type="curve" smooth="yes"/>
      <point x="101" y="475"/>
      <point x="167" y="541"/>
      <point x="247" y="541" type="curve" smooth="yes"/>
      <point x="327" y="541"/>
      <point x="393" y="475"/>
      <point x="393" y="395" type="curve" smooth="yes"/>
      <point x="393" y="315"/>
      <point x="327" y="249"/>
    </contour>
    <contour>
      <point x="88" y="558" type="line"/>
      <point x="74" y="545" type="line"/>
      <point x="131" y="489" type="line"/>
      <point x="144" y="501" type="line"/>
    </contour>
    <contour>
      <point x="405" y="558" type="line"/>
      <point x="349" y="501" type="line"/>
      <point x="362" y="489" type="line"/>
      <point x="419" y="545" type="line"/>
    </contour>
    <contour>
      <point x="88" y="231" type="line"/>
      <point x="144" y="288" type="line"/>
      <point x="131" y="300" type="line"/>
      <point x="74" y="244" type="line"/>
    </contour>
    <contour>
      <point x="405" y="231" type="line"/>
      <point x="419" y="244" type="line"/>
      <point x="362" y="300" type="line"/>
      <point x="349" y="288" type="line"/>
    </contour>
  </outline>
</glyph>
<glyph name="yen" format="2">
  <advance width="709"/>
  <unicode hex="00A5"/>
  <outline>
    <contour>
      <point x="234" y="0" type="line"/>
      <point x="479" y="0" type="line"/>
      <point x="479" y="10" type="line"/>
      <point x="405" y="17"/>
      <point x="380" y="21"/>
      <point x="379" y="69" type="curve"/>
      <point x="379" y="309" type="line"/>
      <point x="535" y="636" type="line" smooth="yes"/>
      <point x="555" y="678"/>
      <point x="592" y="683"/>
      <point x="665" y="690" type="curve"/>
      <point x="665" y="700" type="line"/>
      <point x="448" y="700" type="line"/>
      <point x="448" y="690" type="line"/>
      <point x="507" y="684"/>
      <point x="537" y="676"/>
      <point x="522" y="644" type="curve" smooth="yes"/>
      <point x="373" y="332" type="line"/>
      <point x="234" y="637" type="line" smooth="yes"/>
      <point x="216" y="677"/>
      <point x="243" y="683"/>
      <point x="306" y="690" type="curve"/>
      <point x="306" y="700" type="line"/>
      <point x="58" y="700" type="line"/>
      <point x="58" y="690" type="line"/>
      <point x="126" y="684"/>
      <point x="168" y="678"/>
      <point x="184" y="643" type="curve" smooth="yes"/>
      <point x="334" y="309" type="line"/>
      <point x="334" y="69" type="line" smooth="yes"/>
      <point x="334" y="21"/>
      <point x="299" y="17"/>
      <point x="234" y="10" type="curve"/>
    </contour>
    <contour>
      <point x="123" y="134" type="line"/>
      <point x="596" y="134" type="line"/>
      <point x="596" y="149" type="line"/>
      <point x="123" y="148" type="line"/>
    </contour>
    <contour>
      <point x="123" y="301" type="line"/>
      <point x="596" y="301" type="line"/>
      <point x="596" y="316" type="line"/>
      <point x="123" y="316" type="line"/>
    </contour>
  </outline>
</glyph>
<glyph name="brokenbar" format="2">
  <advance width="368"/>
  <unicode hex="00A6"/>
  <guideline x="183" y="236" angle="0"/>
  <guideline x="186" y="356" angle="0"/>
  <outline>
    <contour>
      <point x="193" y="226" type="line"/>
      <point x="175" y="226" type="line"/>
      <point x="175" y="-120" type="line"/>
      <point x="193" y="-120" type="line"/>
    </contour>
    <contour>
      <point x="175" y="366" type="line"/>
      <point x="193" y="366" type="line"/>
      <point x="193" y="715" type="line"/>
      <point x="175" y="715" type="line"/>
    </contour>
  </outline>
</glyph>
<glyph name="section" format="2">
  <advance width="468"/>
  <unicode hex="00A7"/>
  <outline>
    <contour>
      <point x="78" y="570" type="curve" smooth="yes"/>
      <point x="78" y="489"/>
      <point x="142" y="447"/>
      <point x="211" y="407" type="curve"/>
      <point x="126" y="375"/>
      <point x="68" y="320"/>
      <point x="68" y="239" type="curve" smooth="yes"/>
      <point x="68" y="67"/>
      <point x="356" y="68"/>
      <point x="356" y="-100" type="curve" smooth="yes"/>
      <point x="356" y="-142"/>
      <point x="334" y="-200"/>
      <point x="248" y="-200" type="curve" smooth="yes"/>
      <point x="163" y="-200"/>
      <point x="99" y="-132"/>
      <point x="84" y="54" type="curve"/>
      <point x="74" y="54" type="line"/>
      <point x="86" y="-135" type="line"/>
      <point x="118" y="-187"/>
      <point x="174" y="-215"/>
      <point x="250" y="-215" type="curve" smooth="yes"/>
      <point x="336" y="-215"/>
      <point x="382" y="-153"/>
      <point x="382" y="-81" type="curve" smooth="yes"/>
      <point x="382" y="7"/>
      <point x="324" y="53"/>
      <point x="261" y="92" type="curve"/>
      <point x="362" y="124"/>
      <point x="402" y="182"/>
      <point x="402" y="250" type="curve" smooth="yes"/>
      <point x="402" y="444"/>
      <point x="105" y="435"/>
      <point x="105" y="592" type="curve" smooth="yes"/>
      <point x="105" y="647"/>
      <point x="147" y="700"/>
      <point x="216" y="700" type="curve" smooth="yes"/>
      <point x="309" y="700"/>
      <point x="339" y="654"/>
      <point x="369" y="522" type="curve"/>
      <point x="379" y="522" type="line"/>
      <point x="362" y="669" type="line"/>
      <point x="334" y="698"/>
      <point x="300" y="715"/>
      <point x="231" y="715" type="curve" smooth="yes"/>
      <point x="136" y="715"/>
      <point x="78" y="657"/>
    </contour>
    <contour>
      <point x="100" y="261" type="curve" smooth="yes"/>
      <point x="100" y="315"/>
      <point x="140" y="368"/>
      <point x="227" y="398" type="curve"/>
      <point x="299" y="356"/>
      <point x="371" y="314"/>
      <point x="371" y="231" type="curve" smooth="yes"/>
      <point x="371" y="191"/>
      <point x="346" y="135"/>
      <point x="242" y="103" type="curve"/>
      <point x="171" y="145"/>
      <point x="100" y="182"/>
    </contour>
  </outline>
</glyph>
<glyph name="copyright" format="2">
  <advance width="789"/>
  <unicode hex="00A9"/>
  <outline>
    <contour>
      <point x="395" y="-13" type="curve" smooth="yes"/>
      <point x="596" y="-13"/>
      <point x="759" y="150"/>
      <point x="759" y="352" type="curve" smooth="yes"/>
      <point x="759" y="553"/>
      <point x="596" y="716"/>
      <point x="395" y="716" type="curve" smooth="yes"/>
      <point x="193" y="716"/>
      <point x="30" y="553"/>
      <point x="30" y="352" type="curve" smooth="yes"/>
      <point x="30" y="150"/>
      <point x="193" y="-13"/>
    </contour>
    <contour>
      <point x="395" y="5" type="curve" smooth="yes"/>
      <point x="203" y="5"/>
      <point x="50" y="160"/>
      <point x="50" y="352" type="curve" smooth="yes"/>
      <point x="50" y="543"/>
      <point x="203" y="698"/>
      <point x="395" y="698" type="curve" smooth="yes"/>
      <point x="586" y="698"/>
      <point x="739" y="543"/>
      <point x="739" y="352" type="curve" smooth="yes"/>
      <point x="739" y="160"/>
      <point x="586" y="5"/>
    </contour>
    <contour>
      <point x="409" y="111" type="curve" smooth="yes"/>
      <point x="503" y="111"/>
      <point x="543" y="162"/>
      <point x="569" y="240" type="curve"/>
      <point x="556" y="245" type="line"/>
      <point x="530" y="159"/>
      <point x="480" y="125"/>
      <point x="416" y="125" type="curve" smooth="yes"/>
      <point x="330" y="125"/>
      <point x="247" y="198"/>
      <point x="247" y="348" type="curve" smooth="yes"/>
      <point x="247" y="505"/>
      <point x="330" y="579"/>
      <point x="411" y="579" type="curve" smooth="yes"/>
      <point x="475" y="579"/>
      <point x="515" y="539"/>
      <point x="555" y="409" type="curve"/>
      <point x="564" y="409" type="line"/>
      <point x="541" y="551" type="line"/>
      <point x="508" y="577"/>
      <point x="452" y="592"/>
      <point x="409" y="593" type="curve" smooth="yes"/>
      <point x="292" y="595"/>
      <point x="206" y="499"/>
      <point x="206" y="348" type="curve" smooth="yes"/>
      <point x="206" y="197"/>
      <point x="292" y="111"/>
    </contour>
  </outline>
</glyph>
<glyph name="guillemetleft" format="2">
  <advance width="440"/>
  <unicode hex="00AB"/>
  <outline>
    <contour>
      <point x="212" y="421" type="line"/>
      <point x="40" y="261" type="line"/>
      <point x="212" y="101" type="line"/>
      <point x="218" y="107" type="line"/>
      <point x="82" y="261" type="line"/>
      <point x="218" y="415" type="line"/>
    </contour>
    <contour>
      <point x="354" y="391" type="line"/>
      <point x="192" y="261" type="line"/>
      <point x="354" y="131" type="line"/>
      <point x="360" y="137" type="line"/>
      <point x="234" y="261" type="line"/>
      <point x="360" y="385" type="line"/>
    </contour>
  </outline>
</glyph>
<glyph name="logicalnot" format="2">
  <advance width="600"/>
  <unicode hex="00AC"/>
  <outline>
    <contour>
      <point x="80" y="271" type="line"/>
      <point x="80" y="251" type="line"/>
      <point x="538" y="251" type="line"/>
      <point x="538" y="0" type="line"/>
      <point x="553" y="0" type="line"/>
      <point x="553" y="271" type="line"/>
    </contour>
  </outline>
</glyph>
<glyph name="registered" format="2">
  <advance width="829"/>
  <unicode hex="00AE"/>
  <outline>
    <contour>
      <point x="415" y="-13" type="curve" smooth="yes"/>
      <point x="616" y="-13"/>
      <point x="779" y="150"/>
      <point x="779" y="352" type="curve" smooth="yes"/>
      <point x="779" y="553"/>
      <point x="616" y="716"/>
      <point x="415" y="716" type="curve" smooth="yes"/>
      <point x="213" y="716"/>
      <point x="50" y="553"/>
      <point x="50" y="352" type="curve" smooth="yes"/>
      <point x="50" y="150"/>
      <point x="213" y="-13"/>
    </contour>
    <contour>
      <point x="415" y="5" type="curve" smooth="yes"/>
      <point x="223" y="5"/>
      <point x="70" y="160"/>
      <point x="70" y="352" type="curve" smooth="yes"/>
      <point x="70" y="543"/>
      <point x="223" y="698"/>
      <point x="415" y="698" type="curve" smooth="yes"/>
      <point x="606" y="698"/>
      <point x="759" y="543"/>
      <point x="759" y="352" type="curve" smooth="yes"/>
      <point x="759" y="160"/>
      <point x="606" y="5"/>
    </contour>
    <contour>
      <point x="545" y="171" type="curve" smooth="yes"/>
      <point x="506" y="270"/>
      <point x="570" y="421"/>
      <point x="467" y="445" type="curve"/>
      <point x="520" y="453"/>
      <point x="546" y="483"/>
      <point x="546" y="514" type="curve" smooth="yes"/>
      <point x="546" y="550"/>
      <point x="509" y="586"/>
      <point x="436" y="586" type="curve" smooth="yes"/>
      <point x="241" y="586" type="line"/>
      <point x="241" y="579" type="line"/>
      <point x="292" y="575"/>
      <point x="308" y="572"/>
      <point x="308" y="540" type="curve" smooth="yes"/>
      <point x="308" y="165" type="line" smooth="yes"/>
      <point x="308" y="133"/>
      <point x="291" y="131"/>
      <point x="241" y="126" type="curve"/>
      <point x="241" y="119" type="line"/>
      <point x="405" y="119" type="line"/>
      <point x="405" y="126" type="line"/>
      <point x="361" y="131"/>
      <point x="338" y="133"/>
      <point x="338" y="165" type="curve" smooth="yes"/>
      <point x="338" y="440" type="line"/>
      <point x="424" y="440" type="line" smooth="yes"/>
      <point x="543" y="440"/>
      <point x="475" y="262"/>
      <point x="517" y="165" type="curve" smooth="yes"/>
      <point x="537" y="119"/>
      <point x="556" y="117"/>
      <point x="593" y="117" type="curve" smooth="yes"/>
      <point x="602" y="117" type="line"/>
      <point x="602" y="124" type="line"/>
      <point x="567" y="124"/>
      <point x="556" y="143"/>
    </contour>
    <contour>
      <point x="416" y="453" type="curve" smooth="yes"/>
      <point x="338" y="453" type="line"/>
      <point x="338" y="573" type="line"/>
      <point x="409" y="573" type="line" smooth="yes"/>
      <point x="485" y="573"/>
      <point x="515" y="543"/>
      <point x="515" y="512" type="curve" smooth="yes"/>
      <point x="515" y="482"/>
      <point x="485" y="453"/>
    </contour>
  </outline>
</glyph>
<glyph name="degree" format="2">
  <advance width="261"/>
  <unicode hex="00B0"/>
  <outline>
    <contour>
      <point x="127" y="542" type="curve" smooth="yes"/>
      <point x="183" y="542"/>
      <point x="229" y="588"/>
      <point x="229" y="644" type="curve" smooth="yes"/>
      <point x="229" y="700"/>
      <point x="183" y="746"/>
      <point x="127" y="746" type="curve" smooth="yes"/>
      <point x="71" y="746"/>
      <point x="25" y="700"/>
      <point x="25" y="644" type="curve" smooth="yes"/>
      <point x="25" y="588"/>
      <point x="71" y="542"/>
    </contour>
    <contour>
      <point x="127" y="559" type="curve" smooth="yes"/>
      <point x="80" y="559"/>
      <point x="45" y="597"/>
      <point x="45" y="644" type="curve" smooth="yes"/>
      <point x="45" y="691"/>
      <point x="80" y="729"/>
      <point x="127" y="729" type="curve" smooth="yes"/>
      <point x="174" y="729"/>
      <point x="209" y="691"/>
      <point x="209" y="644" type="curve" smooth="yes"/>
      <point x="209" y="597"/>
      <point x="174" y="559"/>
    </contour>
  </outline>
</glyph>
<glyph name="plusminus" format="2">
  <advance width="653"/>
  <unicode hex="00B1"/>
  <outline>
    <contour>
      <point x="90" y="291" type="line"/>
      <point x="90" y="271" type="line"/>
      <point x="563" y="271" type="line"/>
      <point x="563" y="291" type="line"/>
    </contour>
    <contour>
      <point x="319" y="70" type="line"/>
      <point x="334" y="70" type="line"/>
      <point x="334" y="492" type="line"/>
      <point x="319" y="492" type="line"/>
    </contour>
    <contour>
      <point x="90" y="20" type="line"/>
      <point x="90" y="0" type="line"/>
      <point x="563" y="0" type="line"/>
      <point x="563" y="20" type="line"/>
    </contour>
  </outline>
</glyph>
<glyph name="paragraph" format="2">
  <advance width="620"/>
  <unicode hex="00B6"/>
  <outline>
    <contour>
      <point x="459" y="700" type="line"/>
      <point x="459" y="-105" type="line"/>
      <point x="477" y="-105" type="line"/>
      <point x="477" y="700" type="line"/>
    </contour>
    <contour>
      <point x="329" y="700" type="line"/>
      <point x="329" y="-105" type="line"/>
      <point x="347" y="-105" type="line"/>
      <point x="347" y="700" type="line"/>
    </contour>
    <contour>
      <point x="276" y="682" type="line"/>
      <point x="461" y="682" type="line"/>
      <point x="461" y="700" type="line"/>
      <point x="276" y="700" type="line"/>
    </contour>
    <contour>
      <point x="339" y="393" type="curve"/>
      <point x="339" y="700" type="line"/>
      <point x="339" y="700"/>
      <point x="279" y="700"/>
      <point x="278" y="700" type="curve" smooth="yes"/>
      <point x="168" y="700"/>
      <point x="81" y="647"/>
      <point x="81" y="548" type="curve" smooth="yes"/>
      <point x="81" y="448"/>
      <point x="168" y="393"/>
      <point x="278" y="393" type="curve" smooth="yes"/>
      <point x="279" y="393"/>
      <point x="339" y="393"/>
    </contour>
    <contour>
      <point x="477" y="631" type="line"/>
      <point x="477" y="679"/>
      <point x="501" y="683"/>
      <point x="577" y="690" type="curve"/>
      <point x="577" y="700" type="line"/>
      <point x="477" y="700" type="line"/>
    </contour>
  </outline>
</glyph>
<glyph name="guillemetright" format="2">
  <advance width="440"/>
  <unicode hex="00BB"/>
  <outline>
    <contour>
      <point x="228" y="421" type="line"/>
      <point x="222" y="415" type="line"/>
      <point x="358" y="261" type="line"/>
      <point x="222" y="107" type="line"/>
      <point x="228" y="101" type="line"/>
      <point x="400" y="261" type="line"/>
    </contour>
    <contour>
      <point x="86" y="391" type="line"/>
      <point x="80" y="385" type="line"/>
      <point x="206" y="261" type="line"/>
      <point x="80" y="137" type="line"/>
      <point x="86" y="131" type="line"/>
      <point x="248" y="261" type="line"/>
    </contour>
  </outline>
</glyph>
<glyph name="onequarter" format="2">
  <advance width="615"/>
  <unicode hex="00BC"/>
  <outline>
    <contour>
      <point x="179" y="390" type="curve" smooth="yes"/>
      <point x="179" y="700" type="line"/>
      <point x="155" y="700" type="line"/>
      <point x="148" y="639"/>
      <point x="92" y="619"/>
      <point x="70" y="619" type="curve"/>
      <point x="70" y="607" type="line"/>
      <point x="91" y="608"/>
      <point x="122" y="616"/>
      <point x="137" y="627" type="curve"/>
      <point x="137" y="390" type="line" smooth="yes"/>
      <point x="137" y="366"/>
      <point x="119" y="359"/>
      <point x="87" y="355" type="curve"/>
      <point x="87" y="350" type="line"/>
      <point x="229" y="350" type="line"/>
      <point x="229" y="355" type="line"/>
      <point x="196" y="359"/>
      <point x="179" y="367"/>
    </contour>
    <contour>
      <point x="515" y="40" type="curve" smooth="yes"/>
      <point x="515" y="141" type="line"/>
      <point x="558" y="141" type="line"/>
      <point x="558" y="203" type="line"/>
      <point x="553" y="203" type="line"/>
      <point x="553" y="184"/>
      <point x="545" y="177"/>
      <point x="522" y="177" type="curve"/>
      <point x="515" y="177" type="line"/>
      <point x="515" y="350" type="line"/>
      <point x="473" y="350" type="line"/>
      <point x="367" y="177" type="line"/>
      <point x="367" y="141" type="line"/>
      <point x="473" y="141" type="line"/>
      <point x="473" y="40" type="line" smooth="yes"/>
      <point x="473" y="18"/>
      <point x="457" y="9"/>
      <point x="423" y="5" type="curve"/>
      <point x="423" y="0" type="line"/>
      <point x="565" y="0" type="line"/>
      <point x="565" y="5" type="line"/>
      <point x="533" y="9"/>
      <point x="515" y="16"/>
    </contour>
    <contour>
      <point x="383" y="177" type="line"/>
      <point x="473" y="326" type="line"/>
      <point x="473" y="177" type="line"/>
    </contour>
    <component base="fraction" xOffset="112"/>
  </outline>
</glyph>
<glyph name="onehalf" format="2">
  <advance width="637"/>
  <unicode hex="00BD"/>
  <outline>
    <contour>
      <point x="179" y="390" type="curve" smooth="yes"/>
      <point x="179" y="700" type="line"/>
      <point x="155" y="700" type="line"/>
      <point x="148" y="639"/>
      <point x="92" y="619"/>
      <point x="70" y="619" type="curve"/>
      <point x="70" y="607" type="line"/>
      <point x="91" y="608"/>
      <point x="122" y="616"/>
      <point x="137" y="627" type="curve"/>
      <point x="137" y="390" type="line" smooth="yes"/>
      <point x="137" y="366"/>
      <point x="119" y="359"/>
      <point x="87" y="355" type="curve"/>
      <point x="87" y="350" type="line"/>
      <point x="229" y="350" type="line"/>
      <point x="229" y="355" type="line"/>
      <point x="196" y="359"/>
      <point x="179" y="367"/>
    </contour>
    <contour>
      <point x="524" y="-16" type="curve" smooth="yes"/>
      <point x="562" y="-16"/>
      <point x="576" y="6"/>
      <point x="576" y="73" type="curve"/>
      <point x="564" y="73" type="line"/>
      <point x="564" y="39"/>
      <point x="559" y="20"/>
      <point x="535" y="20" type="curve" smooth="yes"/>
      <point x="502" y="20"/>
      <point x="457" y="74"/>
      <point x="428" y="69" type="curve"/>
      <point x="500" y="152"/>
      <point x="577" y="142"/>
      <point x="577" y="251" type="curve" smooth="yes"/>
      <point x="577" y="312"/>
      <point x="536" y="349"/>
      <point x="478" y="349" type="curve" smooth="yes"/>
      <point x="453" y="349"/>
      <point x="425" y="342"/>
      <point x="395" y="327" type="curve"/>
      <point x="385" y="244" type="line"/>
      <point x="390" y="244" type="line"/>
      <point x="409" y="306"/>
      <point x="442" y="338"/>
      <point x="477" y="338" type="curve" smooth="yes"/>
      <point x="509" y="338"/>
      <point x="535" y="308"/>
      <point x="535" y="245" type="curve" smooth="yes"/>
      <point x="535" y="148"/>
      <point x="470" y="155"/>
      <point x="413" y="68" type="curve" smooth="yes"/>
      <point x="397" y="44"/>
      <point x="384" y="15"/>
      <point x="380" y="-8" type="curve"/>
      <point x="391" y="-8" type="line"/>
      <point x="396" y="12"/>
      <point x="399" y="21"/>
      <point x="404" y="28" type="curve" smooth="yes"/>
      <point x="408" y="33"/>
      <point x="412" y="35"/>
      <point x="417" y="35" type="curve" smooth="yes"/>
      <point x="444" y="35"/>
      <point x="481" y="-16"/>
    </contour>
    <component base="fraction" xOffset="102"/>
  </outline>
</glyph>
<glyph name="threequarters" format="2">
  <advance width="614"/>
  <unicode hex="00BE"/>
  <outline>
    <contour>
      <point x="139" y="352" type="curve" smooth="yes"/>
      <point x="203" y="352"/>
      <point x="254" y="387"/>
      <point x="254" y="457" type="curve" smooth="yes"/>
      <point x="254" y="499"/>
      <point x="231" y="539"/>
      <point x="181" y="556" type="curve"/>
      <point x="226" y="572"/>
      <point x="251" y="603"/>
      <point x="251" y="637" type="curve" smooth="yes"/>
      <point x="251" y="678"/>
      <point x="213" y="713"/>
      <point x="150" y="713" type="curve" smooth="yes"/>
      <point x="123" y="713"/>
      <point x="97" y="705"/>
      <point x="75" y="689" type="curve"/>
      <point x="64" y="606" type="line"/>
      <point x="69" y="606" type="line"/>
      <point x="84" y="669"/>
      <point x="109" y="701"/>
      <point x="148" y="701" type="curve" smooth="yes"/>
      <point x="186" y="701"/>
      <point x="208" y="667"/>
      <point x="208" y="631" type="curve" smooth="yes"/>
      <point x="208" y="594"/>
      <point x="187" y="562"/>
      <point x="147" y="562" type="curve" smooth="yes"/>
      <point x="119" y="562" type="line"/>
      <point x="114" y="550" type="line"/>
      <point x="144" y="550" type="line" smooth="yes"/>
      <point x="188" y="550"/>
      <point x="210" y="505"/>
      <point x="210" y="458" type="curve" smooth="yes"/>
      <point x="210" y="395"/>
      <point x="175" y="362"/>
      <point x="137" y="362" type="curve" smooth="yes"/>
      <point x="101" y="362"/>
      <point x="63" y="387"/>
      <point x="45" y="445" type="curve"/>
      <point x="40" y="445" type="line"/>
      <point x="53" y="371" type="line"/>
      <point x="82" y="358"/>
      <point x="113" y="352"/>
    </contour>
    <contour>
      <point x="514" y="40" type="curve" smooth="yes"/>
      <point x="514" y="141" type="line"/>
      <point x="557" y="141" type="line"/>
      <point x="557" y="203" type="line"/>
      <point x="552" y="203" type="line"/>
      <point x="552" y="184"/>
      <point x="544" y="177"/>
      <point x="521" y="177" type="curve"/>
      <point x="514" y="177" type="line"/>
      <point x="514" y="350" type="line"/>
      <point x="472" y="350" type="line"/>
      <point x="366" y="177" type="line"/>
      <point x="366" y="141" type="line"/>
      <point x="472" y="141" type="line"/>
      <point x="472" y="40" type="line" smooth="yes"/>
      <point x="472" y="18"/>
      <point x="456" y="9"/>
      <point x="422" y="5" type="curve"/>
      <point x="422" y="0" type="line"/>
      <point x="564" y="0" type="line"/>
      <point x="564" y="5" type="line"/>
      <point x="531" y="9"/>
      <point x="514" y="17"/>
    </contour>
    <contour>
      <point x="382" y="177" type="line"/>
      <point x="472" y="326" type="line"/>
      <point x="472" y="177" type="line"/>
    </contour>
    <component base="fraction" xOffset="102"/>
  </outline>
</glyph>
<glyph name="AE" format="2">
  <advance width="935"/>
  <unicode hex="00C6"/>
  <anchor x="468" y="0" name="bottom"/>
  <anchor x="468" y="700" name="top"/>
  <outline>
    <contour>
      <point x="379" y="0" type="line"/>
      <point x="841" y="0" type="line"/>
      <point x="841" y="214" type="line"/>
      <point x="831" y="214" type="line"/>
      <point x="825" y="76"/>
      <point x="805" y="23"/>
      <point x="714" y="15" type="curve"/>
      <point x="524" y="15" type="line"/>
      <point x="524" y="685" type="line"/>
      <point x="688" y="685" type="line" smooth="yes"/>
      <point x="801" y="685"/>
      <point x="824" y="635"/>
      <point x="831" y="485" type="curve"/>
      <point x="841" y="485" type="line"/>
      <point x="841" y="700" type="line"/>
      <point x="379" y="700" type="line"/>
      <point x="379" y="690" type="line"/>
      <point x="445" y="683"/>
      <point x="479" y="679"/>
      <point x="479" y="631" type="curve" smooth="yes"/>
      <point x="479" y="69" type="line" smooth="yes"/>
      <point x="479" y="21"/>
      <point x="444" y="17"/>
      <point x="379" y="10" type="curve"/>
    </contour>
    <contour>
      <point x="38" y="0" type="line"/>
      <point x="256" y="0" type="line"/>
      <point x="256" y="10" type="line"/>
      <point x="184" y="17"/>
      <point x="152" y="24"/>
      <point x="173" y="64" type="curve" smooth="yes"/>
      <point x="482" y="653" type="line"/>
      <point x="482" y="686" type="line"/>
      <point x="155" y="63" type="line" smooth="yes"/>
      <point x="133" y="22"/>
      <point x="100" y="17"/>
      <point x="38" y="10" type="curve"/>
    </contour>
    <contour>
      <point x="768" y="177" type="curve"/>
      <point x="778" y="180" type="line"/>
      <point x="673" y="490" type="line"/>
      <point x="663" y="487" type="line"/>
      <point x="690" y="370"/>
      <point x="673" y="370"/>
      <point x="533" y="370" type="curve" smooth="yes"/>
      <point x="322" y="370" type="line"/>
      <point x="318" y="355" type="line"/>
      <point x="533" y="355" type="line" smooth="yes"/>
      <point x="674" y="355"/>
      <point x="699" y="348"/>
    </contour>
  </outline>
</glyph>
<glyph name="Eth" format="2">
  <advance width="712"/>
  <unicode hex="00D0"/>
  <guideline x="674" y="350" angle="0"/>
  <outline>
    <contour>
      <point x="30" y="358" type="line"/>
      <point x="30" y="342" type="line"/>
      <point x="342" y="342" type="line"/>
      <point x="342" y="358" type="line"/>
    </contour>
    <component base="D"/>
  </outline>
</glyph>
<glyph name="multiply" format="2">
  <advance width="655"/>
  <unicode hex="00D7"/>
  <outline>
    <contour>
      <point x="110" y="489" type="line"/>
      <point x="96" y="475" type="line"/>
      <point x="554" y="15" type="line"/>
      <point x="568" y="29" type="line"/>
    </contour>
    <contour>
      <point x="91" y="26" type="line"/>
      <point x="101" y="15" type="line"/>
      <point x="564" y="478" type="line"/>
      <point x="554" y="489" type="line"/>
    </contour>
  </outline>
</glyph>
<glyph name="Oslash" format="2">
  <advance width="699"/>
  <unicode hex="00D8"/>
  <anchor x="350" y="0" name="bottom"/>
  <anchor x="350" y="700" name="top"/>
  <outline>
    <contour>
      <point x="551" y="766" type="line"/>
      <point x="135" y="-58" type="line"/>
      <point x="156" y="-58" type="line"/>
      <point x="570" y="764" type="line"/>
    </contour>
    <component base="O"/>
  </outline>
</glyph>
<glyph name="Thorn" format="2">
  <advance width="628"/>
  <unicode hex="00DE"/>
  <anchor x="314" y="0" name="bottom"/>
  <anchor x="314" y="700" name="top"/>
  <outline>
    <contour>
      <point x="189" y="68" type="curve"/>
      <point x="189" y="630" type="line"/>
      <point x="189" y="678"/>
      <point x="223" y="682"/>
      <point x="289" y="689" type="curve"/>
      <point x="289" y="699" type="line"/>
      <point x="44" y="699" type="line"/>
      <point x="44" y="689" type="line"/>
      <point x="120" y="682"/>
      <point x="144" y="678"/>
      <point x="144" y="630" type="curve" smooth="yes"/>
      <point x="144" y="68" type="line" smooth="yes"/>
      <point x="144" y="20"/>
      <point x="119" y="16"/>
      <point x="44" y="9" type="curve"/>
      <point x="44" y="-1" type="line"/>
      <point x="289" y="-1" type="line"/>
      <point x="289" y="9" type="line"/>
      <point x="224" y="16"/>
      <point x="189" y="20"/>
    </contour>
    <contour>
      <point x="148" y="139" type="line"/>
      <point x="301" y="139" type="line" smooth="yes"/>
      <point x="495" y="139"/>
      <point x="573" y="244"/>
      <point x="573" y="356" type="curve" smooth="yes"/>
      <point x="573" y="468"/>
      <point x="492" y="569"/>
      <point x="301" y="569" type="curve" smooth="yes"/>
      <point x="148" y="569" type="line"/>
      <point x="148" y="554" type="line"/>
      <point x="268" y="554" type="line" smooth="yes"/>
      <point x="452" y="554"/>
      <point x="528" y="468"/>
      <point x="528" y="354" type="curve" smooth="yes"/>
      <point x="528" y="240"/>
      <point x="452" y="154"/>
      <point x="268" y="154" type="curve" smooth="yes"/>
      <point x="148" y="154" type="line"/>
    </contour>
  </outline>
</glyph>
<glyph name="germandbls" format="2">
  <advance width="600"/>
  <unicode hex="00DF"/>
  <outline>
    <contour>
      <point x="32" y="0" type="line"/>
      <point x="162" y="0" type="line"/>
      <point x="162" y="500" type="line"/>
      <point x="155" y="518"/>
      <point x="151" y="549"/>
      <point x="151" y="579" type="curve" smooth="yes"/>
      <point x="151" y="658"/>
      <point x="189" y="700"/>
      <point x="262" y="700" type="curve" smooth="yes"/>
      <point x="332" y="700"/>
      <point x="369" y="650"/>
      <point x="369" y="575" type="curve" smooth="yes"/>
      <point x="369" y="460"/>
      <point x="263" y="472"/>
      <point x="263" y="370" type="curve" smooth="yes"/>
      <point x="263" y="301"/>
      <point x="316" y="258"/>
      <point x="399" y="234" type="curve" smooth="yes"/>
      <point x="491" y="208"/>
      <point x="534" y="160"/>
      <point x="534" y="101" type="curve" smooth="yes"/>
      <point x="534" y="58"/>
      <point x="500" y="1"/>
      <point x="418" y="1" type="curve" smooth="yes"/>
      <point x="329" y="1"/>
      <point x="264" y="69"/>
      <point x="249" y="255" type="curve"/>
      <point x="239" y="255" type="line"/>
      <point x="251" y="66" type="line"/>
      <point x="283" y="14"/>
      <point x="353" y="-14"/>
      <point x="422" y="-14" type="curve" smooth="yes"/>
      <point x="509" y="-14"/>
      <point x="560" y="50"/>
      <point x="560" y="120" type="curve" smooth="yes"/>
      <point x="560" y="202"/>
      <point x="520" y="240"/>
      <point x="408" y="275" type="curve" smooth="yes"/>
      <point x="341" y="295"/>
      <point x="290" y="333"/>
      <point x="290" y="382" type="curve" smooth="yes"/>
      <point x="290" y="459"/>
      <point x="414" y="478"/>
      <point x="414" y="580" type="curve" smooth="yes"/>
      <point x="414" y="646"/>
      <point x="359" y="715"/>
      <point x="267" y="715" type="curve" smooth="yes"/>
      <point x="181" y="715"/>
      <point x="122" y="656"/>
      <point x="122" y="547" type="curve" smooth="yes"/>
      <point x="122" y="500" type="line"/>
      <point x="26" y="500" type="line"/>
      <point x="26" y="485" type="line"/>
      <point x="122" y="485" type="line"/>
      <point x="122" y="69" type="line" smooth="yes"/>
      <point x="122" y="21"/>
      <point x="97" y="17"/>
      <point x="32" y="10" type="curve"/>
    </contour>
  </outline>
</glyph>
<glyph name="ae" format="2">
  <advance width="797"/>
  <unicode hex="00E6"/>
  <anchor x="399" y="0" name="bottom"/>
  <anchor x="399" y="500" name="top"/>
  <outline>
    <contour>
      <point x="247" y="-14" type="curve" smooth="yes"/>
      <point x="338" y="-14"/>
      <point x="395" y="49"/>
      <point x="419" y="101" type="curve"/>
      <point x="456" y="27"/>
      <point x="527" y="-15"/>
      <point x="604" y="-15" type="curve" smooth="yes"/>
      <point x="735" y="-15"/>
      <point x="773" y="79"/>
      <point x="784" y="127" type="curve"/>
      <point x="770" y="132" type="line"/>
      <point x="760" y="71"/>
      <point x="710" y="0"/>
      <point x="612" y="0" type="curve" smooth="yes"/>
      <point x="527" y="0"/>
      <point x="436" y="81"/>
      <point x="436" y="246" type="curve" smooth="yes"/>
      <point x="436" y="273"/>
      <point x="438" y="297"/>
      <point x="442" y="320" type="curve"/>
      <point x="780" y="320" type="line"/>
      <point x="780" y="441"/>
      <point x="713" y="515"/>
      <point x="599" y="515" type="curve" smooth="yes"/>
      <point x="524" y="515"/>
      <point x="459" y="471"/>
      <point x="422" y="398" type="curve"/>
      <point x="405" y="472"/>
      <point x="335" y="515"/>
      <point x="256" y="515" type="curve" smooth="yes"/>
      <point x="192" y="515"/>
      <point x="143" y="486"/>
      <point x="108" y="469" type="curve"/>
      <point x="82" y="313" type="line"/>
      <point x="92" y="313" type="line"/>
      <point x="114" y="440"/>
      <point x="190" y="500"/>
      <point x="260" y="500" type="curve" smooth="yes"/>
      <point x="329" y="500"/>
      <point x="390" y="451"/>
      <point x="390" y="335" type="curve"/>
      <point x="163" y="335"/>
      <point x="70" y="253"/>
      <point x="70" y="143" type="curve" smooth="yes"/>
      <point x="70" y="42"/>
      <point x="158" y="-14"/>
    </contour>
    <contour>
      <point x="247" y="1" type="curve" smooth="yes"/>
      <point x="180" y="1"/>
      <point x="115" y="46"/>
      <point x="115" y="137" type="curve" smooth="yes"/>
      <point x="115" y="292"/>
      <point x="260" y="320"/>
      <point x="391" y="320" type="curve"/>
      <point x="391" y="305"/>
      <point x="391" y="289"/>
      <point x="391" y="274" type="curve"/>
      <point x="391" y="144" type="line" smooth="yes"/>
      <point x="391" y="51"/>
      <point x="318" y="1"/>
    </contour>
    <contour>
      <point x="445" y="335" type="line"/>
      <point x="470" y="446"/>
      <point x="539" y="500"/>
      <point x="602" y="500" type="curve" smooth="yes"/>
      <point x="691" y="500"/>
      <point x="735" y="426"/>
      <point x="740" y="335" type="curve"/>
    </contour>
  </outline>
</glyph>
<glyph name="eth" format="2">
  <advance width="559"/>
  <unicode hex="00F0"/>
  <anchor x="280" y="0" name="bottom"/>
  <anchor x="280" y="800" name="top"/>
  <outline>
    <contour>
      <point x="60" y="244" type="curve" smooth="yes"/>
      <point x="61" y="86"/>
      <point x="142" y="-16"/>
      <point x="282" y="-15" type="curve" smooth="yes"/>
      <point x="431" y="-14"/>
      <point x="501" y="109"/>
      <point x="499" y="322" type="curve" smooth="yes"/>
      <point x="496" y="586"/>
      <point x="416" y="694"/>
      <point x="316" y="730" type="curve" smooth="yes"/>
      <point x="267" y="748"/>
      <point x="203" y="750"/>
      <point x="137" y="730" type="curve"/>
      <point x="105" y="668" type="line"/>
      <point x="114" y="664" type="line"/>
      <point x="148" y="702"/>
      <point x="219" y="732"/>
      <point x="290" y="717" type="curve" smooth="yes"/>
      <point x="391" y="696"/>
      <point x="431" y="582"/>
      <point x="448" y="426" type="curve"/>
      <point x="409" y="494"/>
      <point x="338" y="516"/>
      <point x="271" y="515" type="curve" smooth="yes"/>
      <point x="142" y="514"/>
      <point x="58" y="410"/>
    </contour>
    <contour>
      <point x="454" y="281" type="curve" smooth="yes"/>
      <point x="455" y="181"/>
      <point x="420" y="1"/>
      <point x="276" y="0" type="curve" smooth="yes"/>
      <point x="148" y="-1"/>
      <point x="106" y="107"/>
      <point x="105" y="244" type="curve" smooth="yes"/>
      <point x="103" y="416"/>
      <point x="183" y="499"/>
      <point x="271" y="500" type="curve" smooth="yes"/>
      <point x="345" y="501"/>
      <point x="453" y="446"/>
    </contour>
    <contour>
      <point x="147" y="577" type="line"/>
      <point x="156" y="560" type="line"/>
      <point x="497" y="735" type="line"/>
      <point x="489" y="751" type="line"/>
    </contour>
  </outline>
</glyph>
<glyph name="divide" format="2">
  <advance width="653"/>
  <unicode hex="00F7"/>
  <outline>
    <contour>
      <point x="89" y="266" type="line"/>
      <point x="89" y="246" type="line"/>
      <point x="563" y="246" type="line"/>
      <point x="563" y="266" type="line"/>
    </contour>
    <contour>
      <point x="326" y="411" type="curve" smooth="yes"/>
      <point x="345" y="411"/>
      <point x="360" y="426"/>
      <point x="360" y="446" type="curve" smooth="yes"/>
      <point x="360" y="465"/>
      <point x="345" y="480"/>
      <point x="326" y="480" type="curve" smooth="yes"/>
      <point x="306" y="480"/>
      <point x="291" y="465"/>
      <point x="291" y="446" type="curve" smooth="yes"/>
      <point x="291" y="426"/>
      <point x="306" y="411"/>
    </contour>
    <contour>
      <point x="326" y="32" type="curve" smooth="yes"/>
      <point x="345" y="32"/>
      <point x="360" y="47"/>
      <point x="360" y="67" type="curve" smooth="yes"/>
      <point x="360" y="86"/>
      <point x="345" y="101"/>
      <point x="326" y="101" type="curve" smooth="yes"/>
      <point x="306" y="101"/>
      <point x="291" y="86"/>
      <point x="291" y="67" type="curve" smooth="yes"/>
      <point x="291" y="47"/>
      <point x="306" y="32"/>
    </contour>
  </outline>
</glyph>
<glyph name="oslash" format="2">
  <advance width="566"/>
  <unicode hex="00F8"/>
  <anchor x="283" y="500" name="top"/>
  <outline>
    <contour>
      <point x="438" y="563" type="line"/>
      <point x="126" y="-58" type="line"/>
      <point x="147" y="-58" type="line"/>
      <point x="457" y="561" type="line"/>
    </contour>
    <component base="o"/>
  </outline>
</glyph>
<glyph name="thorn" format="2">
  <advance width="569"/>
  <unicode hex="00FE"/>
  <anchor x="285" y="0" name="bottom"/>
  <anchor x="285" y="500" name="top"/>
  <outline>
    <contour>
      <point x="26" y="-200" type="line"/>
      <point x="246" y="-200" type="line"/>
      <point x="246" y="-190" type="line"/>
      <point x="181" y="-183"/>
      <point x="156" y="-179"/>
      <point x="156" y="-131" type="curve" smooth="yes"/>
      <point x="156" y="91" type="line"/>
      <point x="193" y="20"/>
      <point x="255" y="-15"/>
      <point x="317" y="-15" type="curve" smooth="yes"/>
      <point x="413" y="-15"/>
      <point x="508" y="70"/>
      <point x="508" y="245" type="curve" smooth="yes"/>
      <point x="508" y="424"/>
      <point x="411" y="515"/>
      <point x="314" y="515" type="curve" smooth="yes"/>
      <point x="253" y="515"/>
      <point x="192" y="479"/>
      <point x="156" y="407" type="curve"/>
      <point x="156" y="700" type="line"/>
      <point x="26" y="700" type="line"/>
      <point x="26" y="690" type="line"/>
      <point x="92" y="683"/>
      <point x="116" y="679"/>
      <point x="116" y="631" type="curve" smooth="yes"/>
      <point x="116" y="-131" type="line" smooth="yes"/>
      <point x="116" y="-179"/>
      <point x="91" y="-183"/>
      <point x="26" y="-190" type="curve"/>
    </contour>
    <contour>
      <point x="156" y="245" type="curve" smooth="yes"/>
      <point x="156" y="415"/>
      <point x="232" y="500"/>
      <point x="309" y="500" type="curve" smooth="yes"/>
      <point x="386" y="500"/>
      <point x="463" y="414"/>
      <point x="463" y="245" type="curve" smooth="yes"/>
      <point x="463" y="83"/>
      <point x="385" y="2"/>
      <point x="308" y="2" type="curve" smooth="yes"/>
      <point x="232" y="2"/>
      <point x="156" y="81"/>
    </contour>
  </outline>
</glyph>
<glyph name="dcroat" format="2">
  <advance width="551"/>
  <unicode hex="0111"/>
  <outline>
    <contour>
      <point x="210" y="598" type="line"/>
      <point x="210" y="582" type="line"/>
      <point x="522" y="582" type="line"/>
      <point x="522" y="598" type="line"/>
    </contour>
    <component base="d"/>
  </outline>
</glyph>
<glyph name="idotless" format="2">
  <advance width="263"/>
  <unicode hex="0131"/>
  <anchor x="132" y="0" name="bottom"/>
  <anchor x="237" y="10" name="ogonek"/>
  <anchor x="132" y="500" name="top"/>
  <outline>
    <contour>
      <point x="26" y="0" type="line"/>
      <point x="246" y="0" type="line"/>
      <point x="246" y="10" type="line"/>
      <point x="181" y="17"/>
      <point x="156" y="21"/>
      <point x="156" y="69" type="curve" smooth="yes"/>
      <point x="156" y="500" type="line"/>
      <point x="26" y="500" type="line"/>
      <point x="26" y="490" type="line"/>
      <point x="92" y="483"/>
      <point x="116" y="479"/>
      <point x="116" y="431" type="curve" smooth="yes"/>
      <point x="116" y="69" type="line" smooth="yes"/>
      <point x="116" y="21"/>
      <point x="91" y="17"/>
      <point x="26" y="10" type="curve"/>
    </contour>
  </outline>
</glyph>
<glyph name="Lslash" format="2">
  <advance width="559"/>
  <unicode hex="0141"/>
  <outline>
    <contour>
      <point x="344" y="461" type="line"/>
      <point x="38" y="292" type="line"/>
      <point x="46" y="276" type="line"/>
      <point x="352" y="445" type="line"/>
    </contour>
    <component base="L"/>
  </outline>
</glyph>
<glyph name="lslash" format="2">
  <advance width="254"/>
  <unicode hex="0142"/>
  <outline>
    <contour>
      <point x="232" y="458" type="line"/>
      <point x="20" y="341" type="line"/>
      <point x="28" y="325" type="line"/>
      <point x="240" y="442" type="line"/>
    </contour>
    <component base="l"/>
  </outline>
</glyph>
<glyph name="OE" format="2">
  <advance width="888"/>
  <unicode hex="0152"/>
  <anchor x="444" y="0" name="bottom"/>
  <anchor x="444" y="700" name="top"/>
  <outline>
    <contour>
      <point x="640" y="685" type="line" smooth="yes"/>
      <point x="753" y="685"/>
      <point x="776" y="635"/>
      <point x="783" y="485" type="curve"/>
      <point x="793" y="485" type="line"/>
      <point x="793" y="700" type="line"/>
      <point x="349" y="700" type="line" smooth="yes"/>
      <point x="188" y="700"/>
      <point x="77" y="546"/>
      <point x="77" y="345" type="curve" smooth="yes"/>
      <point x="77" y="143"/>
      <point x="188" y="0"/>
      <point x="349" y="0" type="curve" smooth="yes"/>
      <point x="793" y="0" type="line"/>
      <point x="793" y="214" type="line"/>
      <point x="783" y="214" type="line"/>
      <point x="777" y="76"/>
      <point x="757" y="23"/>
      <point x="666" y="15" type="curve"/>
      <point x="476" y="15" type="line"/>
      <point x="476" y="485" type="line"/>
      <point x="485" y="485" type="line" smooth="yes"/>
      <point x="626" y="485"/>
      <point x="651" y="478"/>
      <point x="720" y="307" type="curve"/>
      <point x="730" y="310" type="line"/>
      <point x="625" y="620" type="line"/>
      <point x="615" y="617" type="line"/>
      <point x="642" y="500"/>
      <point x="625" y="500"/>
      <point x="485" y="500" type="curve" smooth="yes"/>
      <point x="476" y="500" type="line"/>
      <point x="476" y="685" type="line"/>
    </contour>
    <contour>
      <point x="431" y="74" type="line" smooth="yes"/>
      <point x="431" y="26"/>
      <point x="408" y="15"/>
      <point x="361" y="15" type="curve" smooth="yes"/>
      <point x="349" y="15" type="line" smooth="yes"/>
      <point x="238" y="15"/>
      <point x="127" y="115"/>
      <point x="127" y="345" type="curve" smooth="yes"/>
      <point x="127" y="582"/>
      <point x="238" y="685"/>
      <point x="348" y="685" type="curve" smooth="yes"/>
      <point x="361" y="685" type="line" smooth="yes"/>
      <point x="409" y="685"/>
      <point x="431" y="674"/>
      <point x="431" y="626" type="curve" smooth="yes"/>
    </contour>
  </outline>
</glyph>
<glyph name="oe" format="2">
  <advance width="877"/>
  <unicode hex="0153"/>
  <anchor x="439" y="0" name="bottom"/>
  <anchor x="439" y="500" name="top"/>
  <outline>
    <contour>
      <point x="273" y="-15" type="curve" smooth="yes"/>
      <point x="364" y="-15"/>
      <point x="432" y="45"/>
      <point x="467" y="132" type="curve"/>
      <point x="501" y="45"/>
      <point x="578" y="-15"/>
      <point x="662" y="-15" type="curve" smooth="yes"/>
      <point x="793" y="-15"/>
      <point x="831" y="79"/>
      <point x="842" y="127" type="curve"/>
      <point x="828" y="132" type="line"/>
      <point x="818" y="71"/>
      <point x="768" y="0"/>
      <point x="670" y="0" type="curve" smooth="yes"/>
      <point x="585" y="0"/>
      <point x="494" y="81"/>
      <point x="494" y="246" type="curve" smooth="yes"/>
      <point x="494" y="273"/>
      <point x="496" y="297"/>
      <point x="500" y="320" type="curve"/>
      <point x="838" y="320" type="line"/>
      <point x="838" y="440"/>
      <point x="772" y="514"/>
      <point x="660" y="515" type="curve" smooth="yes"/>
      <point x="576" y="516"/>
      <point x="506" y="464"/>
      <point x="471" y="376" type="curve"/>
      <point x="436" y="464"/>
      <point x="364" y="515"/>
      <point x="273" y="515" type="curve" smooth="yes"/>
      <point x="144" y="515"/>
      <point x="50" y="412"/>
      <point x="50" y="246" type="curve" smooth="yes"/>
      <point x="50" y="80"/>
      <point x="144" y="-15"/>
    </contour>
    <contour>
      <point x="273" y="-3" type="curve" smooth="yes"/>
      <point x="184" y="-3"/>
      <point x="95" y="81"/>
      <point x="95" y="246" type="curve" smooth="yes"/>
      <point x="95" y="417"/>
      <point x="184" y="503"/>
      <point x="273" y="503" type="curve" smooth="yes"/>
      <point x="361" y="503"/>
      <point x="449" y="418"/>
      <point x="449" y="246" type="curve" smooth="yes"/>
      <point x="449" y="80"/>
      <point x="361" y="-3"/>
    </contour>
    <contour>
      <point x="503" y="335" type="line"/>
      <point x="528" y="447"/>
      <point x="598" y="501"/>
      <point x="662" y="500" type="curve" smooth="yes"/>
      <point x="750" y="499"/>
      <point x="793" y="425"/>
      <point x="798" y="335" type="curve"/>
    </contour>
  </outline>
</glyph>
<glyph name="florin" format="2">
  <advance width="560"/>
  <unicode hex="0192"/>
  <outline>
    <contour>
      <point x="285" y="547" type="curve" smooth="yes"/>
      <point x="260" y="270" type="line"/>
      <point x="48" y="270" type="line"/>
      <point x="48" y="255" type="line"/>
      <point x="258" y="255" type="line"/>
      <point x="235" y="0" type="line"/>
      <point x="241" y="-15"/>
      <point x="246" y="-33"/>
      <point x="246" y="-79" type="curve" smooth="yes"/>
      <point x="246" y="-167"/>
      <point x="197" y="-200"/>
      <point x="135" y="-200" type="curve" smooth="yes"/>
      <point x="64" y="-200"/>
      <point x="26" y="-160"/>
      <point x="-7" y="-32" type="curve"/>
      <point x="-17" y="-32" type="line"/>
      <point x="2" y="-169" type="line"/>
      <point x="34" y="-200"/>
      <point x="77" y="-215"/>
      <point x="130" y="-215" type="curve" smooth="yes"/>
      <point x="224" y="-215"/>
      <point x="265" y="-156"/>
      <point x="275" y="-47" type="curve" smooth="yes"/>
      <point x="303" y="255" type="line"/>
      <point x="512" y="255" type="line"/>
      <point x="512" y="270" type="line"/>
      <point x="304" y="270" type="line"/>
      <point x="325" y="500" type="line"/>
      <point x="318" y="513"/>
      <point x="314" y="533"/>
      <point x="314" y="579" type="curve" smooth="yes"/>
      <point x="314" y="667"/>
      <point x="373" y="700"/>
      <point x="425" y="700" type="curve" smooth="yes"/>
      <point x="496" y="700"/>
      <point x="534" y="660"/>
      <point x="567" y="532" type="curve"/>
      <point x="577" y="532" type="line"/>
      <point x="558" y="669" type="line"/>
      <point x="526" y="700"/>
      <point x="483" y="715"/>
      <point x="430" y="715" type="curve" smooth="yes"/>
      <point x="346" y="715"/>
      <point x="295" y="656"/>
    </contour>
  </outline>
</glyph>
<glyph name="jdotless" format="2">
  <advance width="227"/>
  <unicode hex="0237"/>
  <anchor x="114" y="-200" name="bottom"/>
  <anchor x="114" y="500" name="top"/>
  <outline>
    <contour>
      <point x="46" y="-215" type="curve" smooth="yes"/>
      <point x="135" y="-215"/>
      <point x="147" y="-121"/>
      <point x="147" y="-12" type="curve" smooth="yes"/>
      <point x="147" y="500" type="line"/>
      <point x="17" y="500" type="line"/>
      <point x="17" y="490" type="line"/>
      <point x="83" y="483"/>
      <point x="107" y="479"/>
      <point x="107" y="431" type="curve" smooth="yes"/>
      <point x="107" y="-12" type="line" smooth="yes"/>
      <point x="107" y="-98"/>
      <point x="102" y="-193"/>
      <point x="33" y="-193" type="curve" smooth="yes"/>
      <point x="-2" y="-193"/>
      <point x="-42" y="-161"/>
      <point x="-61" y="-106" type="curve"/>
      <point x="-74" y="-112" type="line"/>
      <point x="-57" y="-176"/>
      <point x="-4" y="-215"/>
    </contour>
  </outline>
</glyph>
<glyph name="gravecomb" format="2">
  <advance width="345"/>
  <unicode hex="0300"/>
  <anchor x="249" y="500" name="_top"/>
  <anchor x="249" y="753" name="top"/>
  <outline>
    <contour>
      <point x="149" y="727" type="line"/>
      <point x="342" y="570" type="line"/>
      <point x="348" y="578" type="line"/>
      <point x="173" y="753" type="line"/>
    </contour>
  </outline>
</glyph>
<glyph name="acutecomb" format="2">
  <advance width="361"/>
  <unicode hex="0301"/>
  <anchor x="262" y="500" name="_top"/>
  <anchor x="262" y="753" name="top"/>
  <outline>
    <contour>
      <point x="361" y="727" type="line"/>
      <point x="337" y="753" type="line"/>
      <point x="162" y="578" type="line"/>
      <point x="168" y="570" type="line"/>
    </contour>
  </outline>
</glyph>
<glyph name="circumflexcomb" format="2">
  <advance width="366"/>
  <unicode hex="0302"/>
  <anchor x="286" y="500" name="_top"/>
  <anchor x="286" y="753" name="top"/>
  <outline>
    <contour>
      <point x="431" y="578" type="line"/>
      <point x="286" y="753" type="line"/>
      <point x="141" y="578" type="line"/>
      <point x="147" y="570" type="line"/>
      <point x="286" y="705" type="line"/>
      <point x="425" y="570" type="line"/>
    </contour>
  </outline>
</glyph>
<glyph name="tildecomb" format="2">
  <advance width="432"/>
  <unicode hex="0303"/>
  <anchor x="328" y="500" name="_top"/>
  <anchor x="328" y="700" name="top"/>
  <outline>
    <contour>
      <point x="242" y="679" type="curve" smooth="yes"/>
      <point x="291" y="679"/>
      <point x="348" y="583"/>
      <point x="411" y="583" type="curve" smooth="yes"/>
      <point x="435" y="583"/>
      <point x="461" y="598"/>
      <point x="461" y="676" type="curve"/>
      <point x="451" y="676" type="line"/>
      <point x="451" y="626"/>
      <point x="438" y="604"/>
      <point x="414" y="604" type="curve" smooth="yes"/>
      <point x="365" y="604"/>
      <point x="310" y="700"/>
      <point x="247" y="700" type="curve" smooth="yes"/>
      <point x="223" y="700"/>
      <point x="195" y="685"/>
      <point x="195" y="607" type="curve"/>
      <point x="205" y="607" type="line"/>
      <point x="205" y="657"/>
      <point x="218" y="679"/>
    </contour>
  </outline>
</glyph>
<glyph name="macroncomb" format="2">
  <advance width="600"/>
  <unicode hex="0304"/>
  <anchor x="384" y="500" name="_top"/>
  <anchor x="384" y="672" name="top"/>
  <outline>
    <contour>
      <point x="244" y="640" type="line"/>
      <point x="244" y="615" type="line"/>
      <point x="524" y="615" type="line"/>
      <point x="524" y="640" type="line"/>
    </contour>
  </outline>
</glyph>
<glyph name="brevecomb" format="2">
  <advance width="600"/>
  <unicode hex="0306"/>
  <anchor x="286" y="500" name="_top"/>
  <anchor x="286" y="754" name="top"/>
  <outline>
    <contour>
      <point x="141" y="734" type="line"/>
      <point x="141" y="634"/>
      <point x="205" y="584"/>
      <point x="286" y="584" type="curve" smooth="yes"/>
      <point x="367" y="584"/>
      <point x="431" y="634"/>
      <point x="431" y="734" type="curve"/>
      <point x="419" y="734" type="line"/>
      <point x="419" y="662"/>
      <point x="366" y="624"/>
      <point x="286" y="624" type="curve" smooth="yes"/>
      <point x="206" y="624"/>
      <point x="153" y="665"/>
      <point x="153" y="734" type="curve"/>
    </contour>
  </outline>
</glyph>
<glyph name="dotaccentcomb" format="2">
  <advance width="600"/>
  <unicode hex="0307"/>
  <anchor x="305" y="460" name="_top"/>
  <anchor x="305" y="650" name="top"/>
  <outline>
    <contour>
      <point x="338" y="617" type="curve" smooth="yes"/>
      <point x="338" y="637"/>
      <point x="322" y="650"/>
      <point x="305" y="650" type="curve" smooth="yes"/>
      <point x="288" y="650"/>
      <point x="272" y="636"/>
      <point x="272" y="617" type="curve" smooth="yes"/>
      <point x="272" y="597"/>
      <point x="288" y="584"/>
      <point x="305" y="584" type="curve" smooth="yes"/>
      <point x="322" y="584"/>
      <point x="338" y="597"/>
    </contour>
  </outline>
</glyph>
<glyph name="dieresiscomb" format="2">
  <advance width="473"/>
  <unicode hex="0308"/>
  <anchor x="297" y="500" name="_top"/>
  <anchor x="297" y="650" name="top"/>
  <outline>
    <contour>
      <point x="238" y="584" type="curve" smooth="yes"/>
      <point x="255" y="584"/>
      <point x="271" y="597"/>
      <point x="271" y="617" type="curve" smooth="yes"/>
      <point x="271" y="637"/>
      <point x="255" y="650"/>
      <point x="238" y="650" type="curve" smooth="yes"/>
      <point x="221" y="650"/>
      <point x="205" y="636"/>
      <point x="205" y="617" type="curve" smooth="yes"/>
      <point x="205" y="597"/>
      <point x="221" y="584"/>
    </contour>
    <contour>
      <point x="355" y="584" type="curve" smooth="yes"/>
      <point x="372" y="584"/>
      <point x="388" y="597"/>
      <point x="388" y="617" type="curve" smooth="yes"/>
      <point x="388" y="637"/>
      <point x="372" y="650"/>
      <point x="355" y="650" type="curve" smooth="yes"/>
      <point x="338" y="650"/>
      <point x="322" y="636"/>
      <point x="322" y="617" type="curve" smooth="yes"/>
      <point x="322" y="597"/>
      <point x="338" y="584"/>
    </contour>
  </outline>
</glyph>
<glyph name="ringcomb" format="2">
  <advance width="600"/>
  <unicode hex="030A"/>
  <anchor x="263" y="500" name="_top"/>
  <anchor x="263" y="753" name="top"/>
  <outline>
    <contour>
      <point x="263" y="597" type="curve" smooth="yes"/>
      <point x="306" y="597"/>
      <point x="341" y="632"/>
      <point x="341" y="675" type="curve" smooth="yes"/>
      <point x="341" y="718"/>
      <point x="306" y="753"/>
      <point x="263" y="753" type="curve" smooth="yes"/>
      <point x="220" y="753"/>
      <point x="185" y="718"/>
      <point x="185" y="675" type="curve" smooth="yes"/>
      <point x="185" y="632"/>
      <point x="220" y="597"/>
    </contour>
    <contour>
      <point x="263" y="612" type="curve" smooth="yes"/>
      <point x="228" y="612"/>
      <point x="202" y="640"/>
      <point x="202" y="675" type="curve" smooth="yes"/>
      <point x="202" y="710"/>
      <point x="228" y="738"/>
      <point x="263" y="738" type="curve" smooth="yes"/>
      <point x="298" y="738"/>
      <point x="324" y="710"/>
      <point x="324" y="675" type="curve" smooth="yes"/>
      <point x="324" y="640"/>
      <point x="298" y="612"/>
    </contour>
  </outline>
</glyph>
<glyph name="hungarumlautcomb" format="2">
  <advance width="600"/>
  <unicode hex="030B"/>
  <anchor x="321" y="500" name="_top"/>
  <anchor x="361" y="763" name="top"/>
  <outline>
    <contour>
      <point x="381" y="737" type="line"/>
      <point x="357" y="763" type="line"/>
      <point x="182" y="588" type="line"/>
      <point x="188" y="580" type="line"/>
    </contour>
    <contour>
      <point x="539" y="715" type="line"/>
      <point x="518" y="743" type="line"/>
      <point x="324" y="590" type="line"/>
      <point x="329" y="581" type="line"/>
    </contour>
  </outline>
</glyph>
<glyph name="caroncomb" format="2">
  <advance width="600"/>
  <unicode hex="030C"/>
  <anchor x="286" y="500" name="_top"/>
  <anchor x="286" y="754" name="top"/>
  <outline>
    <contour>
      <point x="141" y="746" type="line"/>
      <point x="286" y="571" type="line"/>
      <point x="431" y="746" type="line"/>
      <point x="425" y="754" type="line"/>
      <point x="286" y="619" type="line"/>
      <point x="147" y="754" type="line"/>
    </contour>
  </outline>
</glyph>
<glyph name="commaturnedabovecomb" format="2">
  <advance width="600"/>
  <unicode hex="0312"/>
  <anchor x="314" y="500" name="_top"/>
  <anchor x="314" y="772" name="top"/>
  <outline>
    <contour>
      <point x="343" y="772" type="line"/>
      <point x="291" y="735"/>
      <point x="273" y="689"/>
      <point x="273" y="637" type="curve" smooth="yes"/>
      <point x="273" y="592"/>
      <point x="288" y="556"/>
      <point x="318" y="556" type="curve" smooth="yes"/>
      <point x="339" y="556"/>
      <point x="355" y="571"/>
      <point x="355" y="591" type="curve" smooth="yes"/>
      <point x="355" y="611"/>
      <point x="341" y="622"/>
      <point x="324" y="622" type="curve" smooth="yes"/>
      <point x="318" y="622"/>
      <point x="312" y="621"/>
      <point x="304" y="617" type="curve"/>
      <point x="288" y="668"/>
      <point x="298" y="722"/>
      <point x="349" y="763" type="curve"/>
    </contour>
  </outline>
</glyph>
<glyph name="commaaccentcomb" format="2">
  <advance width="600"/>
  <unicode hex="0326"/>
  <anchor x="313" y="0" name="_bottom"/>
  <anchor x="313" y="-204" name="bottom"/>
  <outline>
    <contour>
      <point x="264" y="-264" type="line"/>
      <point x="352" y="-229"/>
      <point x="368" y="-156"/>
      <point x="366" y="-97" type="curve" smooth="yes"/>
      <point x="365" y="-69"/>
      <point x="347" y="-59"/>
      <point x="330" y="-59" type="curve" smooth="yes"/>
      <point x="311" y="-59"/>
      <point x="295" y="-73"/>
      <point x="295" y="-92" type="curve" smooth="yes"/>
      <point x="295" y="-112"/>
      <point x="311" y="-125"/>
      <point x="328" y="-125" type="curve" smooth="yes"/>
      <point x="332" y="-125"/>
      <point x="335" y="-124"/>
      <point x="339" y="-123" type="curve"/>
      <point x="342" y="-163"/>
      <point x="330" y="-222"/>
      <point x="260" y="-254" type="curve"/>
    </contour>
  </outline>
</glyph>
<glyph name="cedillacomb" format="2">
  <advance width="270"/>
  <unicode hex="0327"/>
  <anchor x="129" y="-1" name="_bottom"/>
  <anchor x="129" y="-216" name="bottom"/>
  <outline>
    <contour>
      <point x="61" y="-182" type="curve"/>
      <point x="53" y="-196" type="line"/>
      <point x="71" y="-210"/>
      <point x="92" y="-216"/>
      <point x="114" y="-216" type="curve" smooth="yes"/>
      <point x="165" y="-216"/>
      <point x="205" y="-185"/>
      <point x="205" y="-138" type="curve" smooth="yes"/>
      <point x="205" y="-97"/>
      <point x="166" y="-59"/>
      <point x="106" y="-59" type="curve"/>
      <point x="134" y="-1" type="line"/>
      <point x="118" y="-1" type="line"/>
      <point x="89" y="-60" type="line"/>
      <point x="89" y="-75" type="line"/>
      <point x="146" y="-75"/>
      <point x="175" y="-111"/>
      <point x="175" y="-140" type="curve" smooth="yes"/>
      <point x="175" y="-176"/>
      <point x="151" y="-201"/>
      <point x="113" y="-201" type="curve" smooth="yes"/>
      <point x="96" y="-201"/>
      <point x="78" y="-195"/>
    </contour>
  </outline>
</glyph>
<glyph name="ogonekcomb" format="2">
  <advance width="600"/>
  <unicode hex="0328"/>
  <anchor x="374" y="-8" name="_ogonek"/>
  <outline>
    <contour>
      <point x="261" y="-8" type="line"/>
      <point x="149" y="-184"/>
      <point x="228" y="-222"/>
      <point x="277" y="-222" type="curve" smooth="yes"/>
      <point x="309" y="-222"/>
      <point x="338" y="-206"/>
      <point x="374" y="-168" type="curve"/>
      <point x="367" y="-162" type="line"/>
      <point x="341" y="-189"/>
      <point x="317" y="-198"/>
      <point x="286" y="-198" type="curve" smooth="yes"/>
      <point x="245" y="-198"/>
      <point x="185" y="-162"/>
      <point x="267" y="-14" type="curve"/>
    </contour>
  </outline>
</glyph>
<glyph name="mu" format="2">
  <advance width="512"/>
  <unicode hex="03BC"/>
  <outline>
    <contour>
      <point x="65" y="266" type="line"/>
      <point x="25" y="266" type="line"/>
      <point x="25" y="153" type="line" smooth="yes"/>
      <point x="25" y="40"/>
      <point x="104" y="-15"/>
      <point x="189" y="-15" type="curve" smooth="yes"/>
      <point x="255" y="-15"/>
      <point x="325" y="18"/>
      <point x="365" y="83" type="curve"/>
      <point x="365" y="0" type="line"/>
      <point x="495" y="0" type="line"/>
      <point x="495" y="10" type="line"/>
      <point x="429" y="17"/>
      <point x="405" y="21"/>
      <point x="405" y="69" type="curve" smooth="yes"/>
      <point x="405" y="500" type="line"/>
      <point x="365" y="500" type="line"/>
      <point x="365" y="191" type="line" smooth="yes"/>
      <point x="365" y="66"/>
      <point x="278" y="0"/>
      <point x="199" y="0" type="curve" smooth="yes"/>
      <point x="130" y="0"/>
      <point x="65" y="50"/>
      <point x="65" y="157" type="curve" smooth="yes"/>
    </contour>
    <contour>
      <point x="25" y="-200" type="line"/>
      <point x="65" y="-200" type="line"/>
      <point x="65" y="500" type="line"/>
      <point x="25" y="500" type="line"/>
    </contour>
  </outline>
</glyph>
<glyph name="endash" format="2">
  <advance width="482"/>
  <unicode hex="2013"/>
  <outline>
    <contour>
      <point x="50" y="266" type="line"/>
      <point x="50" y="246" type="line"/>
      <point x="432" y="246" type="line"/>
      <point x="432" y="266" type="line"/>
    </contour>
  </outline>
</glyph>
<glyph name="emdash" format="2">
  <advance width="652"/>
  <unicode hex="2014"/>
  <outline>
    <contour>
      <point x="50" y="266" type="line"/>
      <point x="50" y="246" type="line"/>
      <point x="602" y="246" type="line"/>
      <point x="602" y="266" type="line"/>
    </contour>
  </outline>
</glyph>
<glyph name="quotedblleft" format="2">
  <advance width="299"/>
  <unicode hex="201C"/>
  <outline>
    <contour>
      <point x="125" y="715" type="line"/>
      <point x="53" y="684"/>
      <point x="48" y="617"/>
      <point x="50" y="558" type="curve" smooth="yes"/>
      <point x="51" y="530"/>
      <point x="69" y="520"/>
      <point x="86" y="520" type="curve" smooth="yes"/>
      <point x="105" y="520"/>
      <point x="121" y="534"/>
      <point x="121" y="553" type="curve" smooth="yes"/>
      <point x="121" y="573"/>
      <point x="105" y="586"/>
      <point x="88" y="586" type="curve" smooth="yes"/>
      <point x="84" y="586"/>
      <point x="81" y="585"/>
      <point x="77" y="584" type="curve"/>
      <point x="74" y="624"/>
      <point x="75" y="678"/>
      <point x="129" y="705" type="curve"/>
    </contour>
    <contour>
      <point x="265" y="715" type="line"/>
      <point x="193" y="684"/>
      <point x="188" y="617"/>
      <point x="190" y="558" type="curve" smooth="yes"/>
      <point x="191" y="530"/>
      <point x="209" y="520"/>
      <point x="226" y="520" type="curve" smooth="yes"/>
      <point x="245" y="520"/>
      <point x="261" y="534"/>
      <point x="261" y="553" type="curve" smooth="yes"/>
      <point x="261" y="573"/>
      <point x="245" y="586"/>
      <point x="228" y="586" type="curve" smooth="yes"/>
      <point x="224" y="586"/>
      <point x="221" y="585"/>
      <point x="217" y="584" type="curve"/>
      <point x="214" y="624"/>
      <point x="215" y="678"/>
      <point x="269" y="705" type="curve"/>
    </contour>
  </outline>
</glyph>
<glyph name="dagger" format="2">
  <advance width="385"/>
  <unicode hex="2020"/>
  <outline>
    <contour>
      <point x="187" y="-200" type="line"/>
      <point x="197" y="-200" type="line"/>
      <point x="242" y="331" type="line"/>
      <point x="194" y="353"/>
      <point x="200" y="387"/>
      <point x="200" y="492" type="curve" smooth="yes"/>
      <point x="200" y="662"/>
      <point x="211" y="685"/>
      <point x="300" y="689" type="curve"/>
      <point x="300" y="699" type="line"/>
      <point x="85" y="699" type="line"/>
      <point x="85" y="689" type="line"/>
      <point x="174" y="685"/>
      <point x="185" y="662"/>
      <point x="185" y="492" type="curve" smooth="yes"/>
      <point x="185" y="387"/>
      <point x="190" y="353"/>
      <point x="142" y="331" type="curve"/>
    </contour>
    <contour>
      <point x="325" y="500" type="line"/>
      <point x="60" y="500" type="line"/>
      <point x="60" y="485" type="line"/>
      <point x="325" y="485" type="line"/>
    </contour>
  </outline>
</glyph>
<glyph name="daggerdbl" format="2">
  <advance width="385"/>
  <unicode hex="2021"/>
  <outline>
    <contour>
      <point x="185" y="250" type="line"/>
      <point x="142" y="38" type="line"/>
      <point x="190" y="16"/>
      <point x="185" y="-18"/>
      <point x="185" y="-73" type="curve" smooth="yes"/>
      <point x="185" y="-163"/>
      <point x="174" y="-186"/>
      <point x="85" y="-190" type="curve"/>
      <point x="85" y="-200" type="line"/>
      <point x="300" y="-200" type="line"/>
      <point x="300" y="-190" type="line"/>
      <point x="211" y="-186"/>
      <point x="200" y="-163"/>
      <point x="200" y="-73" type="curve" smooth="yes"/>
      <point x="200" y="-18"/>
      <point x="194" y="16"/>
      <point x="242" y="38" type="curve"/>
      <point x="199" y="250" type="line"/>
      <point x="242" y="462" type="line"/>
      <point x="194" y="484"/>
      <point x="200" y="518"/>
      <point x="200" y="573" type="curve" smooth="yes"/>
      <point x="200" y="663"/>
      <point x="211" y="686"/>
      <point x="300" y="690" type="curve"/>
      <point x="300" y="700" type="line"/>
      <point x="85" y="700" type="line"/>
      <point x="85" y="690" type="line"/>
      <point x="174" y="686"/>
      <point x="185" y="663"/>
      <point x="185" y="573" type="curve" smooth="yes"/>
      <point x="185" y="518"/>
      <point x="190" y="484"/>
      <point x="142" y="462" type="curve"/>
    </contour>
    <contour>
      <point x="325" y="581" type="line"/>
      <point x="60" y="581" type="line"/>
      <point x="60" y="566" type="line"/>
      <point x="325" y="566" type="line"/>
    </contour>
    <contour>
      <point x="325" y="-81" type="line"/>
      <point x="325" y="-66" type="line"/>
      <point x="60" y="-66" type="line"/>
      <point x="60" y="-81" type="line"/>
    </contour>
  </outline>
</glyph>
<glyph name="bullet" format="2">
  <advance width="272"/>
  <unicode hex="2022"/>
  <outline>
    <contour>
      <point x="136" y="204" type="curve" smooth="yes"/>
      <point x="170" y="204"/>
      <point x="202" y="230"/>
      <point x="202" y="270" type="curve" smooth="yes"/>
      <point x="202" y="310"/>
      <point x="170" y="336"/>
      <point x="136" y="336" type="curve" smooth="yes"/>
      <point x="102" y="336"/>
      <point x="70" y="308"/>
      <point x="70" y="270" type="curve" smooth="yes"/>
      <point x="70" y="230"/>
      <point x="102" y="204"/>
    </contour>
  </outline>
</glyph>
<glyph name="perthousand" format="2">
  <advance width="967"/>
  <unicode hex="2030"/>
  <outline>
    <contour>
      <point x="90" y="0" type="line"/>
      <point x="114" y="0" type="line"/>
      <point x="563" y="715" type="line"/>
      <point x="539" y="715" type="line"/>
    </contour>
    <contour>
      <point x="192" y="463" type="curve" smooth="yes"/>
      <point x="261" y="463"/>
      <point x="317" y="519"/>
      <point x="317" y="589" type="curve" smooth="yes"/>
      <point x="317" y="657"/>
      <point x="261" y="713"/>
      <point x="192" y="713" type="curve" smooth="yes"/>
      <point x="123" y="713"/>
      <point x="67" y="657"/>
      <point x="67" y="589" type="curve" smooth="yes"/>
      <point x="67" y="519"/>
      <point x="123" y="463"/>
    </contour>
    <contour>
      <point x="300" y="589" type="curve" smooth="yes"/>
      <point x="300" y="527"/>
      <point x="246" y="496"/>
      <point x="192" y="496" type="curve" smooth="yes"/>
      <point x="137" y="496"/>
      <point x="83" y="527"/>
      <point x="83" y="589" type="curve" smooth="yes"/>
      <point x="83" y="650"/>
      <point x="137" y="680"/>
      <point x="192" y="680" type="curve" smooth="yes"/>
      <point x="246" y="680"/>
      <point x="300" y="650"/>
    </contour>
    <contour>
      <point x="468" y="-14" type="curve" smooth="yes"/>
      <point x="536" y="-14"/>
      <point x="592" y="42"/>
      <point x="592" y="111" type="curve" smooth="yes"/>
      <point x="592" y="180"/>
      <point x="536" y="236"/>
      <point x="468" y="236" type="curve" smooth="yes"/>
      <point x="398" y="236"/>
      <point x="342" y="180"/>
      <point x="342" y="111" type="curve" smooth="yes"/>
      <point x="342" y="42"/>
      <point x="398" y="-14"/>
    </contour>
    <contour>
      <point x="576" y="111" type="curve" smooth="yes"/>
      <point x="576" y="50"/>
      <point x="522" y="19"/>
      <point x="468" y="19" type="curve" smooth="yes"/>
      <point x="413" y="19"/>
      <point x="359" y="50"/>
      <point x="359" y="111" type="curve" smooth="yes"/>
      <point x="359" y="173"/>
      <point x="413" y="203"/>
      <point x="468" y="203" type="curve" smooth="yes"/>
      <point x="522" y="203"/>
      <point x="576" y="173"/>
    </contour>
    <contour>
      <point x="778" y="-14" type="curve" smooth="yes"/>
      <point x="846" y="-14"/>
      <point x="902" y="42"/>
      <point x="902" y="111" type="curve" smooth="yes"/>
      <point x="902" y="180"/>
      <point x="846" y="236"/>
      <point x="778" y="236" type="curve" smooth="yes"/>
      <point x="708" y="236"/>
      <point x="652" y="180"/>
      <point x="652" y="111" type="curve" smooth="yes"/>
      <point x="652" y="42"/>
      <point x="708" y="-14"/>
    </contour>
    <contour>
      <point x="886" y="111" type="curve" smooth="yes"/>
      <point x="886" y="50"/>
      <point x="832" y="19"/>
      <point x="778" y="19" type="curve" smooth="yes"/>
      <point x="723" y="19"/>
      <point x="669" y="50"/>
      <point x="669" y="111" type="curve" smooth="yes"/>
      <point x="669" y="173"/>
      <point x="723" y="203"/>
      <point x="778" y="203" type="curve" smooth="yes"/>
      <point x="832" y="203"/>
      <point x="886" y="173"/>
    </contour>
  </outline>
</glyph>
<glyph name="guilsinglleft" format="2">
  <advance width="271"/>
  <unicode hex="2039"/>
  <outline>
    <contour>
      <point x="205" y="406" type="line"/>
      <point x="40" y="261" type="line"/>
      <point x="205" y="116" type="line"/>
      <point x="211" y="122" type="line"/>
      <point x="75" y="261" type="line"/>
      <point x="211" y="400" type="line"/>
    </contour>
  </outline>
</glyph>
<glyph name="guilsinglright" format="2">
  <advance width="271"/>
  <unicode hex="203A"/>
  <outline>
    <contour>
      <point x="66" y="406" type="line"/>
      <point x="60" y="400" type="line"/>
      <point x="196" y="261" type="line"/>
      <point x="60" y="122" type="line"/>
      <point x="66" y="116" type="line"/>
      <point x="231" y="261" type="line"/>
    </contour>
  </outline>
</glyph>
<glyph name="fraction" format="2">
  <advance width="458"/>
  <unicode hex="2044"/>
  <outline>
    <contour>
      <point x="402" y="700" type="line"/>
      <point x="20" y="0" type="line"/>
      <point x="48" y="0" type="line"/>
      <point x="430" y="700" type="line"/>
    </contour>
  </outline>
</glyph>
